{"glyphs":{"0":{"ha":578,"x_min":0,"x_max":0,"o":"m 288 -18 l 321 -15 l 340 -10 l 361 -3 l 381 7 l 397 17 l 418 33 l 431 50 l 444 65 l 454 85 l 465 101 l 476 122 l 492 164 l 493 189 l 501 214 l 514 297 l 515 318 l 519 342 l 518 365 l 519 499 l 522 524 l 521 546 l 517 571 l 518 593 l 504 715 l 482 803 l 465 844 l 454 864 l 442 879 l 431 897 l 397 928 l 381 936 l 361 943 l 340 947 l 321 956 l 288 960 l 254 954 l 235 953 l 214 946 l 175 925 l 128 881 l 97 819 l 79 758 l 69 690 l 64 672 l 61 650 l 61 625 l 57 606 l 58 583 l 54 561 l 57 540 l 53 460 l 57 358 l 57 332 l 74 196 l 96 135 l 103 111 l 114 94 l 121 69 l 161 28 l 181 13 l 199 3 l 218 -1 l 236 -10 l 256 -14 z m 258 67 l 236 79 l 215 88 l 193 125 l 182 146 l 178 165 l 163 211 l 150 324 l 149 365 l 150 383 l 144 407 l 147 428 l 149 574 l 151 594 l 154 618 l 154 647 l 168 739 l 175 760 l 178 783 l 189 804 l 199 824 l 213 840 l 224 857 l 238 868 l 256 875 l 285 875 l 317 874 l 339 867 l 369 831 l 382 808 l 400 768 l 417 676 l 415 657 l 418 633 l 422 613 l 428 543 l 426 519 l 429 401 l 425 382 l 421 308 l 418 288 l 418 265 l 414 242 l 413 218 l 406 197 l 397 175 l 386 132 l 376 114 l 361 100 l 350 85 l 336 76 l 315 71 l 289 67 z "},"1":{"ha":401,"x_min":0,"x_max":0,"o":"m 275 0 l 297 7 l 310 32 l 307 124 l 311 143 l 310 189 l 311 229 l 310 256 l 307 276 l 310 297 l 306 319 l 311 361 l 308 383 l 307 740 l 308 757 l 310 826 l 307 849 l 311 892 l 310 914 l 296 938 l 272 950 l 247 949 l 215 940 l 176 907 l 149 872 l 133 856 l 121 835 l 86 794 l 67 763 l 51 746 l 49 726 l 54 706 l 72 690 l 94 690 l 118 701 l 131 719 l 146 736 l 188 793 l 206 808 l 215 819 l 224 806 l 217 722 l 218 689 l 217 667 l 218 646 l 217 533 l 218 517 l 215 494 l 219 471 l 215 451 l 215 407 l 217 382 l 215 360 l 215 297 l 218 275 l 217 249 l 218 228 l 215 207 l 218 186 l 219 164 l 215 93 l 219 75 l 215 35 l 231 11 l 251 3 z "},"2":{"ha":524,"x_min":0,"x_max":0,"o":"m 186 -6 l 208 -1 l 254 1 l 275 -4 l 342 0 l 388 -3 l 408 1 l 431 -3 l 456 13 l 467 35 l 456 64 l 431 75 l 400 76 l 367 72 l 343 76 l 251 76 l 215 72 l 182 74 l 161 88 l 153 111 l 156 150 l 167 196 l 213 297 l 264 369 l 279 383 l 288 401 l 306 419 l 332 454 l 347 471 l 360 492 l 371 507 l 419 581 l 429 601 l 435 622 l 446 644 l 456 683 l 460 708 l 460 800 l 456 821 l 447 843 l 442 864 l 418 894 l 388 922 l 367 936 l 344 943 l 326 951 l 272 957 l 214 953 l 193 947 l 168 943 l 147 933 l 129 928 l 113 918 l 97 904 l 76 890 l 68 863 l 75 832 l 103 825 l 124 831 l 160 851 l 178 865 l 201 871 l 219 876 l 253 881 l 283 875 l 304 864 l 321 858 l 336 847 l 360 813 l 367 790 l 368 719 l 364 697 l 361 679 l 357 656 l 346 640 l 338 617 l 328 596 l 314 579 l 304 560 l 289 542 l 279 525 l 265 508 l 251 493 l 238 472 l 193 424 l 182 401 l 167 388 l 156 367 l 142 349 l 133 332 l 119 310 l 111 290 l 99 274 l 92 253 l 86 229 l 76 208 l 72 189 l 65 164 l 63 35 l 74 7 l 108 -3 l 163 -1 z "},"3":{"ha":504,"x_min":0,"x_max":0,"o":"m 186 -17 l 257 -15 l 281 -11 l 300 -1 l 321 4 l 339 19 l 357 29 l 392 58 l 404 74 l 418 94 l 424 118 l 435 136 l 442 161 l 446 182 l 447 201 l 451 222 l 454 254 l 451 317 l 449 333 l 443 358 l 426 396 l 403 433 l 375 464 l 338 488 l 328 501 l 333 515 l 349 533 l 367 546 l 392 583 l 403 606 l 410 622 l 414 646 l 421 668 l 424 692 l 429 714 l 429 744 l 425 779 l 425 800 l 418 822 l 379 900 l 363 914 l 342 922 l 325 935 l 283 951 l 261 954 l 233 951 l 199 956 l 176 954 l 154 949 l 133 944 l 114 933 l 57 908 l 46 885 l 49 863 l 63 844 l 82 840 l 104 844 l 121 858 l 138 861 l 160 871 l 211 874 l 268 869 l 288 857 l 301 842 l 314 826 l 326 804 l 333 779 l 336 690 l 326 647 l 304 604 l 292 585 l 278 568 l 221 538 l 196 532 l 168 524 l 163 506 l 161 486 l 174 465 l 203 451 l 238 451 l 278 433 l 326 394 l 338 375 l 347 356 l 353 338 l 358 315 l 358 293 l 363 263 l 361 225 l 358 208 l 353 183 l 350 165 l 343 144 l 333 122 l 321 106 l 306 90 l 290 81 l 251 63 l 218 61 l 186 65 l 150 72 l 97 93 l 71 96 l 49 78 l 43 53 l 54 29 l 97 4 l 118 -3 l 140 -4 z "},"4":{"ha":542,"x_min":0,"x_max":0,"o":"m 378 -3 l 399 0 l 422 8 l 429 26 l 425 46 l 425 94 l 424 118 l 424 208 l 433 235 l 468 242 l 500 251 l 515 272 l 513 293 l 500 315 l 481 321 l 458 321 l 435 333 l 425 350 l 421 378 l 424 421 l 421 450 l 425 547 l 422 592 l 426 610 l 426 635 l 413 654 l 390 665 l 368 671 l 343 654 l 335 636 l 332 569 l 335 551 l 332 396 l 336 378 l 335 356 l 322 332 l 299 322 l 278 324 l 232 318 l 199 324 l 174 321 l 143 322 l 125 333 l 118 353 l 160 453 l 183 522 l 193 543 l 244 688 l 254 703 l 260 729 l 286 788 l 300 833 l 317 875 l 324 896 l 332 914 l 328 935 l 310 946 l 286 946 l 258 939 l 238 914 l 157 692 l 144 671 l 117 583 l 108 565 l 86 506 l 76 486 l 71 467 l 61 446 l 56 422 l 46 403 l 40 381 l 29 365 l 21 300 l 24 278 l 33 254 l 53 242 l 75 246 l 97 244 l 122 247 l 143 244 l 257 247 l 275 243 l 300 244 l 321 236 l 332 208 l 332 174 l 335 153 l 332 107 l 336 90 l 335 63 l 338 44 l 339 24 l 354 8 z "},"5":{"ha":522,"x_min":0,"x_max":0,"o":"m 251 -15 l 275 -8 l 294 -4 l 317 4 l 353 28 l 371 42 l 386 51 l 399 72 l 425 106 l 453 167 l 458 190 l 460 213 l 467 233 l 471 388 l 464 410 l 464 436 l 457 454 l 451 476 l 442 501 l 424 535 l 375 581 l 357 593 l 339 596 l 315 606 l 283 606 l 254 611 l 211 603 l 193 596 l 172 600 l 164 617 l 167 644 l 168 686 l 171 704 l 168 751 l 172 771 l 172 796 l 175 814 l 174 840 l 186 863 l 208 871 l 231 869 l 254 872 l 279 871 l 300 874 l 322 869 l 346 869 l 371 872 l 415 872 l 438 885 l 451 907 l 440 938 l 406 947 l 372 950 l 257 949 l 238 944 l 136 944 l 100 935 l 88 917 l 90 892 l 86 869 l 88 825 l 85 804 l 83 761 l 82 742 l 79 721 l 79 694 l 81 674 l 79 651 l 81 626 l 76 565 l 76 544 l 83 519 l 106 511 l 153 515 l 206 529 l 239 532 l 261 532 l 294 525 l 315 515 l 335 504 l 347 489 l 357 469 l 364 444 l 378 360 l 376 335 l 379 272 l 374 231 l 367 208 l 357 165 l 344 149 l 333 124 l 321 110 l 271 72 l 249 64 l 219 65 l 185 63 l 163 68 l 133 81 l 104 96 l 81 93 l 58 82 l 54 56 l 75 26 l 106 8 l 122 0 l 147 -3 l 165 -11 l 219 -11 z "},"6":{"ha":546,"x_min":0,"x_max":0,"o":"m 307 -17 l 326 -10 l 350 0 l 369 7 l 389 15 l 407 28 l 431 54 l 451 85 l 460 106 l 471 119 l 481 146 l 486 169 l 489 193 l 496 213 l 496 235 l 500 260 l 501 282 l 500 303 l 504 371 l 497 422 l 482 490 l 472 507 l 463 531 l 451 550 l 438 564 l 417 575 l 397 582 l 381 594 l 361 600 l 339 601 l 272 599 l 246 594 l 226 589 l 203 579 l 182 572 l 163 556 l 147 556 l 139 572 l 144 597 l 149 640 l 160 686 l 200 771 l 213 785 l 226 806 l 242 818 l 258 831 l 276 846 l 297 860 l 321 864 l 339 874 l 364 876 l 382 878 l 406 893 l 414 921 l 399 944 l 378 953 l 354 950 l 333 950 l 310 944 l 288 936 l 249 921 l 229 917 l 208 903 l 189 886 l 175 875 l 147 842 l 121 804 l 107 788 l 81 722 l 78 700 l 60 635 l 58 614 l 54 594 l 51 568 l 47 551 l 47 503 l 39 457 l 42 433 l 39 401 l 42 346 l 40 324 l 46 301 l 44 276 l 51 232 l 54 188 l 64 143 l 75 122 l 81 100 l 92 81 l 122 47 l 135 28 l 193 -6 l 217 -11 l 236 -11 l 272 -15 z m 272 64 l 218 74 l 181 104 l 171 121 l 153 163 l 136 232 l 129 347 l 132 389 l 131 414 l 139 443 l 156 472 l 172 488 l 215 510 l 238 514 l 260 524 l 293 525 l 333 519 l 363 503 l 381 488 l 397 444 l 403 424 l 413 328 l 413 294 l 407 246 l 401 228 l 389 160 l 381 138 l 369 115 l 354 100 l 325 75 l 303 67 z "},"7":{"ha":454,"x_min":0,"x_max":0,"o":"m 117 0 l 142 1 l 167 10 l 186 33 l 190 53 l 194 76 l 199 94 l 208 118 l 211 140 l 218 163 l 228 182 l 256 289 l 264 314 l 269 338 l 272 357 l 278 375 l 288 399 l 304 463 l 311 482 l 317 510 l 325 526 l 333 571 l 349 613 l 351 638 l 360 657 l 367 678 l 388 768 l 410 826 l 417 917 l 408 939 l 385 951 l 339 944 l 308 949 l 271 946 l 231 950 l 163 944 l 119 947 l 96 951 l 75 946 l 51 949 l 29 936 l 19 917 l 17 900 l 28 878 l 51 867 l 86 871 l 142 867 l 174 867 l 208 872 l 297 872 l 313 860 l 318 838 l 304 774 l 290 733 l 286 708 l 274 665 l 267 650 l 258 625 l 249 582 l 240 564 l 236 543 l 228 518 l 225 499 l 218 472 l 208 446 l 201 410 l 188 371 l 183 347 l 178 326 l 169 308 l 165 285 l 160 267 l 150 246 l 147 224 l 142 201 l 132 182 l 128 156 l 121 135 l 114 117 l 110 93 l 104 72 l 101 53 l 93 33 l 100 13 z "},"8":{"ha":575,"x_min":0,"x_max":0,"o":"m 285 -15 l 342 -10 l 368 -4 l 428 21 l 464 53 l 510 125 l 532 218 l 529 251 l 532 283 l 525 331 l 517 349 l 510 371 l 496 389 l 488 407 l 472 428 l 440 458 l 425 467 l 407 481 l 399 496 l 408 514 l 422 531 l 454 565 l 488 617 l 500 663 l 503 683 l 507 704 l 508 739 l 504 796 l 497 813 l 467 874 l 419 922 l 382 939 l 340 950 l 285 957 l 251 953 l 233 954 l 210 949 l 192 935 l 168 928 l 151 918 l 132 904 l 106 875 l 83 839 l 74 813 l 69 793 l 63 736 l 68 682 l 78 639 l 88 615 l 97 594 l 122 560 l 135 544 l 168 514 l 175 496 l 165 481 l 144 469 l 131 451 l 114 442 l 99 426 l 85 407 l 56 350 l 49 326 l 44 308 l 43 283 l 39 251 l 40 218 l 47 194 l 50 172 l 54 150 l 82 89 l 108 51 l 126 35 l 142 22 l 165 14 l 185 3 l 238 -10 z m 319 65 l 242 71 l 207 83 l 192 92 l 175 110 l 163 132 l 151 146 l 140 192 l 133 246 l 135 304 l 146 343 l 158 368 l 169 385 l 199 415 l 215 428 l 235 436 l 254 450 l 288 456 l 329 446 l 390 401 l 401 379 l 414 364 l 426 344 l 432 326 l 438 301 l 440 250 l 439 213 l 419 147 l 411 131 l 381 94 l 363 82 l 342 72 z m 289 538 l 254 544 l 238 558 l 201 583 l 186 604 l 174 626 l 163 667 l 157 722 l 161 783 l 172 806 l 182 822 l 211 858 l 253 875 l 285 879 l 322 874 l 340 868 l 361 854 l 376 840 l 392 824 l 403 803 l 411 783 l 414 758 l 414 692 l 407 647 l 397 625 l 385 603 l 372 586 l 356 569 l 317 543 z "},"9":{"ha":546,"x_min":0,"x_max":0,"o":"m 165 -12 l 213 -11 l 235 -3 l 254 1 l 275 10 l 296 14 l 317 25 l 375 64 l 388 81 l 403 94 l 414 113 l 431 135 l 438 151 l 449 171 l 458 197 l 463 218 l 472 239 l 478 260 l 486 304 l 490 324 l 494 347 l 493 371 l 506 571 l 504 599 l 504 618 l 499 664 l 497 688 l 489 756 l 482 775 l 479 799 l 471 818 l 451 863 l 439 876 l 425 897 l 400 919 l 351 943 l 308 954 l 239 956 l 214 953 l 176 936 l 157 924 l 138 913 l 118 894 l 90 858 l 82 839 l 71 818 l 67 797 l 51 751 l 42 689 l 42 596 l 44 574 l 54 526 l 72 482 l 107 425 l 122 410 l 157 388 l 200 368 l 219 367 l 251 361 l 288 364 l 308 372 l 369 399 l 386 408 l 400 415 l 407 399 l 407 375 l 399 331 l 394 286 l 388 267 l 382 243 l 374 219 l 364 204 l 354 181 l 332 149 l 300 115 l 263 89 l 225 74 l 201 67 l 160 63 l 138 47 l 129 21 l 144 -1 z m 232 443 l 208 451 l 189 465 l 174 483 l 151 517 l 144 540 l 143 560 l 139 585 l 133 606 l 139 714 l 147 760 l 154 779 l 163 804 l 174 825 l 186 840 l 222 864 l 240 872 l 271 876 l 306 876 l 333 860 l 360 839 l 374 818 l 399 756 l 404 736 l 408 710 l 410 664 l 413 646 l 415 624 l 414 554 l 407 524 l 394 493 l 361 465 l 342 456 l 297 447 l 263 443 z "}," ":{"ha":194,"x_min":0,"x_max":0,"o":""},"A":{"ha":603,"x_min":0,"x_max":0,"o":"m 44 -3 l 72 -3 l 94 13 l 111 33 l 119 51 l 164 254 l 178 279 l 203 290 l 250 290 l 271 293 l 300 293 l 333 289 l 397 289 l 419 278 l 436 253 l 447 213 l 451 189 l 458 167 l 467 118 l 475 99 l 481 76 l 488 32 l 506 14 l 532 0 l 557 0 l 575 8 l 582 31 l 568 99 l 543 185 l 542 201 l 533 228 l 528 269 l 507 335 l 506 357 l 499 375 l 494 400 l 472 488 l 469 510 l 446 593 l 443 618 l 435 638 l 422 706 l 397 786 l 390 829 l 372 893 l 368 918 l 360 942 l 344 961 l 322 971 l 301 975 l 279 972 l 254 960 l 240 939 l 226 894 l 224 872 l 219 850 l 213 833 l 200 789 l 193 744 l 183 722 l 182 703 l 153 592 l 150 572 l 136 531 l 133 511 l 113 419 l 108 399 l 89 336 l 61 201 l 54 182 l 51 160 l 43 140 l 18 35 l 24 13 z m 311 365 l 267 368 l 246 367 l 222 367 l 203 375 l 200 400 l 204 418 l 206 444 l 219 483 l 225 504 l 226 531 l 239 571 l 244 590 l 251 613 l 253 633 l 267 704 l 274 719 l 288 815 l 297 860 l 301 856 l 314 811 l 319 765 l 333 704 l 338 672 l 347 635 l 353 590 l 363 571 l 368 550 l 371 525 l 379 506 l 382 489 l 388 467 l 390 443 l 401 397 l 397 375 l 379 368 l 336 368 z "},"Á":{"ha":603,"x_min":0,"x_max":0,"o":"m 44 -3 l 72 -3 l 94 13 l 111 33 l 119 51 l 164 254 l 178 279 l 203 290 l 250 290 l 271 293 l 300 293 l 333 289 l 397 289 l 419 278 l 436 253 l 447 213 l 451 189 l 458 167 l 467 118 l 475 99 l 481 76 l 488 32 l 506 14 l 532 0 l 557 0 l 575 8 l 582 31 l 568 99 l 543 185 l 542 201 l 533 228 l 528 269 l 507 335 l 506 357 l 499 375 l 494 400 l 472 488 l 469 510 l 446 593 l 443 618 l 435 638 l 422 706 l 397 786 l 390 829 l 372 893 l 368 918 l 360 942 l 344 961 l 322 971 l 301 975 l 279 972 l 254 960 l 240 939 l 226 894 l 224 872 l 219 850 l 213 833 l 200 789 l 193 744 l 183 722 l 182 703 l 153 592 l 150 572 l 136 531 l 133 511 l 113 419 l 108 399 l 89 336 l 61 201 l 54 182 l 51 160 l 43 140 l 18 35 l 24 13 z m 311 365 l 267 368 l 246 367 l 222 367 l 203 375 l 200 400 l 204 418 l 206 444 l 219 483 l 225 504 l 226 531 l 239 571 l 244 590 l 251 613 l 253 633 l 267 704 l 274 719 l 288 815 l 297 860 l 301 856 l 314 811 l 319 765 l 333 704 l 338 672 l 347 635 l 353 590 l 363 571 l 368 550 l 371 525 l 379 506 l 382 489 l 388 467 l 390 443 l 401 397 l 397 375 l 379 368 l 336 368 z m 274 1040 l 303 1047 l 326 1069 l 339 1088 l 350 1101 l 364 1121 l 376 1139 l 376 1156 l 365 1169 l 342 1169 l 317 1157 l 293 1140 l 285 1122 l 274 1104 l 256 1068 l 256 1050 z "},"Ă":{"ha":603,"x_min":0,"x_max":0,"o":"m 44 -3 l 72 -3 l 94 13 l 111 33 l 119 51 l 164 254 l 178 279 l 203 290 l 250 290 l 271 293 l 300 293 l 333 289 l 397 289 l 419 278 l 436 253 l 447 213 l 451 189 l 458 167 l 467 118 l 475 99 l 481 76 l 488 32 l 506 14 l 532 0 l 557 0 l 575 8 l 582 31 l 568 99 l 543 185 l 542 201 l 533 228 l 528 269 l 507 335 l 506 357 l 499 375 l 494 400 l 472 488 l 469 510 l 446 593 l 443 618 l 435 638 l 422 706 l 397 786 l 390 829 l 372 893 l 368 918 l 360 942 l 344 961 l 322 971 l 301 975 l 279 972 l 254 960 l 240 939 l 226 894 l 224 872 l 219 850 l 213 833 l 200 789 l 193 744 l 183 722 l 182 703 l 153 592 l 150 572 l 136 531 l 133 511 l 113 419 l 108 399 l 89 336 l 61 201 l 54 182 l 51 160 l 43 140 l 18 35 l 24 13 z m 311 365 l 267 368 l 246 367 l 222 367 l 203 375 l 200 400 l 204 418 l 206 444 l 219 483 l 225 504 l 226 531 l 239 571 l 244 590 l 251 613 l 253 633 l 267 704 l 274 719 l 288 815 l 297 860 l 301 856 l 314 811 l 319 765 l 333 704 l 338 672 l 347 635 l 353 590 l 363 571 l 368 550 l 371 525 l 379 506 l 382 489 l 388 467 l 390 443 l 401 397 l 397 375 l 379 368 l 336 368 z m 299 1039 l 332 1042 l 350 1046 l 369 1053 l 388 1063 l 404 1072 l 424 1083 l 435 1101 l 438 1129 l 428 1153 l 408 1150 l 386 1142 l 374 1125 l 351 1111 l 333 1106 l 300 1103 l 265 1107 l 247 1113 l 226 1128 l 211 1142 l 189 1156 l 167 1153 l 157 1125 l 160 1106 l 174 1088 l 190 1076 l 206 1064 l 225 1053 l 247 1046 l 267 1046 z "},"Â":{"ha":603,"x_min":0,"x_max":0,"o":"m 44 -3 l 72 -3 l 94 13 l 111 33 l 119 51 l 164 254 l 178 279 l 203 290 l 250 290 l 271 293 l 300 293 l 333 289 l 397 289 l 419 278 l 436 253 l 447 213 l 451 189 l 458 167 l 467 118 l 475 99 l 481 76 l 488 32 l 506 14 l 532 0 l 557 0 l 575 8 l 582 31 l 568 99 l 543 185 l 542 201 l 533 228 l 528 269 l 507 335 l 506 357 l 499 375 l 494 400 l 472 488 l 469 510 l 446 593 l 443 618 l 435 638 l 422 706 l 397 786 l 390 829 l 372 893 l 368 918 l 360 942 l 344 961 l 322 971 l 301 975 l 279 972 l 254 960 l 240 939 l 226 894 l 224 872 l 219 850 l 213 833 l 200 789 l 193 744 l 183 722 l 182 703 l 153 592 l 150 572 l 136 531 l 133 511 l 113 419 l 108 399 l 89 336 l 61 201 l 54 182 l 51 160 l 43 140 l 18 35 l 24 13 z m 311 365 l 267 368 l 246 367 l 222 367 l 203 375 l 200 400 l 204 418 l 206 444 l 219 483 l 225 504 l 226 531 l 239 571 l 244 590 l 251 613 l 253 633 l 267 704 l 274 719 l 288 815 l 297 860 l 301 856 l 314 811 l 319 765 l 333 704 l 338 672 l 347 635 l 353 590 l 363 571 l 368 550 l 371 525 l 379 506 l 382 489 l 388 467 l 390 443 l 401 397 l 397 375 l 379 368 l 336 368 z m 401 1039 l 422 1040 l 439 1044 l 433 1064 l 421 1081 l 399 1103 l 379 1125 l 365 1144 l 340 1160 l 311 1168 l 288 1167 l 260 1158 l 232 1144 l 219 1124 l 204 1113 l 190 1096 l 179 1083 l 163 1064 l 163 1043 l 178 1039 l 199 1042 l 225 1047 l 250 1064 l 267 1081 l 276 1100 l 300 1110 l 319 1100 l 336 1085 l 350 1067 l 374 1047 z "},"Ä":{"ha":603,"x_min":0,"x_max":0,"o":"m 44 -3 l 72 -3 l 94 13 l 111 33 l 119 51 l 164 254 l 178 279 l 203 290 l 250 290 l 271 293 l 300 293 l 333 289 l 397 289 l 419 278 l 436 253 l 447 213 l 451 189 l 458 167 l 467 118 l 475 99 l 481 76 l 488 32 l 506 14 l 532 0 l 557 0 l 575 8 l 582 31 l 568 99 l 543 185 l 542 201 l 533 228 l 528 269 l 507 335 l 506 357 l 499 375 l 494 400 l 472 488 l 469 510 l 446 593 l 443 618 l 435 638 l 422 706 l 397 786 l 390 829 l 372 893 l 368 918 l 360 942 l 344 961 l 322 971 l 301 975 l 279 972 l 254 960 l 240 939 l 226 894 l 224 872 l 219 850 l 213 833 l 200 789 l 193 744 l 183 722 l 182 703 l 153 592 l 150 572 l 136 531 l 133 511 l 113 419 l 108 399 l 89 336 l 61 201 l 54 182 l 51 160 l 43 140 l 18 35 l 24 13 z m 311 365 l 267 368 l 246 367 l 222 367 l 203 375 l 200 400 l 204 418 l 206 444 l 219 483 l 225 504 l 226 531 l 239 571 l 244 590 l 251 613 l 253 633 l 267 704 l 274 719 l 288 815 l 297 860 l 301 856 l 314 811 l 319 765 l 333 704 l 338 672 l 347 635 l 353 590 l 363 571 l 368 550 l 371 525 l 379 506 l 382 489 l 388 467 l 390 443 l 401 397 l 397 375 l 379 368 l 336 368 z m 379 1054 l 404 1057 l 422 1068 l 426 1101 l 421 1131 l 408 1147 l 378 1153 l 350 1143 l 335 1129 l 329 1101 l 336 1074 l 347 1060 z m 215 1057 l 242 1063 l 254 1074 l 263 1104 l 257 1131 l 243 1149 l 217 1151 l 186 1140 l 171 1128 l 167 1103 l 171 1072 l 186 1064 z "},"À":{"ha":603,"x_min":0,"x_max":0,"o":"m 44 -3 l 72 -3 l 94 13 l 111 33 l 119 51 l 164 254 l 178 279 l 203 290 l 250 290 l 271 293 l 300 293 l 333 289 l 397 289 l 419 278 l 436 253 l 447 213 l 451 189 l 458 167 l 467 118 l 475 99 l 481 76 l 488 32 l 506 14 l 532 0 l 557 0 l 575 8 l 582 31 l 568 99 l 543 185 l 542 201 l 533 228 l 528 269 l 507 335 l 506 357 l 499 375 l 494 400 l 472 488 l 469 510 l 446 593 l 443 618 l 435 638 l 422 706 l 397 786 l 390 829 l 372 893 l 368 918 l 360 942 l 344 961 l 322 971 l 301 975 l 279 972 l 254 960 l 240 939 l 226 894 l 224 872 l 219 850 l 213 833 l 200 789 l 193 744 l 183 722 l 182 703 l 153 592 l 150 572 l 136 531 l 133 511 l 113 419 l 108 399 l 89 336 l 61 201 l 54 182 l 51 160 l 43 140 l 18 35 l 24 13 z m 311 365 l 267 368 l 246 367 l 222 367 l 203 375 l 200 400 l 204 418 l 206 444 l 219 483 l 225 504 l 226 531 l 239 571 l 244 590 l 251 613 l 253 633 l 267 704 l 274 719 l 288 815 l 297 860 l 301 856 l 314 811 l 319 765 l 333 704 l 338 672 l 347 635 l 353 590 l 363 571 l 368 550 l 371 525 l 379 506 l 382 489 l 388 467 l 390 443 l 401 397 l 397 375 l 379 368 l 336 368 z m 303 1038 l 319 1047 l 321 1068 l 307 1086 l 300 1106 l 290 1122 l 281 1139 l 261 1160 l 235 1171 l 208 1168 l 193 1158 l 194 1143 l 207 1118 l 224 1103 l 232 1083 l 244 1069 l 269 1051 z "},"Ā":{"ha":603,"x_min":0,"x_max":0,"o":"m 44 -3 l 72 -3 l 94 13 l 111 33 l 119 51 l 164 254 l 178 279 l 203 290 l 250 290 l 271 293 l 300 293 l 333 289 l 397 289 l 419 278 l 436 253 l 447 213 l 451 189 l 458 167 l 467 118 l 475 99 l 481 76 l 488 32 l 506 14 l 532 0 l 557 0 l 575 8 l 582 31 l 568 99 l 543 185 l 542 201 l 533 228 l 528 269 l 507 335 l 506 357 l 499 375 l 494 400 l 472 488 l 469 510 l 446 593 l 443 618 l 435 638 l 422 706 l 397 786 l 390 829 l 372 893 l 368 918 l 360 942 l 344 961 l 322 971 l 301 975 l 279 972 l 254 960 l 240 939 l 226 894 l 224 872 l 219 850 l 213 833 l 200 789 l 193 744 l 183 722 l 182 703 l 153 592 l 150 572 l 136 531 l 133 511 l 113 419 l 108 399 l 89 336 l 61 201 l 54 182 l 51 160 l 43 140 l 18 35 l 24 13 z m 311 365 l 267 368 l 246 367 l 222 367 l 203 375 l 200 400 l 204 418 l 206 444 l 219 483 l 225 504 l 226 531 l 239 571 l 244 590 l 251 613 l 253 633 l 267 704 l 274 719 l 288 815 l 297 860 l 301 856 l 314 811 l 319 765 l 333 704 l 338 672 l 347 635 l 353 590 l 363 571 l 368 550 l 371 525 l 379 506 l 382 489 l 388 467 l 390 443 l 401 397 l 397 375 l 379 368 l 336 368 z m 226 1060 l 251 1065 l 271 1064 l 307 1063 l 340 1061 l 360 1064 l 385 1064 l 407 1065 l 431 1075 l 442 1096 l 431 1114 l 404 1126 l 372 1126 l 342 1126 l 318 1122 l 294 1124 l 274 1121 l 251 1125 l 228 1124 l 207 1124 l 186 1124 l 163 1115 l 151 1097 l 160 1074 l 183 1067 l 207 1067 z "},"Ą":{"ha":628,"x_min":0,"x_max":0,"o":"m 517 -304 l 540 -304 l 564 -297 l 585 -289 l 603 -271 l 607 -253 l 592 -236 l 569 -233 l 551 -242 l 529 -240 l 511 -225 l 500 -201 l 494 -171 l 496 -147 l 518 -106 l 525 -82 l 556 -46 l 571 -24 l 579 1 l 583 32 l 569 72 l 567 97 l 564 118 l 550 161 l 542 207 l 533 224 l 531 244 l 515 314 l 507 331 l 504 356 l 500 376 l 492 399 l 490 418 l 475 461 l 471 485 l 465 504 l 457 551 l 449 575 l 446 590 l 439 615 l 436 636 l 429 654 l 425 681 l 419 701 l 417 719 l 403 768 l 400 792 l 381 849 l 375 896 l 363 939 l 346 958 l 319 969 l 276 972 l 256 963 l 236 940 l 235 914 l 228 893 l 213 828 l 206 810 l 171 657 l 164 636 l 156 594 l 146 571 l 136 529 l 131 485 l 111 421 l 86 310 l 78 288 l 47 158 l 46 139 l 21 54 l 19 32 l 24 10 l 47 -4 l 67 -4 l 93 11 l 110 32 l 121 75 l 128 97 l 132 122 l 150 188 l 156 211 l 161 233 l 163 257 l 178 275 l 203 286 l 224 285 l 310 289 l 329 285 l 393 290 l 418 276 l 436 254 l 439 232 l 446 210 l 465 121 l 481 76 l 490 28 l 503 11 l 504 -11 l 494 -29 l 464 -72 l 449 -100 l 442 -122 l 435 -140 l 424 -181 l 424 -200 l 429 -229 l 439 -262 l 456 -281 l 476 -289 l 494 -300 z m 268 361 l 222 365 l 203 376 l 196 397 l 201 421 l 210 442 l 218 486 l 224 504 l 228 529 l 236 551 l 246 596 l 249 617 l 256 636 l 269 701 l 271 724 l 274 749 l 276 769 l 288 813 l 290 832 l 296 856 l 303 858 l 365 547 l 372 526 l 375 506 l 383 463 l 390 443 l 401 400 l 397 376 l 374 363 l 290 365 z "},"Å":{"ha":603,"x_min":0,"x_max":0,"o":"m 44 -3 l 72 -3 l 94 13 l 111 33 l 119 51 l 164 254 l 178 279 l 203 290 l 250 290 l 271 293 l 300 293 l 333 289 l 397 289 l 419 278 l 436 253 l 447 213 l 451 189 l 458 167 l 467 118 l 475 99 l 481 76 l 488 32 l 506 14 l 532 0 l 557 0 l 575 8 l 582 31 l 568 99 l 543 185 l 542 201 l 533 228 l 528 269 l 507 335 l 506 357 l 499 375 l 494 400 l 472 488 l 469 510 l 446 593 l 443 618 l 435 638 l 422 706 l 397 786 l 390 829 l 372 893 l 368 918 l 360 942 l 344 961 l 322 971 l 301 975 l 279 972 l 254 960 l 240 939 l 226 894 l 224 872 l 219 850 l 213 833 l 200 789 l 193 744 l 183 722 l 182 703 l 153 592 l 150 572 l 136 531 l 133 511 l 113 419 l 108 399 l 89 336 l 61 201 l 54 182 l 51 160 l 43 140 l 18 35 l 24 13 z m 311 365 l 267 368 l 246 367 l 222 367 l 203 375 l 200 400 l 204 418 l 206 444 l 219 483 l 225 504 l 226 531 l 239 571 l 244 590 l 251 613 l 253 633 l 267 704 l 274 719 l 288 815 l 297 860 l 301 856 l 314 811 l 319 765 l 333 704 l 338 672 l 347 635 l 353 590 l 363 571 l 368 550 l 371 525 l 379 506 l 382 489 l 388 467 l 390 443 l 401 397 l 397 375 l 379 368 l 336 368 z m 300 1013 l 333 1017 l 354 1024 l 374 1036 l 386 1058 l 399 1081 l 399 1110 l 396 1146 l 388 1167 l 369 1188 l 354 1200 l 333 1210 l 299 1211 l 261 1211 l 243 1199 l 228 1183 l 210 1168 l 203 1147 l 196 1111 l 201 1079 l 210 1058 l 225 1036 l 243 1025 l 265 1014 z m 299 1068 l 265 1078 l 257 1110 l 267 1143 l 297 1157 l 332 1144 l 339 1113 l 332 1078 z "},"Ã":{"ha":603,"x_min":0,"x_max":0,"o":"m 44 -3 l 72 -3 l 94 13 l 111 33 l 119 51 l 164 254 l 178 279 l 203 290 l 250 290 l 271 293 l 300 293 l 333 289 l 397 289 l 419 278 l 436 253 l 447 213 l 451 189 l 458 167 l 467 118 l 475 99 l 481 76 l 488 32 l 506 14 l 532 0 l 557 0 l 575 8 l 582 31 l 568 99 l 543 185 l 542 201 l 533 228 l 528 269 l 507 335 l 506 357 l 499 375 l 494 400 l 472 488 l 469 510 l 446 593 l 443 618 l 435 638 l 422 706 l 397 786 l 390 829 l 372 893 l 368 918 l 360 942 l 344 961 l 322 971 l 301 975 l 279 972 l 254 960 l 240 939 l 226 894 l 224 872 l 219 850 l 213 833 l 200 789 l 193 744 l 183 722 l 182 703 l 153 592 l 150 572 l 136 531 l 133 511 l 113 419 l 108 399 l 89 336 l 61 201 l 54 182 l 51 160 l 43 140 l 18 35 l 24 13 z m 311 365 l 267 368 l 246 367 l 222 367 l 203 375 l 200 400 l 204 418 l 206 444 l 219 483 l 225 504 l 226 531 l 239 571 l 244 590 l 251 613 l 253 633 l 267 704 l 274 719 l 288 815 l 297 860 l 301 856 l 314 811 l 319 765 l 333 704 l 338 672 l 347 635 l 353 590 l 363 571 l 368 550 l 371 525 l 379 506 l 382 489 l 388 467 l 390 443 l 401 397 l 397 375 l 379 368 l 336 368 z m 356 1058 l 385 1065 l 407 1075 l 421 1089 l 428 1113 l 410 1131 l 383 1121 l 350 1118 l 319 1122 l 299 1129 l 281 1143 l 263 1144 l 229 1150 l 200 1149 l 179 1133 l 165 1122 l 160 1094 l 178 1075 l 203 1083 l 233 1090 l 265 1086 l 285 1081 l 304 1072 l 325 1060 z "},"Æ":{"ha":856,"x_min":0,"x_max":0,"o":"m 617 -4 l 658 -4 l 681 -1 l 703 -1 l 750 0 l 772 10 l 786 25 l 783 46 l 772 65 l 751 75 l 728 76 l 660 74 l 611 78 l 567 76 l 546 78 l 521 92 l 513 111 l 514 129 l 511 158 l 510 336 l 514 400 l 513 424 l 522 444 l 543 454 l 607 456 l 649 458 l 706 454 l 736 460 l 757 471 l 771 496 l 757 517 l 735 535 l 714 531 l 692 533 l 671 533 l 651 536 l 565 536 l 547 532 l 525 547 l 511 567 l 515 619 l 513 643 l 514 835 l 511 856 l 522 879 l 546 889 l 571 892 l 592 892 l 614 894 l 704 892 l 729 896 l 751 893 l 771 901 l 782 921 l 783 938 l 771 963 l 751 969 l 679 974 l 590 967 l 567 972 l 524 972 l 499 968 l 475 971 l 454 968 l 418 972 l 385 961 l 364 942 l 354 921 l 339 874 l 331 854 l 317 813 l 307 792 l 238 610 l 231 585 l 214 547 l 196 494 l 182 463 l 176 440 l 138 340 l 132 319 l 125 297 l 107 261 l 100 236 l 89 201 l 75 172 l 69 154 l 60 131 l 49 113 l 46 92 l 36 69 l 31 47 l 18 28 l 24 8 l 43 -3 l 68 0 l 97 8 l 114 26 l 124 49 l 131 75 l 161 154 l 167 182 l 186 221 l 192 246 l 213 261 l 236 278 l 258 272 l 282 271 l 300 272 l 324 274 l 344 276 l 368 275 l 388 276 l 410 265 l 418 239 l 422 214 l 419 194 l 422 65 l 419 44 l 432 10 l 456 -1 l 490 1 l 522 1 l 568 -3 l 590 3 z m 269 351 l 250 358 l 244 381 l 251 404 l 263 425 l 294 511 l 299 531 l 308 550 l 315 571 l 325 592 l 332 614 l 342 635 l 350 671 l 361 700 l 371 722 l 376 739 l 381 763 l 396 807 l 404 825 l 417 857 l 421 844 l 418 824 l 421 790 l 419 769 l 422 711 l 421 693 l 419 674 l 419 492 l 422 469 l 419 415 l 421 383 l 410 361 l 385 351 l 363 354 l 338 351 l 318 356 z "},"B":{"ha":608,"x_min":0,"x_max":0,"o":"m 183 -4 l 336 3 l 425 28 l 443 40 l 460 56 l 476 67 l 494 83 l 506 97 l 518 118 l 532 138 l 546 178 l 558 246 l 557 317 l 551 335 l 547 361 l 542 385 l 533 407 l 500 463 l 482 478 l 467 494 l 449 504 l 429 519 l 417 528 l 426 540 l 464 567 l 481 586 l 493 604 l 506 619 l 517 638 l 529 682 l 535 706 l 532 776 l 528 799 l 525 818 l 510 861 l 486 896 l 467 918 l 451 929 l 419 946 l 368 963 l 229 969 l 208 974 l 188 972 l 163 972 l 142 969 l 122 968 l 100 958 l 86 935 l 88 913 l 90 892 l 86 692 l 90 669 l 86 650 l 88 625 l 92 604 l 90 583 l 88 565 l 89 513 l 88 492 l 90 476 l 88 449 l 89 428 l 88 406 l 90 383 l 88 363 l 90 340 l 88 293 l 89 269 l 88 251 l 90 228 l 89 210 l 89 51 l 90 31 l 101 11 l 119 0 l 161 0 z m 269 74 l 235 75 l 214 76 l 194 83 l 181 111 l 182 133 l 179 156 l 181 199 l 179 221 l 181 279 l 178 321 l 182 382 l 179 400 l 183 425 l 179 442 l 190 467 l 210 479 l 251 483 l 281 481 l 314 482 l 381 461 l 417 435 l 429 418 l 453 378 l 461 333 l 463 218 l 454 201 l 450 181 l 442 156 l 432 138 l 419 124 l 401 108 l 386 97 l 365 89 z m 286 556 l 217 557 l 193 564 l 182 586 l 181 858 l 193 883 l 221 894 l 253 890 l 313 890 l 336 886 l 357 881 l 394 857 l 408 843 l 422 826 l 432 804 l 436 782 l 442 764 l 442 699 l 436 675 l 404 611 l 390 597 l 353 574 l 331 568 l 307 558 z "},"C":{"ha":561,"x_min":0,"x_max":0,"o":"m 293 -15 l 328 -11 l 361 -15 l 413 -7 l 504 32 l 521 60 l 519 89 l 499 106 l 474 106 l 456 92 l 417 78 l 388 71 l 353 68 l 322 64 l 288 63 l 268 69 l 250 79 l 231 93 l 214 107 l 203 124 l 192 149 l 185 165 l 181 190 l 172 211 l 165 256 l 160 322 l 156 342 l 158 364 l 157 390 l 154 408 l 156 428 l 153 450 l 158 658 l 178 774 l 182 793 l 203 831 l 210 853 l 224 867 l 240 882 l 256 892 l 272 900 l 290 901 l 326 908 l 360 906 l 381 901 l 401 893 l 424 888 l 443 875 l 464 871 l 488 874 l 500 892 l 504 915 l 492 939 l 472 953 l 450 958 l 408 975 l 361 985 l 294 983 l 274 981 l 251 979 l 229 968 l 210 961 l 192 951 l 157 918 l 144 904 l 118 867 l 108 843 l 104 826 l 96 803 l 92 781 l 83 763 l 78 740 l 75 715 l 71 697 l 71 675 l 63 606 l 64 576 l 60 540 l 63 521 l 60 485 l 63 449 l 61 428 l 65 407 l 63 379 l 69 314 l 67 290 l 81 218 l 86 201 l 92 179 l 94 156 l 110 114 l 121 94 l 133 78 l 143 61 l 160 43 l 190 18 l 228 0 z "},"Ć":{"ha":561,"x_min":0,"x_max":0,"o":"m 293 -15 l 328 -11 l 361 -15 l 413 -7 l 504 32 l 521 60 l 519 89 l 499 106 l 474 106 l 456 92 l 417 78 l 388 71 l 353 68 l 322 64 l 288 63 l 268 69 l 250 79 l 231 93 l 214 107 l 203 124 l 192 149 l 185 165 l 181 190 l 172 211 l 165 256 l 160 322 l 156 342 l 158 364 l 157 390 l 154 408 l 156 428 l 153 450 l 158 658 l 178 774 l 182 793 l 203 831 l 210 853 l 224 867 l 240 882 l 256 892 l 272 900 l 290 901 l 326 908 l 360 906 l 381 901 l 401 893 l 424 888 l 443 875 l 464 871 l 488 874 l 500 892 l 504 915 l 492 939 l 472 953 l 450 958 l 408 975 l 361 985 l 294 983 l 274 981 l 251 979 l 229 968 l 210 961 l 192 951 l 157 918 l 144 904 l 118 867 l 108 843 l 104 826 l 96 803 l 92 781 l 83 763 l 78 740 l 75 715 l 71 697 l 71 675 l 63 606 l 64 576 l 60 540 l 63 521 l 60 485 l 63 449 l 61 428 l 65 407 l 63 379 l 69 314 l 67 290 l 81 218 l 86 201 l 92 179 l 94 156 l 110 114 l 121 94 l 133 78 l 143 61 l 160 43 l 190 18 l 228 0 z m 306 1040 l 335 1047 l 358 1069 l 371 1088 l 382 1101 l 396 1121 l 408 1139 l 408 1156 l 397 1169 l 374 1169 l 349 1157 l 325 1140 l 317 1122 l 306 1104 l 288 1068 l 288 1050 z "},"Č":{"ha":561,"x_min":0,"x_max":0,"o":"m 293 -15 l 328 -11 l 361 -15 l 413 -7 l 504 32 l 521 60 l 519 89 l 499 106 l 474 106 l 456 92 l 417 78 l 388 71 l 353 68 l 322 64 l 288 63 l 268 69 l 250 79 l 231 93 l 214 107 l 203 124 l 192 149 l 185 165 l 181 190 l 172 211 l 165 256 l 160 322 l 156 342 l 158 364 l 157 390 l 154 408 l 156 428 l 153 450 l 158 658 l 178 774 l 182 793 l 203 831 l 210 853 l 224 867 l 240 882 l 256 892 l 272 900 l 290 901 l 326 908 l 360 906 l 381 901 l 401 893 l 424 888 l 443 875 l 464 871 l 488 874 l 500 892 l 504 915 l 492 939 l 472 953 l 450 958 l 408 975 l 361 985 l 294 983 l 274 981 l 251 979 l 229 968 l 210 961 l 192 951 l 157 918 l 144 904 l 118 867 l 108 843 l 104 826 l 96 803 l 92 781 l 83 763 l 78 740 l 75 715 l 71 697 l 71 675 l 63 606 l 64 576 l 60 540 l 63 521 l 60 485 l 63 449 l 61 428 l 65 407 l 63 379 l 69 314 l 67 290 l 81 218 l 86 201 l 92 179 l 94 156 l 110 114 l 121 94 l 133 78 l 143 61 l 160 43 l 190 18 l 228 0 z m 318 1039 l 342 1039 l 368 1046 l 394 1063 l 408 1079 l 422 1093 l 432 1111 l 446 1126 l 460 1143 l 460 1163 l 442 1168 l 410 1160 l 385 1143 l 371 1124 l 353 1106 l 332 1097 l 308 1110 l 292 1124 l 276 1144 l 250 1160 l 218 1169 l 199 1158 l 199 1140 l 215 1126 l 236 1103 l 253 1081 l 269 1064 l 290 1049 z "},"Ç":{"ha":561,"x_min":0,"x_max":0,"o":"m 328 -308 l 354 -306 l 375 -297 l 396 -292 l 417 -282 l 433 -262 l 444 -247 l 458 -229 l 458 -194 l 460 -157 l 450 -135 l 421 -103 l 400 -89 l 379 -82 l 358 -69 l 354 -44 l 363 -12 l 382 -11 l 413 -7 l 447 7 l 467 14 l 488 24 l 504 32 l 521 60 l 519 89 l 499 106 l 474 106 l 456 92 l 436 83 l 417 78 l 388 71 l 353 68 l 324 64 l 288 63 l 268 69 l 250 79 l 231 93 l 214 107 l 203 124 l 192 149 l 185 165 l 181 190 l 172 211 l 168 233 l 165 256 l 164 276 l 163 299 l 160 322 l 156 342 l 158 364 l 157 389 l 154 408 l 156 428 l 153 450 l 153 483 l 156 517 l 156 543 l 157 561 l 157 615 l 158 635 l 158 657 l 163 679 l 167 704 l 169 724 l 178 774 l 182 793 l 203 831 l 210 853 l 224 867 l 240 882 l 256 892 l 272 900 l 290 901 l 326 908 l 381 901 l 401 893 l 425 888 l 443 875 l 464 871 l 488 874 l 500 892 l 504 915 l 492 939 l 472 953 l 450 958 l 428 968 l 408 975 l 385 981 l 361 983 l 326 985 l 294 983 l 274 981 l 251 979 l 229 968 l 210 961 l 192 951 l 174 935 l 157 918 l 144 904 l 131 885 l 118 867 l 108 843 l 104 826 l 96 803 l 92 781 l 83 763 l 79 740 l 75 715 l 71 697 l 71 675 l 68 647 l 65 628 l 63 606 l 64 576 l 60 540 l 63 521 l 60 485 l 63 449 l 61 426 l 65 407 l 63 379 l 65 357 l 67 333 l 69 314 l 67 290 l 71 268 l 75 243 l 81 218 l 86 201 l 92 179 l 94 156 l 100 136 l 110 114 l 121 93 l 133 78 l 144 61 l 160 43 l 176 28 l 190 18 l 211 7 l 228 0 l 260 -10 l 293 -15 l 308 -14 l 297 -44 l 290 -69 l 283 -96 l 296 -121 l 322 -129 l 347 -132 l 367 -137 l 383 -153 l 390 -189 l 386 -217 l 372 -233 l 353 -243 l 332 -247 l 310 -243 l 286 -237 l 263 -237 l 249 -264 l 265 -289 l 288 -301 l 307 -307 z "},"Ċ":{"ha":561,"x_min":0,"x_max":0,"o":"m 293 -15 l 328 -11 l 361 -15 l 413 -7 l 504 32 l 521 60 l 519 89 l 499 106 l 474 106 l 456 92 l 417 78 l 388 71 l 353 68 l 322 64 l 288 63 l 268 69 l 250 79 l 231 93 l 214 107 l 203 124 l 192 149 l 185 165 l 181 190 l 172 211 l 165 256 l 160 322 l 156 342 l 158 364 l 157 390 l 154 408 l 156 428 l 153 450 l 158 658 l 178 774 l 182 793 l 203 831 l 210 853 l 224 867 l 240 882 l 256 892 l 272 900 l 290 901 l 326 908 l 360 906 l 381 901 l 401 893 l 424 888 l 443 875 l 464 871 l 488 874 l 500 892 l 504 915 l 492 939 l 472 953 l 450 958 l 408 975 l 361 985 l 294 983 l 274 981 l 251 979 l 229 968 l 210 961 l 192 951 l 157 918 l 144 904 l 118 867 l 108 843 l 104 826 l 96 803 l 92 781 l 83 763 l 78 740 l 75 715 l 71 697 l 71 675 l 63 606 l 64 576 l 60 540 l 63 521 l 60 485 l 63 449 l 61 428 l 65 407 l 63 379 l 69 314 l 67 290 l 81 218 l 86 201 l 92 179 l 94 156 l 110 114 l 121 94 l 133 78 l 143 61 l 160 43 l 190 18 l 228 0 z m 328 1054 l 356 1056 l 371 1072 l 376 1101 l 372 1129 l 357 1150 l 325 1153 l 296 1146 l 283 1131 l 276 1101 l 285 1069 l 297 1060 z "},"D":{"ha":632,"x_min":0,"x_max":0,"o":"m 133 -3 l 185 0 l 206 -3 l 293 1 l 315 0 l 336 1 l 369 8 l 401 19 l 419 28 l 440 43 l 457 53 l 472 69 l 489 86 l 501 104 l 514 121 l 538 183 l 542 206 l 549 232 l 553 269 l 560 296 l 564 315 l 567 383 l 567 428 l 569 451 l 569 588 l 564 610 l 565 631 l 560 657 l 560 681 l 558 704 l 551 724 l 547 744 l 543 769 l 521 835 l 513 851 l 504 869 l 494 885 l 447 933 l 408 951 l 367 964 l 344 965 l 324 968 l 267 969 l 236 975 l 213 971 l 121 972 l 100 957 l 92 938 l 86 872 l 92 826 l 88 719 l 92 696 l 89 676 l 92 649 l 88 626 l 89 606 l 88 588 l 89 550 l 89 518 l 90 483 l 88 450 l 90 429 l 89 396 l 92 364 l 89 343 l 90 318 l 89 294 l 92 278 l 88 254 l 88 186 l 92 165 l 92 118 l 89 99 l 92 72 l 89 54 l 90 33 l 101 8 z m 292 76 l 258 79 l 210 81 l 192 90 l 179 118 l 179 176 l 182 197 l 182 219 l 178 238 l 181 308 l 178 332 l 182 354 l 181 465 l 179 483 l 178 514 l 181 536 l 182 686 l 181 703 l 179 747 l 183 774 l 179 794 l 179 814 l 182 842 l 181 863 l 189 881 l 213 893 l 235 897 l 300 896 l 318 888 l 342 885 l 360 878 l 379 865 l 393 850 l 411 839 l 426 819 l 444 783 l 456 739 l 458 718 l 465 697 l 467 675 l 469 651 l 478 519 l 472 356 l 469 338 l 469 289 l 460 242 l 447 200 l 432 161 l 419 144 l 407 125 l 392 111 l 374 107 l 335 86 l 313 79 z "},"Ð":{"ha":661,"x_min":0,"x_max":0,"o":"m 151 -4 l 185 -1 l 238 -4 l 256 0 l 388 4 l 410 11 l 428 22 l 450 29 l 468 38 l 488 50 l 504 65 l 531 101 l 540 124 l 551 144 l 558 165 l 567 186 l 578 225 l 582 247 l 589 318 l 593 340 l 593 388 l 596 404 l 600 519 l 594 636 l 590 657 l 589 682 l 583 706 l 582 726 l 576 749 l 574 771 l 547 853 l 532 868 l 507 900 l 475 931 l 458 939 l 436 953 l 418 954 l 376 967 l 328 971 l 264 969 l 219 972 l 197 969 l 161 975 l 131 958 l 117 940 l 115 918 l 118 836 l 117 786 l 121 722 l 117 701 l 119 639 l 118 543 l 107 524 l 86 511 l 65 501 l 56 485 l 64 465 l 108 442 l 119 417 l 121 383 l 117 328 l 119 236 l 115 214 l 121 168 l 117 100 l 119 78 l 117 56 l 118 35 l 129 7 z m 258 75 l 238 78 l 218 89 l 207 111 l 211 222 l 208 242 l 211 265 l 210 353 l 211 375 l 208 397 l 210 422 l 224 443 l 246 456 l 267 453 l 310 453 l 333 465 l 343 485 l 331 504 l 308 514 l 289 513 l 267 515 l 243 510 l 218 526 l 211 546 l 208 569 l 211 592 l 210 729 l 213 751 l 208 796 l 213 815 l 207 858 l 218 883 l 240 896 l 296 896 l 328 890 l 350 889 l 371 882 l 390 878 l 410 871 l 425 857 l 438 836 l 454 818 l 461 799 l 472 783 l 478 758 l 488 736 l 492 715 l 494 693 l 499 675 l 497 653 l 501 628 l 501 604 l 504 583 l 504 539 l 501 519 l 499 289 l 496 267 l 489 246 l 488 222 l 478 200 l 471 181 l 450 146 l 435 128 l 403 101 l 344 78 z "},"Ď":{"ha":632,"x_min":0,"x_max":0,"o":"m 133 -3 l 185 0 l 206 -3 l 293 1 l 315 0 l 336 1 l 369 8 l 401 19 l 419 28 l 440 43 l 457 53 l 472 69 l 489 86 l 501 104 l 514 121 l 538 183 l 542 206 l 549 232 l 553 269 l 560 296 l 564 315 l 567 383 l 567 428 l 569 451 l 569 588 l 564 610 l 565 631 l 560 657 l 560 681 l 558 704 l 551 724 l 547 744 l 543 769 l 521 835 l 513 851 l 504 869 l 494 885 l 447 933 l 408 951 l 367 964 l 344 965 l 324 968 l 267 969 l 236 975 l 213 971 l 121 972 l 100 957 l 92 938 l 86 872 l 92 826 l 88 719 l 92 696 l 89 676 l 92 649 l 88 626 l 89 606 l 88 588 l 89 550 l 89 518 l 90 483 l 88 450 l 90 429 l 89 396 l 92 364 l 89 343 l 90 318 l 89 294 l 92 278 l 88 254 l 88 186 l 92 165 l 92 118 l 89 99 l 92 72 l 89 54 l 90 33 l 101 8 z m 292 76 l 258 79 l 210 81 l 192 90 l 179 118 l 179 176 l 182 197 l 182 219 l 178 238 l 181 308 l 178 332 l 182 354 l 181 465 l 179 483 l 178 514 l 181 536 l 182 686 l 181 703 l 179 747 l 183 774 l 179 794 l 179 814 l 182 842 l 181 863 l 189 881 l 213 893 l 235 897 l 300 896 l 318 888 l 342 885 l 360 878 l 379 865 l 393 850 l 411 839 l 426 819 l 444 783 l 456 739 l 458 718 l 465 697 l 467 675 l 469 651 l 478 519 l 472 356 l 469 338 l 469 289 l 460 242 l 447 200 l 432 161 l 419 144 l 407 125 l 392 111 l 374 107 l 335 86 l 313 79 z m 267 1039 l 290 1039 l 317 1046 l 343 1063 l 357 1079 l 371 1093 l 381 1111 l 394 1126 l 408 1143 l 408 1163 l 390 1168 l 358 1160 l 333 1143 l 319 1124 l 301 1106 l 281 1097 l 257 1110 l 240 1124 l 225 1144 l 199 1160 l 167 1169 l 147 1158 l 147 1140 l 164 1126 l 185 1103 l 201 1081 l 218 1064 l 239 1049 z "},"Đ":{"ha":661,"x_min":0,"x_max":0,"o":"m 151 -4 l 185 -1 l 238 -4 l 256 0 l 388 4 l 410 11 l 428 22 l 450 29 l 468 38 l 488 50 l 504 65 l 531 101 l 540 124 l 551 144 l 558 165 l 567 186 l 578 225 l 582 247 l 589 318 l 593 340 l 593 388 l 596 404 l 600 519 l 594 636 l 590 657 l 589 682 l 583 706 l 582 726 l 576 749 l 574 771 l 547 853 l 532 868 l 507 900 l 475 931 l 458 939 l 436 953 l 418 954 l 376 967 l 328 971 l 264 969 l 219 972 l 197 969 l 161 975 l 131 958 l 117 940 l 115 918 l 118 836 l 117 786 l 121 722 l 117 701 l 119 639 l 118 543 l 107 524 l 86 511 l 65 501 l 56 485 l 64 465 l 108 442 l 119 417 l 121 383 l 117 328 l 119 236 l 115 214 l 121 168 l 117 100 l 119 78 l 117 56 l 118 35 l 129 7 z m 258 75 l 238 78 l 218 89 l 207 111 l 211 222 l 208 242 l 211 265 l 210 353 l 211 375 l 208 397 l 210 422 l 224 443 l 246 456 l 267 453 l 310 453 l 333 465 l 343 485 l 331 504 l 308 514 l 289 513 l 267 515 l 243 510 l 218 526 l 211 546 l 208 569 l 211 592 l 210 729 l 213 751 l 208 796 l 213 815 l 207 858 l 218 883 l 240 896 l 296 896 l 328 890 l 350 889 l 371 882 l 390 878 l 410 871 l 425 857 l 438 836 l 454 818 l 461 799 l 472 783 l 478 758 l 488 736 l 492 715 l 494 693 l 499 675 l 497 653 l 501 628 l 501 604 l 504 583 l 504 539 l 501 519 l 499 289 l 496 267 l 489 246 l 488 222 l 478 200 l 471 181 l 450 146 l 435 128 l 403 101 l 344 78 z "},"E":{"ha":560,"x_min":0,"x_max":0,"o":"m 457 -6 l 479 6 l 489 26 l 490 47 l 478 68 l 454 76 l 432 75 l 410 76 l 389 74 l 365 78 l 318 78 l 294 75 l 271 79 l 226 78 l 201 89 l 190 121 l 189 146 l 193 288 l 190 313 l 193 331 l 193 354 l 190 379 l 192 404 l 189 425 l 200 444 l 221 460 l 244 457 l 288 458 l 311 461 l 331 458 l 378 460 l 399 454 l 440 458 l 461 471 l 472 499 l 463 522 l 439 533 l 417 531 l 376 532 l 342 535 l 300 533 l 265 535 l 243 532 l 224 533 l 200 542 l 190 569 l 192 592 l 189 611 l 192 635 l 189 701 l 192 721 l 189 767 l 190 846 l 203 878 l 226 890 l 271 896 l 318 897 l 342 892 l 363 894 l 388 896 l 410 893 l 442 890 l 478 903 l 492 922 l 490 943 l 476 958 l 457 969 l 435 971 l 368 969 l 256 974 l 189 968 l 167 974 l 147 968 l 124 974 l 103 964 l 93 939 l 96 921 l 97 897 l 99 872 l 97 856 l 97 833 l 101 815 l 97 760 l 100 728 l 99 703 l 100 660 l 100 640 l 101 613 l 99 550 l 101 526 l 97 501 l 99 476 l 97 454 l 96 415 l 97 390 l 101 365 l 100 343 l 97 325 l 100 300 l 97 281 l 96 257 l 100 189 l 97 31 l 110 8 l 132 -3 l 175 -4 l 219 1 l 240 -1 l 260 1 l 282 -3 l 326 0 l 347 -3 l 369 1 l 392 0 l 435 0 z "},"É":{"ha":560,"x_min":0,"x_max":0,"o":"m 457 -6 l 479 6 l 489 26 l 490 47 l 478 68 l 454 76 l 432 75 l 410 76 l 389 74 l 365 78 l 318 78 l 294 75 l 271 79 l 226 78 l 201 89 l 190 121 l 189 146 l 193 288 l 190 313 l 193 331 l 193 354 l 190 379 l 192 404 l 189 425 l 200 444 l 221 460 l 244 457 l 288 458 l 311 461 l 331 458 l 378 460 l 399 454 l 440 458 l 461 471 l 472 499 l 463 522 l 439 533 l 417 531 l 376 532 l 342 535 l 300 533 l 265 535 l 243 532 l 224 533 l 200 542 l 190 569 l 192 592 l 189 611 l 192 635 l 189 701 l 192 721 l 189 767 l 190 846 l 203 878 l 226 890 l 271 896 l 318 897 l 342 892 l 363 894 l 388 896 l 410 893 l 442 890 l 478 903 l 492 922 l 490 943 l 476 958 l 457 969 l 435 971 l 368 969 l 256 974 l 189 968 l 167 974 l 147 968 l 124 974 l 103 964 l 93 939 l 96 921 l 97 897 l 99 872 l 97 856 l 97 833 l 101 815 l 97 760 l 100 728 l 99 703 l 100 660 l 100 640 l 101 613 l 99 550 l 101 526 l 97 501 l 99 476 l 97 454 l 96 415 l 97 390 l 101 365 l 100 343 l 97 325 l 100 300 l 97 281 l 96 257 l 100 189 l 97 31 l 110 8 l 132 -3 l 175 -4 l 219 1 l 240 -1 l 260 1 l 282 -3 l 326 0 l 347 -3 l 369 1 l 392 0 l 435 0 z m 272 1040 l 301 1047 l 325 1069 l 338 1088 l 349 1101 l 363 1121 l 375 1139 l 375 1156 l 364 1169 l 340 1169 l 315 1157 l 292 1140 l 283 1122 l 272 1104 l 254 1068 l 254 1050 z "},"Ě":{"ha":560,"x_min":0,"x_max":0,"o":"m 457 -6 l 479 6 l 489 26 l 490 47 l 478 68 l 454 76 l 432 75 l 410 76 l 389 74 l 365 78 l 318 78 l 294 75 l 271 79 l 226 78 l 201 89 l 190 121 l 189 146 l 193 288 l 190 313 l 193 331 l 193 354 l 190 379 l 192 404 l 189 425 l 200 444 l 221 460 l 244 457 l 288 458 l 311 461 l 331 458 l 378 460 l 399 454 l 440 458 l 461 471 l 472 499 l 463 522 l 439 533 l 417 531 l 376 532 l 342 535 l 300 533 l 265 535 l 243 532 l 224 533 l 200 542 l 190 569 l 192 592 l 189 611 l 192 635 l 189 701 l 192 721 l 189 767 l 190 846 l 203 878 l 226 890 l 271 896 l 318 897 l 342 892 l 363 894 l 388 896 l 410 893 l 442 890 l 478 903 l 492 922 l 490 943 l 476 958 l 457 969 l 435 971 l 368 969 l 256 974 l 189 968 l 167 974 l 147 968 l 124 974 l 103 964 l 93 939 l 96 921 l 97 897 l 99 872 l 97 856 l 97 833 l 101 815 l 97 760 l 100 728 l 99 703 l 100 660 l 100 640 l 101 613 l 99 550 l 101 526 l 97 501 l 99 476 l 97 454 l 96 415 l 97 390 l 101 365 l 100 343 l 97 325 l 100 300 l 97 281 l 96 257 l 100 189 l 97 31 l 110 8 l 132 -3 l 175 -4 l 219 1 l 240 -1 l 260 1 l 282 -3 l 326 0 l 347 -3 l 369 1 l 392 0 l 435 0 z m 285 1039 l 308 1039 l 335 1046 l 361 1063 l 375 1079 l 389 1093 l 399 1111 l 413 1126 l 426 1143 l 426 1163 l 408 1168 l 376 1160 l 351 1143 l 338 1124 l 319 1106 l 299 1097 l 275 1110 l 258 1124 l 243 1144 l 217 1160 l 185 1169 l 165 1158 l 165 1140 l 182 1126 l 203 1103 l 219 1081 l 236 1064 l 257 1049 z "},"Ê":{"ha":560,"x_min":0,"x_max":0,"o":"m 457 -6 l 479 6 l 489 26 l 490 47 l 478 68 l 454 76 l 432 75 l 410 76 l 389 74 l 365 78 l 318 78 l 294 75 l 271 79 l 226 78 l 201 89 l 190 121 l 189 146 l 193 288 l 190 313 l 193 331 l 193 354 l 190 379 l 192 404 l 189 425 l 200 444 l 221 460 l 244 457 l 288 458 l 311 461 l 331 458 l 378 460 l 399 454 l 440 458 l 461 471 l 472 499 l 463 522 l 439 533 l 417 531 l 376 532 l 342 535 l 300 533 l 265 535 l 243 532 l 224 533 l 200 542 l 190 569 l 192 592 l 189 611 l 192 635 l 189 701 l 192 721 l 189 767 l 190 846 l 203 878 l 226 890 l 271 896 l 318 897 l 342 892 l 363 894 l 388 896 l 410 893 l 442 890 l 478 903 l 492 922 l 490 943 l 476 958 l 457 969 l 435 971 l 368 969 l 256 974 l 189 968 l 167 974 l 147 968 l 124 974 l 103 964 l 93 939 l 96 921 l 97 897 l 99 872 l 97 856 l 97 833 l 101 815 l 97 760 l 100 728 l 99 703 l 100 660 l 100 640 l 101 613 l 99 550 l 101 526 l 97 501 l 99 476 l 97 454 l 96 415 l 97 390 l 101 365 l 100 343 l 97 325 l 100 300 l 97 281 l 96 257 l 100 189 l 97 31 l 110 8 l 132 -3 l 175 -4 l 219 1 l 240 -1 l 260 1 l 282 -3 l 326 0 l 347 -3 l 369 1 l 392 0 l 435 0 z m 400 1039 l 421 1040 l 438 1044 l 432 1064 l 419 1081 l 397 1103 l 378 1125 l 364 1144 l 339 1160 l 310 1168 l 286 1167 l 258 1158 l 231 1144 l 218 1124 l 203 1113 l 189 1096 l 178 1083 l 161 1064 l 161 1043 l 176 1039 l 197 1042 l 224 1047 l 249 1064 l 265 1081 l 275 1100 l 299 1110 l 318 1100 l 335 1085 l 349 1067 l 372 1047 z "},"Ë":{"ha":560,"x_min":0,"x_max":0,"o":"m 457 -6 l 479 6 l 489 26 l 490 47 l 478 68 l 454 76 l 432 75 l 410 76 l 389 74 l 365 78 l 318 78 l 294 75 l 271 79 l 226 78 l 201 89 l 190 121 l 189 146 l 193 288 l 190 313 l 193 331 l 193 354 l 190 379 l 192 404 l 189 425 l 200 444 l 221 460 l 244 457 l 288 458 l 311 461 l 331 458 l 378 460 l 399 454 l 440 458 l 461 471 l 472 499 l 463 522 l 439 533 l 417 531 l 376 532 l 342 535 l 300 533 l 265 535 l 243 532 l 224 533 l 200 542 l 190 569 l 192 592 l 189 611 l 192 635 l 189 701 l 192 721 l 189 767 l 190 846 l 203 878 l 226 890 l 271 896 l 318 897 l 342 892 l 363 894 l 388 896 l 410 893 l 442 890 l 478 903 l 492 922 l 490 943 l 476 958 l 457 969 l 435 971 l 368 969 l 256 974 l 189 968 l 167 974 l 147 968 l 124 974 l 103 964 l 93 939 l 96 921 l 97 897 l 99 872 l 97 856 l 97 833 l 101 815 l 97 760 l 100 728 l 99 703 l 100 660 l 100 640 l 101 613 l 99 550 l 101 526 l 97 501 l 99 476 l 97 454 l 96 415 l 97 390 l 101 365 l 100 343 l 97 325 l 100 300 l 97 281 l 96 257 l 100 189 l 97 31 l 110 8 l 132 -3 l 175 -4 l 219 1 l 240 -1 l 260 1 l 282 -3 l 326 0 l 347 -3 l 369 1 l 392 0 l 435 0 z m 378 1054 l 403 1057 l 421 1068 l 425 1101 l 419 1131 l 407 1147 l 376 1153 l 349 1143 l 333 1129 l 328 1101 l 335 1074 l 346 1060 z m 214 1057 l 240 1063 l 253 1074 l 261 1104 l 256 1131 l 242 1149 l 215 1151 l 185 1140 l 169 1128 l 165 1103 l 169 1072 l 185 1064 z "},"Ė":{"ha":560,"x_min":0,"x_max":0,"o":"m 457 -6 l 479 6 l 489 26 l 490 47 l 478 68 l 454 76 l 432 75 l 410 76 l 389 74 l 365 78 l 318 78 l 294 75 l 271 79 l 226 78 l 201 89 l 190 121 l 189 146 l 193 288 l 190 313 l 193 331 l 193 354 l 190 379 l 192 404 l 189 425 l 200 444 l 221 460 l 244 457 l 288 458 l 311 461 l 331 458 l 378 460 l 399 454 l 440 458 l 461 471 l 472 499 l 463 522 l 439 533 l 417 531 l 376 532 l 342 535 l 300 533 l 265 535 l 243 532 l 224 533 l 200 542 l 190 569 l 192 592 l 189 611 l 192 635 l 189 701 l 192 721 l 189 767 l 190 846 l 203 878 l 226 890 l 271 896 l 318 897 l 342 892 l 363 894 l 388 896 l 410 893 l 442 890 l 478 903 l 492 922 l 490 943 l 476 958 l 457 969 l 435 971 l 368 969 l 256 974 l 189 968 l 167 974 l 147 968 l 124 974 l 103 964 l 93 939 l 96 921 l 97 897 l 99 872 l 97 856 l 97 833 l 101 815 l 97 760 l 100 728 l 99 703 l 100 660 l 100 640 l 101 613 l 99 550 l 101 526 l 97 501 l 99 476 l 97 454 l 96 415 l 97 390 l 101 365 l 100 343 l 97 325 l 100 300 l 97 281 l 96 257 l 100 189 l 97 31 l 110 8 l 132 -3 l 175 -4 l 219 1 l 240 -1 l 260 1 l 282 -3 l 326 0 l 347 -3 l 369 1 l 392 0 l 435 0 z m 294 1054 l 322 1056 l 338 1072 l 343 1101 l 339 1129 l 324 1150 l 292 1153 l 263 1146 l 250 1131 l 243 1101 l 251 1069 l 264 1060 z "},"È":{"ha":560,"x_min":0,"x_max":0,"o":"m 457 -6 l 479 6 l 489 26 l 490 47 l 478 68 l 454 76 l 432 75 l 410 76 l 389 74 l 365 78 l 318 78 l 294 75 l 271 79 l 226 78 l 201 89 l 190 121 l 189 146 l 193 288 l 190 313 l 193 331 l 193 354 l 190 379 l 192 404 l 189 425 l 200 444 l 221 460 l 244 457 l 288 458 l 311 461 l 331 458 l 378 460 l 399 454 l 440 458 l 461 471 l 472 499 l 463 522 l 439 533 l 417 531 l 376 532 l 342 535 l 300 533 l 265 535 l 243 532 l 224 533 l 200 542 l 190 569 l 192 592 l 189 611 l 192 635 l 189 701 l 192 721 l 189 767 l 190 846 l 203 878 l 226 890 l 271 896 l 318 897 l 342 892 l 363 894 l 388 896 l 410 893 l 442 890 l 478 903 l 492 922 l 490 943 l 476 958 l 457 969 l 435 971 l 368 969 l 256 974 l 189 968 l 167 974 l 147 968 l 124 974 l 103 964 l 93 939 l 96 921 l 97 897 l 99 872 l 97 856 l 97 833 l 101 815 l 97 760 l 100 728 l 99 703 l 100 660 l 100 640 l 101 613 l 99 550 l 101 526 l 97 501 l 99 476 l 97 454 l 96 415 l 97 390 l 101 365 l 100 343 l 97 325 l 100 300 l 97 281 l 96 257 l 100 189 l 97 31 l 110 8 l 132 -3 l 175 -4 l 219 1 l 240 -1 l 260 1 l 282 -3 l 326 0 l 347 -3 l 369 1 l 392 0 l 435 0 z m 301 1038 l 318 1047 l 319 1068 l 306 1086 l 299 1106 l 289 1122 l 279 1139 l 260 1160 l 233 1171 l 207 1168 l 192 1158 l 193 1143 l 206 1118 l 222 1103 l 231 1083 l 243 1069 l 268 1051 z "},"Ē":{"ha":560,"x_min":0,"x_max":0,"o":"m 457 -6 l 479 6 l 489 26 l 490 47 l 478 68 l 454 76 l 432 75 l 410 76 l 389 74 l 365 78 l 318 78 l 294 75 l 271 79 l 226 78 l 201 89 l 190 121 l 189 146 l 193 288 l 190 313 l 193 331 l 193 354 l 190 379 l 192 404 l 189 425 l 200 444 l 221 460 l 244 457 l 288 458 l 311 461 l 331 458 l 378 460 l 399 454 l 440 458 l 461 471 l 472 499 l 463 522 l 439 533 l 417 531 l 376 532 l 342 535 l 300 533 l 265 535 l 243 532 l 224 533 l 200 542 l 190 569 l 192 592 l 189 611 l 192 635 l 189 701 l 192 721 l 189 767 l 190 846 l 203 878 l 226 890 l 271 896 l 318 897 l 342 892 l 363 894 l 388 896 l 410 893 l 442 890 l 478 903 l 492 922 l 490 943 l 476 958 l 457 969 l 435 971 l 368 969 l 256 974 l 189 968 l 167 974 l 147 968 l 124 974 l 103 964 l 93 939 l 96 921 l 97 897 l 99 872 l 97 856 l 97 833 l 101 815 l 97 760 l 100 728 l 99 703 l 100 660 l 100 640 l 101 613 l 99 550 l 101 526 l 97 501 l 99 476 l 97 454 l 96 415 l 97 390 l 101 365 l 100 343 l 97 325 l 100 300 l 97 281 l 96 257 l 100 189 l 97 31 l 110 8 l 132 -3 l 175 -4 l 219 1 l 240 -1 l 260 1 l 282 -3 l 326 0 l 347 -3 l 369 1 l 392 0 l 435 0 z m 225 1060 l 250 1065 l 269 1064 l 306 1063 l 339 1061 l 358 1064 l 383 1064 l 406 1065 l 429 1075 l 440 1096 l 429 1114 l 403 1126 l 371 1126 l 340 1126 l 317 1122 l 293 1124 l 272 1121 l 250 1125 l 226 1124 l 206 1124 l 185 1124 l 161 1115 l 150 1097 l 158 1074 l 182 1067 l 206 1067 z "},"Ę":{"ha":588,"x_min":0,"x_max":0,"o":"m 417 -303 l 440 -301 l 461 -301 l 485 -293 l 506 -274 l 507 -251 l 494 -239 l 450 -242 l 431 -237 l 411 -231 l 400 -203 l 397 -168 l 400 -146 l 407 -122 l 425 -85 l 454 -47 l 482 1 l 489 40 l 478 69 l 456 75 l 407 79 l 382 75 l 342 75 l 318 79 l 293 75 l 272 76 l 247 72 l 224 78 l 203 89 l 190 125 l 189 156 l 192 186 l 189 267 l 193 319 l 188 424 l 200 446 l 231 458 l 265 454 l 418 454 l 439 458 l 461 469 l 472 492 l 460 521 l 442 533 l 421 535 l 374 532 l 353 536 l 331 533 l 288 535 l 256 532 l 232 532 l 200 543 l 190 569 l 188 593 l 190 611 l 189 749 l 188 767 l 192 806 l 190 836 l 189 857 l 201 882 l 224 892 l 250 890 l 272 893 l 293 893 l 317 896 l 340 893 l 431 889 l 456 894 l 478 904 l 489 932 l 478 963 l 435 975 l 232 968 l 211 971 l 188 975 l 165 969 l 121 972 l 103 960 l 93 942 l 97 922 l 96 875 l 99 856 l 96 833 l 96 808 l 100 756 l 96 703 l 96 657 l 99 639 l 97 614 l 100 592 l 96 568 l 97 544 l 100 526 l 96 465 l 100 410 l 100 358 l 97 333 l 97 235 l 101 211 l 97 190 l 99 135 l 96 97 l 100 67 l 97 31 l 107 8 l 144 -3 l 181 -4 l 200 -3 l 224 -3 l 244 -4 l 271 -3 l 293 -3 l 315 1 l 357 0 l 383 -4 l 399 -8 l 397 -29 l 358 -82 l 350 -100 l 340 -124 l 332 -137 l 331 -158 l 324 -203 l 331 -231 l 344 -264 l 356 -282 l 376 -294 l 399 -300 z "},"F":{"ha":554,"x_min":0,"x_max":0,"o":"m 132 -1 l 154 -1 l 179 11 l 189 33 l 189 54 l 190 74 l 189 97 l 193 140 l 189 188 l 189 214 l 193 235 l 190 254 l 192 368 l 189 392 l 192 411 l 203 435 l 243 449 l 267 449 l 310 443 l 336 446 l 354 443 l 376 447 l 400 444 l 424 444 l 443 456 l 456 485 l 444 507 l 424 519 l 378 522 l 357 519 l 269 524 l 222 519 l 204 529 l 192 551 l 188 596 l 189 619 l 192 642 l 189 664 l 192 710 l 190 728 l 192 754 l 190 796 l 193 840 l 193 861 l 201 881 l 225 893 l 269 896 l 293 893 l 314 897 l 336 894 l 363 894 l 385 897 l 417 893 l 451 894 l 471 907 l 483 933 l 471 960 l 450 974 l 431 969 l 408 972 l 382 971 l 283 972 l 253 968 l 146 974 l 122 972 l 101 960 l 94 938 l 99 894 l 99 857 l 96 838 l 100 789 l 100 724 l 97 706 l 100 681 l 100 660 l 101 639 l 97 617 l 97 592 l 100 567 l 99 543 l 101 522 l 100 500 l 101 478 l 99 461 l 101 433 l 97 389 l 100 367 l 97 36 l 108 14 z "},"G":{"ha":615,"x_min":0,"x_max":0,"o":"m 321 -18 l 354 -17 l 375 -8 l 399 -6 l 415 0 l 435 14 l 456 22 l 469 38 l 497 75 l 513 92 l 519 110 l 539 172 l 544 219 l 547 235 l 551 261 l 551 350 l 550 369 l 550 393 l 554 440 l 551 488 l 540 506 l 519 522 l 494 518 l 450 518 l 428 522 l 406 521 l 385 517 l 360 515 l 315 517 l 293 507 l 283 479 l 296 456 l 317 444 l 339 444 l 357 447 l 382 442 l 403 440 l 428 446 l 449 436 l 461 414 l 460 394 l 458 358 l 461 331 l 457 263 l 460 238 l 443 156 l 436 133 l 424 115 l 408 99 l 392 85 l 354 63 l 322 60 l 286 63 l 268 68 l 249 78 l 231 96 l 201 129 l 192 144 l 188 165 l 174 207 l 172 233 l 167 251 l 158 299 l 161 322 l 154 518 l 156 542 l 154 567 l 158 586 l 157 610 l 163 681 l 167 706 l 168 725 l 178 775 l 189 813 l 197 833 l 213 854 l 242 881 l 257 890 l 294 903 l 364 903 l 385 899 l 406 890 l 424 881 l 444 871 l 467 868 l 488 875 l 499 890 l 500 914 l 490 936 l 465 951 l 433 967 l 392 979 l 300 983 l 257 976 l 235 969 l 200 956 l 179 942 l 158 925 l 149 908 l 132 896 l 119 875 l 86 785 l 85 765 l 74 718 l 72 700 l 72 676 l 67 653 l 63 606 l 64 586 l 60 514 l 63 485 l 60 447 l 69 290 l 72 264 l 78 242 l 81 218 l 86 196 l 89 174 l 101 135 l 119 94 l 154 44 l 171 31 l 189 21 l 206 6 l 256 -12 l 290 -17 z "},"Ğ":{"ha":615,"x_min":0,"x_max":0,"o":"m 321 -18 l 354 -17 l 375 -8 l 399 -6 l 415 0 l 435 14 l 456 22 l 469 38 l 497 75 l 513 92 l 519 110 l 539 172 l 544 219 l 547 235 l 551 261 l 551 350 l 550 369 l 550 393 l 554 440 l 551 488 l 540 506 l 519 522 l 494 518 l 450 518 l 428 522 l 406 521 l 385 517 l 360 515 l 315 517 l 293 507 l 283 479 l 296 456 l 317 444 l 339 444 l 357 447 l 382 442 l 403 440 l 428 446 l 449 436 l 461 414 l 460 394 l 458 358 l 461 331 l 457 263 l 460 238 l 443 156 l 436 133 l 424 115 l 408 99 l 392 85 l 354 63 l 322 60 l 286 63 l 268 68 l 249 78 l 231 96 l 201 129 l 192 144 l 188 165 l 174 207 l 172 233 l 167 251 l 158 299 l 161 322 l 154 518 l 156 542 l 154 567 l 158 586 l 157 610 l 163 681 l 167 706 l 168 725 l 178 775 l 189 813 l 197 833 l 213 854 l 242 881 l 257 890 l 294 903 l 364 903 l 385 899 l 406 890 l 424 881 l 444 871 l 467 868 l 488 875 l 499 890 l 500 914 l 490 936 l 465 951 l 433 967 l 392 979 l 300 983 l 257 976 l 235 969 l 200 956 l 179 942 l 158 925 l 149 908 l 132 896 l 119 875 l 86 785 l 85 765 l 74 718 l 72 700 l 72 676 l 67 653 l 63 606 l 64 586 l 60 514 l 63 485 l 60 447 l 69 290 l 72 264 l 78 242 l 81 218 l 86 196 l 89 174 l 101 135 l 119 94 l 154 44 l 171 31 l 189 21 l 206 6 l 256 -12 l 290 -17 z m 326 1039 l 360 1042 l 378 1046 l 397 1053 l 415 1063 l 432 1072 l 451 1083 l 463 1101 l 465 1129 l 456 1153 l 436 1150 l 414 1142 l 401 1125 l 379 1111 l 361 1106 l 328 1103 l 293 1107 l 275 1113 l 254 1128 l 239 1142 l 217 1156 l 194 1153 l 185 1125 l 188 1106 l 201 1088 l 218 1076 l 233 1064 l 253 1053 l 275 1046 l 294 1046 z "},"Ģ":{"ha":615,"x_min":0,"x_max":0,"o":"m 321 -18 l 354 -17 l 375 -8 l 399 -6 l 415 0 l 435 14 l 456 22 l 469 38 l 497 75 l 513 92 l 519 110 l 539 172 l 544 219 l 547 235 l 551 261 l 551 350 l 550 369 l 550 393 l 554 440 l 551 488 l 540 506 l 519 522 l 494 518 l 450 518 l 428 522 l 406 521 l 385 517 l 360 515 l 315 517 l 293 507 l 283 479 l 296 456 l 317 444 l 339 444 l 357 447 l 382 442 l 403 440 l 428 446 l 449 436 l 461 414 l 460 394 l 458 358 l 461 331 l 457 263 l 460 238 l 443 156 l 436 133 l 424 115 l 408 99 l 392 85 l 354 63 l 322 60 l 286 63 l 268 68 l 249 78 l 231 96 l 201 129 l 192 144 l 188 165 l 174 207 l 172 233 l 167 251 l 158 299 l 161 322 l 154 518 l 156 542 l 154 567 l 158 586 l 157 610 l 163 681 l 167 706 l 168 725 l 178 775 l 189 813 l 197 833 l 213 854 l 242 881 l 257 890 l 294 903 l 364 903 l 385 899 l 406 890 l 424 881 l 444 871 l 467 868 l 488 875 l 499 890 l 500 914 l 490 936 l 465 951 l 433 967 l 392 979 l 300 983 l 257 976 l 235 969 l 200 956 l 179 942 l 158 925 l 149 908 l 132 896 l 119 875 l 86 785 l 85 765 l 74 718 l 72 700 l 72 676 l 67 653 l 63 606 l 64 586 l 60 514 l 63 485 l 60 447 l 69 290 l 72 264 l 78 242 l 81 218 l 86 196 l 89 174 l 101 135 l 119 94 l 154 44 l 171 31 l 189 21 l 206 6 l 256 -12 l 290 -17 z m 325 -124 l 301 -135 l 285 -157 l 281 -175 l 276 -199 l 272 -221 l 267 -246 l 263 -271 l 254 -292 l 251 -317 l 256 -336 l 271 -350 l 294 -337 l 314 -318 l 322 -297 l 326 -275 l 333 -253 l 339 -237 l 347 -214 l 356 -194 l 360 -175 l 371 -153 l 367 -136 l 349 -124 z "},"Ġ":{"ha":615,"x_min":0,"x_max":0,"o":"m 321 -18 l 354 -17 l 375 -8 l 399 -6 l 415 0 l 435 14 l 456 22 l 469 38 l 497 75 l 513 92 l 519 110 l 539 172 l 544 219 l 547 235 l 551 261 l 551 350 l 550 369 l 550 393 l 554 440 l 551 488 l 540 506 l 519 522 l 494 518 l 450 518 l 428 522 l 406 521 l 385 517 l 360 515 l 315 517 l 293 507 l 283 479 l 296 456 l 317 444 l 339 444 l 357 447 l 382 442 l 403 440 l 428 446 l 449 436 l 461 414 l 460 394 l 458 358 l 461 331 l 457 263 l 460 238 l 443 156 l 436 133 l 424 115 l 408 99 l 392 85 l 354 63 l 322 60 l 286 63 l 268 68 l 249 78 l 231 96 l 201 129 l 192 144 l 188 165 l 174 207 l 172 233 l 167 251 l 158 299 l 161 322 l 154 518 l 156 542 l 154 567 l 158 586 l 157 610 l 163 681 l 167 706 l 168 725 l 178 775 l 189 813 l 197 833 l 213 854 l 242 881 l 257 890 l 294 903 l 364 903 l 385 899 l 406 890 l 424 881 l 444 871 l 467 868 l 488 875 l 499 890 l 500 914 l 490 936 l 465 951 l 433 967 l 392 979 l 300 983 l 257 976 l 235 969 l 200 956 l 179 942 l 158 925 l 149 908 l 132 896 l 119 875 l 86 785 l 85 765 l 74 718 l 72 700 l 72 676 l 67 653 l 63 606 l 64 586 l 60 514 l 63 485 l 60 447 l 69 290 l 72 264 l 78 242 l 81 218 l 86 196 l 89 174 l 101 135 l 119 94 l 154 44 l 171 31 l 189 21 l 206 6 l 256 -12 l 290 -17 z m 324 1054 l 351 1056 l 367 1072 l 372 1101 l 368 1129 l 353 1150 l 321 1153 l 292 1146 l 279 1131 l 272 1101 l 281 1069 l 293 1060 z "},"H":{"ha":688,"x_min":0,"x_max":0,"o":"m 135 -3 l 157 -3 l 176 13 l 189 32 l 193 119 l 189 142 l 193 188 l 190 211 l 192 249 l 189 275 l 189 315 l 192 336 l 190 361 l 193 406 l 192 424 l 201 446 l 224 458 l 246 461 l 363 465 l 399 460 l 440 463 l 461 461 l 483 447 l 496 425 l 493 242 l 497 211 l 497 175 l 493 156 l 496 133 l 493 86 l 500 42 l 501 26 l 514 10 l 539 -3 l 564 -1 l 581 10 l 590 26 l 588 47 l 588 75 l 585 93 l 585 136 l 589 179 l 586 210 l 588 263 l 585 306 l 588 332 l 588 356 l 585 381 l 586 399 l 585 424 l 588 444 l 585 489 l 585 508 l 586 531 l 585 556 l 588 576 l 589 599 l 586 636 l 588 657 l 585 693 l 588 711 l 588 782 l 586 803 l 586 894 l 589 917 l 589 938 l 575 958 l 550 969 l 528 972 l 504 957 l 497 938 l 493 890 l 497 708 l 493 651 l 496 619 l 494 572 l 483 554 l 463 542 l 438 542 l 417 539 l 397 540 l 375 538 l 354 539 l 322 536 l 290 538 l 269 536 l 246 536 l 224 540 l 200 553 l 190 574 l 192 817 l 190 839 l 192 876 l 188 901 l 189 925 l 183 947 l 172 960 l 149 972 l 125 968 l 104 960 l 93 938 l 94 914 l 97 899 l 97 876 l 99 857 l 99 815 l 101 668 l 99 613 l 100 544 l 97 501 l 99 479 l 96 397 l 99 379 l 100 299 l 97 279 l 100 192 l 97 169 l 97 143 l 101 118 l 97 32 l 108 13 z "},"Ħ":{"ha":757,"x_min":0,"x_max":0,"o":"m 189 -3 l 214 8 l 226 46 l 224 76 l 225 119 l 222 140 l 224 249 l 226 275 l 226 318 l 224 339 l 226 386 l 224 404 l 226 429 l 233 453 l 257 463 l 278 461 l 368 464 l 388 460 l 410 458 l 439 458 l 464 464 l 494 465 l 518 449 l 529 426 l 529 382 l 528 356 l 531 336 l 529 313 l 532 243 l 528 210 l 532 65 l 532 47 l 535 26 l 549 8 l 574 -1 l 594 0 l 617 8 l 624 28 l 621 113 l 618 135 l 622 154 l 619 178 l 622 253 l 619 274 l 624 353 l 618 444 l 621 575 l 619 597 l 621 615 l 621 640 l 631 663 l 657 675 l 679 681 l 692 700 l 682 725 l 654 736 l 632 749 l 619 768 l 621 793 l 618 811 l 618 878 l 622 915 l 619 936 l 608 958 l 585 972 l 563 972 l 542 960 l 529 940 l 526 919 l 528 876 l 531 854 l 528 811 l 529 768 l 518 744 l 497 735 l 472 732 l 450 732 l 431 736 l 386 735 l 354 736 l 322 731 l 300 732 l 279 738 l 257 733 l 235 750 l 222 768 l 225 792 l 224 817 l 221 839 l 224 881 l 219 903 l 221 929 l 217 947 l 204 963 l 179 969 l 157 972 l 138 963 l 129 943 l 131 915 l 133 896 l 135 878 l 133 854 l 135 832 l 132 813 l 131 764 l 118 744 l 96 735 l 74 728 l 61 703 l 75 683 l 100 675 l 121 663 l 135 639 l 135 594 l 132 549 l 135 506 l 131 482 l 132 456 l 133 436 l 131 303 l 133 281 l 131 257 l 133 201 l 132 167 l 133 144 l 132 122 l 133 89 l 131 53 l 132 33 l 146 11 l 165 0 z m 474 536 l 453 540 l 313 542 l 254 538 l 238 550 l 228 575 l 225 597 l 228 640 l 238 660 l 260 671 l 290 671 l 311 674 l 346 671 l 365 676 l 388 674 l 407 669 l 431 672 l 450 669 l 474 675 l 496 672 l 518 664 l 529 631 l 528 588 l 518 549 l 493 539 z "},"I":{"ha":292,"x_min":0,"x_max":0,"o":"m 164 -1 l 186 7 l 196 31 l 193 49 l 194 71 l 189 156 l 190 179 l 189 208 l 193 240 l 189 265 l 188 285 l 193 329 l 189 553 l 192 576 l 188 715 l 192 761 l 192 811 l 189 835 l 190 858 l 186 924 l 186 943 l 171 961 l 146 971 l 125 974 l 103 961 l 94 939 l 97 921 l 97 896 l 100 876 l 101 856 l 97 832 l 97 813 l 100 788 l 101 681 l 99 663 l 100 626 l 99 529 l 100 506 l 97 485 l 100 439 l 97 418 l 101 263 l 97 240 l 100 208 l 99 174 l 101 156 l 99 129 l 100 110 l 97 89 l 99 67 l 103 28 l 118 7 l 143 0 z "},"Ĳ":{"ha":550,"x_min":0,"x_max":0,"o":"m 254 -168 l 278 -167 l 301 -161 l 321 -153 l 338 -140 l 361 -126 l 375 -115 l 393 -103 l 431 -39 l 438 -17 l 446 3 l 450 28 l 454 49 l 458 99 l 456 135 l 460 160 l 460 179 l 457 222 l 460 247 l 457 268 l 458 313 l 460 332 l 456 375 l 457 399 l 458 418 l 456 442 l 460 465 l 457 572 l 460 593 l 457 619 l 458 640 l 457 660 l 457 907 l 453 947 l 439 964 l 411 972 l 390 972 l 371 961 l 364 940 l 367 728 l 365 706 l 368 683 l 368 615 l 364 594 l 367 574 l 368 554 l 365 531 l 367 442 l 364 388 l 364 353 l 368 333 l 365 307 l 368 197 l 365 179 l 367 154 l 363 89 l 364 67 l 357 18 l 340 -19 l 326 -40 l 301 -69 l 260 -89 l 238 -89 l 218 -104 l 213 -135 l 229 -157 z m 165 -4 l 188 11 l 196 33 l 193 51 l 193 71 l 189 96 l 188 111 l 190 132 l 189 154 l 190 179 l 188 208 l 192 244 l 189 267 l 190 283 l 188 317 l 192 400 l 189 422 l 188 442 l 190 465 l 188 486 l 192 507 l 193 526 l 189 574 l 189 681 l 192 706 l 188 729 l 192 792 l 189 814 l 186 863 l 189 906 l 188 926 l 185 943 l 168 964 l 146 971 l 124 971 l 104 963 l 93 943 l 99 894 l 96 878 l 99 856 l 96 832 l 100 788 l 97 758 l 100 696 l 97 661 l 100 635 l 97 554 l 99 525 l 99 504 l 96 489 l 96 429 l 100 394 l 100 351 l 97 332 l 97 286 l 100 250 l 100 179 l 97 156 l 99 129 l 97 111 l 100 90 l 101 65 l 100 46 l 103 24 l 117 8 z "},"Í":{"ha":292,"x_min":0,"x_max":0,"o":"m 164 -1 l 186 7 l 196 31 l 193 49 l 194 71 l 189 156 l 190 179 l 189 208 l 193 240 l 189 265 l 188 285 l 193 329 l 189 553 l 192 576 l 188 715 l 192 761 l 192 811 l 189 835 l 190 858 l 186 924 l 186 943 l 171 961 l 146 971 l 125 974 l 103 961 l 94 939 l 97 921 l 97 896 l 100 876 l 101 856 l 97 832 l 97 813 l 100 788 l 101 681 l 99 663 l 100 626 l 99 529 l 100 506 l 97 485 l 100 439 l 97 418 l 101 263 l 97 240 l 100 208 l 99 174 l 101 156 l 99 129 l 100 110 l 97 89 l 99 67 l 103 28 l 118 7 l 143 0 z m 115 1040 l 144 1047 l 168 1069 l 181 1088 l 192 1101 l 206 1121 l 218 1139 l 218 1156 l 207 1169 l 183 1169 l 158 1157 l 135 1140 l 126 1122 l 115 1104 l 97 1068 l 97 1050 z "},"Î":{"ha":292,"x_min":0,"x_max":0,"o":"m 164 -1 l 186 7 l 196 31 l 193 49 l 194 71 l 189 156 l 190 179 l 189 208 l 193 240 l 189 265 l 188 285 l 193 329 l 189 553 l 192 576 l 188 715 l 192 761 l 192 811 l 189 835 l 190 858 l 186 924 l 186 943 l 171 961 l 146 971 l 125 974 l 103 961 l 94 939 l 97 921 l 97 896 l 100 876 l 101 856 l 97 832 l 97 813 l 100 788 l 101 681 l 99 663 l 100 626 l 99 529 l 100 506 l 97 485 l 100 439 l 97 418 l 101 263 l 97 240 l 100 208 l 99 174 l 101 156 l 99 129 l 100 110 l 97 89 l 99 67 l 103 28 l 118 7 l 143 0 z m 243 1039 l 264 1040 l 281 1044 l 275 1064 l 263 1081 l 240 1103 l 221 1125 l 207 1144 l 182 1160 l 153 1168 l 129 1167 l 101 1158 l 74 1144 l 61 1124 l 46 1113 l 32 1096 l 21 1083 l 4 1064 l 4 1043 l 19 1039 l 40 1042 l 67 1047 l 92 1064 l 108 1081 l 118 1100 l 142 1110 l 161 1100 l 178 1085 l 192 1067 l 215 1047 z "},"Ï":{"ha":292,"x_min":0,"x_max":0,"o":"m 164 -1 l 186 7 l 196 31 l 193 49 l 194 71 l 189 156 l 190 179 l 189 208 l 193 240 l 189 265 l 188 285 l 193 329 l 189 553 l 192 576 l 188 715 l 192 761 l 192 811 l 189 835 l 190 858 l 186 924 l 186 943 l 171 961 l 146 971 l 125 974 l 103 961 l 94 939 l 97 921 l 97 896 l 100 876 l 101 856 l 97 832 l 97 813 l 100 788 l 101 681 l 99 663 l 100 626 l 99 529 l 100 506 l 97 485 l 100 439 l 97 418 l 101 263 l 97 240 l 100 208 l 99 174 l 101 156 l 99 129 l 100 110 l 97 89 l 99 67 l 103 28 l 118 7 l 143 0 z m 221 1054 l 246 1057 l 264 1068 l 268 1101 l 263 1131 l 250 1147 l 219 1153 l 192 1143 l 176 1129 l 171 1101 l 178 1074 l 189 1060 z m 57 1057 l 83 1063 l 96 1074 l 104 1104 l 99 1131 l 85 1149 l 58 1151 l 28 1140 l 13 1128 l 8 1103 l 13 1072 l 28 1064 z "},"İ":{"ha":292,"x_min":0,"x_max":0,"o":"m 164 -1 l 186 7 l 196 31 l 193 49 l 194 71 l 189 156 l 190 179 l 189 208 l 193 240 l 189 265 l 188 285 l 193 329 l 189 553 l 192 576 l 188 715 l 192 761 l 192 811 l 189 835 l 190 858 l 186 924 l 186 943 l 171 961 l 146 971 l 125 974 l 103 961 l 94 939 l 97 921 l 97 896 l 100 876 l 101 856 l 97 832 l 97 813 l 100 788 l 101 681 l 99 663 l 100 626 l 99 529 l 100 506 l 97 485 l 100 439 l 97 418 l 101 263 l 97 240 l 100 208 l 99 174 l 101 156 l 99 129 l 100 110 l 97 89 l 99 67 l 103 28 l 118 7 l 143 0 z m 138 1054 l 165 1056 l 181 1072 l 186 1101 l 182 1129 l 167 1150 l 135 1153 l 106 1146 l 93 1131 l 86 1101 l 94 1069 l 107 1060 z "},"Ì":{"ha":292,"x_min":0,"x_max":0,"o":"m 164 -1 l 186 7 l 196 31 l 193 49 l 194 71 l 189 156 l 190 179 l 189 208 l 193 240 l 189 265 l 188 285 l 193 329 l 189 553 l 192 576 l 188 715 l 192 761 l 192 811 l 189 835 l 190 858 l 186 924 l 186 943 l 171 961 l 146 971 l 125 974 l 103 961 l 94 939 l 97 921 l 97 896 l 100 876 l 101 856 l 97 832 l 97 813 l 100 788 l 101 681 l 99 663 l 100 626 l 99 529 l 100 506 l 97 485 l 100 439 l 97 418 l 101 263 l 97 240 l 100 208 l 99 174 l 101 156 l 99 129 l 100 110 l 97 89 l 99 67 l 103 28 l 118 7 l 143 0 z m 144 1038 l 161 1047 l 163 1068 l 149 1086 l 142 1106 l 132 1122 l 122 1139 l 103 1160 l 76 1171 l 50 1168 l 35 1158 l 36 1143 l 49 1118 l 65 1103 l 74 1083 l 86 1069 l 111 1051 z "},"Ī":{"ha":292,"x_min":0,"x_max":0,"o":"m 164 -1 l 186 7 l 196 31 l 193 49 l 194 71 l 189 156 l 190 179 l 189 208 l 193 240 l 189 265 l 188 285 l 193 329 l 189 553 l 192 576 l 188 715 l 192 761 l 192 811 l 189 835 l 190 858 l 186 924 l 186 943 l 171 961 l 146 971 l 125 974 l 103 961 l 94 939 l 97 921 l 97 896 l 100 876 l 101 856 l 97 832 l 97 813 l 100 788 l 101 681 l 99 663 l 100 626 l 99 529 l 100 506 l 97 485 l 100 439 l 97 418 l 101 263 l 97 240 l 100 208 l 99 174 l 101 156 l 99 129 l 100 110 l 97 89 l 99 67 l 103 28 l 118 7 l 143 0 z m 68 1060 l 93 1065 l 113 1064 l 149 1063 l 182 1061 l 201 1064 l 226 1064 l 249 1065 l 272 1075 l 283 1096 l 272 1114 l 246 1126 l 214 1126 l 183 1126 l 160 1122 l 136 1124 l 115 1121 l 93 1125 l 69 1124 l 49 1124 l 28 1124 l 4 1115 l -8 1097 l 1 1074 l 25 1067 l 49 1067 z "},"Į":{"ha":374,"x_min":0,"x_max":0,"o":"m 208 -303 l 253 -290 l 272 -274 l 275 -249 l 258 -235 l 213 -239 l 193 -237 l 176 -231 l 165 -203 l 161 -169 l 164 -146 l 171 -121 l 179 -104 l 222 -44 l 247 -1 l 251 33 l 246 529 l 249 550 l 246 592 l 250 618 l 243 944 l 231 961 l 203 975 l 179 969 l 163 961 l 151 942 l 157 836 l 156 813 l 157 792 l 156 640 l 158 619 l 156 590 l 157 569 l 157 549 l 154 529 l 157 504 l 154 374 l 156 343 l 154 285 l 157 243 l 154 210 l 158 156 l 158 110 l 156 86 l 161 25 l 175 -10 l 167 -25 l 140 -57 l 129 -81 l 106 -115 l 93 -156 l 88 -200 l 93 -232 l 108 -260 l 122 -279 l 140 -292 l 186 -300 z "},"J":{"ha":358,"x_min":0,"x_max":0,"o":"m 19 -135 l 40 -153 l 67 -167 l 128 -156 l 147 -140 l 169 -129 l 204 -97 l 215 -82 l 226 -64 l 246 -21 l 260 24 l 265 71 l 267 596 l 269 629 l 265 685 l 268 706 l 269 728 l 267 903 l 260 943 l 249 960 l 222 972 l 199 972 l 181 960 l 174 940 l 172 876 l 176 856 l 178 835 l 176 485 l 174 464 l 176 443 l 174 417 l 176 351 l 172 329 l 175 301 l 174 244 l 176 194 l 175 178 l 174 119 l 175 86 l 171 40 l 165 19 l 146 -24 l 136 -39 l 107 -69 l 88 -81 l 69 -89 l 44 -93 l 25 -106 z "},"K":{"ha":615,"x_min":0,"x_max":0,"o":"m 524 -3 l 542 -1 l 563 -3 l 576 7 l 579 32 l 572 50 l 561 68 l 539 136 l 526 154 l 510 192 l 503 217 l 494 235 l 488 256 l 475 281 l 471 297 l 460 321 l 453 340 l 442 360 l 436 382 l 400 461 l 393 483 l 383 503 l 375 525 l 375 556 l 388 581 l 415 614 l 425 631 l 440 646 l 471 704 l 481 725 l 500 765 l 506 788 l 515 831 l 522 849 l 544 939 l 536 958 l 515 971 l 492 972 l 469 960 l 453 938 l 446 890 l 439 874 l 424 807 l 413 790 l 397 742 l 375 706 l 365 685 l 326 633 l 310 621 l 293 603 l 279 589 l 219 557 l 200 564 l 190 582 l 189 601 l 192 622 l 189 642 l 189 726 l 193 758 l 189 815 l 192 840 l 189 857 l 190 882 l 188 903 l 189 926 l 186 942 l 172 958 l 144 971 l 125 969 l 103 961 l 93 939 l 96 921 l 96 899 l 100 881 l 97 857 l 99 832 l 97 815 l 100 758 l 97 696 l 100 658 l 97 639 l 99 615 l 97 590 l 100 572 l 99 535 l 101 513 l 96 444 l 99 388 l 97 367 l 100 325 l 96 281 l 100 124 l 97 96 l 97 79 l 100 56 l 100 32 l 110 7 l 133 -1 l 156 -1 l 181 11 l 192 31 l 189 54 l 192 103 l 189 171 l 192 192 l 189 214 l 192 394 l 189 440 l 204 463 l 228 483 l 250 494 l 275 493 l 297 476 l 306 453 l 311 431 l 331 392 l 346 351 l 364 310 l 368 292 l 397 233 l 406 213 l 413 188 l 424 169 l 431 156 l 439 132 l 443 111 l 454 88 l 461 68 l 472 50 l 481 29 l 496 6 z "},"Ķ":{"ha":615,"x_min":0,"x_max":0,"o":"m 524 -3 l 542 -1 l 563 -3 l 576 7 l 579 32 l 572 50 l 561 68 l 539 136 l 526 154 l 510 192 l 503 217 l 494 235 l 488 256 l 475 281 l 471 297 l 460 321 l 453 340 l 442 360 l 436 382 l 400 461 l 393 483 l 383 503 l 375 525 l 375 556 l 388 581 l 415 614 l 425 631 l 440 646 l 471 704 l 481 725 l 500 765 l 506 788 l 515 831 l 522 849 l 544 939 l 536 958 l 515 971 l 492 972 l 469 960 l 453 938 l 446 890 l 439 874 l 424 807 l 413 790 l 397 742 l 375 706 l 365 685 l 326 633 l 310 621 l 293 603 l 279 589 l 219 557 l 200 564 l 190 582 l 189 601 l 192 622 l 189 642 l 189 726 l 193 758 l 189 815 l 192 840 l 189 857 l 190 882 l 188 903 l 189 926 l 186 942 l 172 958 l 144 971 l 125 969 l 103 961 l 93 939 l 96 921 l 96 899 l 100 881 l 97 857 l 99 832 l 97 815 l 100 758 l 97 696 l 100 658 l 97 639 l 99 615 l 97 590 l 100 572 l 99 535 l 101 513 l 96 444 l 99 388 l 97 367 l 100 325 l 96 281 l 100 124 l 97 96 l 97 79 l 100 56 l 100 32 l 110 7 l 133 -1 l 156 -1 l 181 11 l 192 31 l 189 54 l 192 103 l 189 171 l 192 192 l 189 214 l 192 394 l 189 440 l 204 463 l 228 483 l 250 494 l 275 493 l 297 476 l 306 453 l 311 431 l 331 392 l 346 351 l 364 310 l 368 292 l 397 233 l 406 213 l 413 188 l 424 169 l 431 156 l 439 132 l 443 111 l 454 88 l 461 68 l 472 50 l 481 29 l 496 6 z m 325 -124 l 301 -135 l 285 -157 l 281 -175 l 276 -199 l 272 -221 l 267 -246 l 263 -271 l 254 -292 l 251 -317 l 256 -336 l 271 -350 l 294 -337 l 314 -318 l 322 -297 l 326 -275 l 333 -253 l 339 -237 l 347 -214 l 356 -194 l 360 -175 l 371 -153 l 367 -136 l 349 -124 z "},"L":{"ha":506,"x_min":0,"x_max":0,"o":"m 243 -6 l 265 0 l 289 1 l 332 -4 l 442 1 l 465 11 l 479 26 l 479 46 l 465 68 l 443 76 l 289 76 l 268 79 l 222 75 l 201 88 l 189 107 l 188 143 l 192 221 l 189 253 l 193 306 l 189 353 l 193 394 l 189 506 l 192 526 l 189 614 l 192 647 l 192 707 l 193 724 l 190 760 l 190 792 l 188 814 l 190 836 l 189 882 l 186 901 l 188 926 l 186 942 l 169 960 l 147 968 l 122 971 l 104 963 l 94 940 l 96 918 l 96 899 l 100 831 l 97 810 l 96 672 l 100 639 l 97 617 l 100 590 l 97 543 l 100 433 l 97 344 l 100 321 l 99 304 l 97 54 l 100 29 l 111 10 l 131 -1 l 153 -1 l 176 0 l 200 0 z "},"Ĺ":{"ha":506,"x_min":0,"x_max":0,"o":"m 243 -6 l 265 0 l 289 1 l 332 -4 l 442 1 l 465 11 l 479 26 l 479 46 l 465 68 l 443 76 l 289 76 l 268 79 l 222 75 l 201 88 l 189 107 l 188 143 l 192 221 l 189 253 l 193 306 l 189 353 l 193 394 l 189 506 l 192 526 l 189 614 l 192 647 l 192 707 l 193 724 l 190 760 l 190 792 l 188 814 l 190 836 l 189 882 l 186 901 l 188 926 l 186 942 l 169 960 l 147 968 l 122 971 l 104 963 l 94 940 l 96 918 l 96 899 l 100 831 l 97 810 l 96 672 l 100 639 l 97 617 l 100 590 l 97 543 l 100 433 l 97 344 l 100 321 l 99 304 l 97 54 l 100 29 l 111 10 l 131 -1 l 153 -1 l 176 0 l 200 0 z m 113 1040 l 142 1047 l 165 1069 l 178 1088 l 189 1101 l 203 1121 l 215 1139 l 215 1156 l 204 1169 l 181 1169 l 156 1157 l 132 1140 l 124 1122 l 113 1104 l 94 1068 l 94 1050 z "},"Ľ":{"ha":506,"x_min":0,"x_max":0,"o":"m 389 756 l 404 778 l 411 799 l 414 826 l 415 847 l 431 935 l 424 957 l 407 972 l 382 956 l 369 936 l 357 846 l 357 821 l 350 778 l 360 758 z m 243 -6 l 265 0 l 289 1 l 332 -4 l 442 1 l 465 11 l 479 26 l 479 46 l 465 68 l 443 76 l 289 76 l 268 79 l 222 75 l 201 88 l 189 107 l 188 143 l 192 221 l 189 253 l 193 306 l 189 353 l 193 394 l 189 506 l 192 526 l 189 614 l 192 647 l 192 707 l 193 724 l 190 760 l 190 792 l 188 814 l 190 836 l 189 882 l 186 901 l 188 926 l 186 942 l 169 960 l 147 968 l 122 971 l 104 963 l 94 940 l 96 918 l 96 899 l 100 831 l 97 810 l 96 672 l 100 639 l 97 617 l 100 590 l 97 543 l 100 433 l 97 344 l 100 321 l 99 304 l 97 54 l 100 29 l 111 10 l 131 -1 l 153 -1 l 176 0 l 200 0 z "},"Ļ":{"ha":506,"x_min":0,"x_max":0,"o":"m 243 -6 l 265 0 l 289 1 l 332 -4 l 442 1 l 465 11 l 479 26 l 479 46 l 465 68 l 443 76 l 289 76 l 268 79 l 222 75 l 201 88 l 189 107 l 188 143 l 192 221 l 189 253 l 193 306 l 189 353 l 193 394 l 189 506 l 192 526 l 189 614 l 192 647 l 192 707 l 193 724 l 190 760 l 190 792 l 188 814 l 190 836 l 189 882 l 186 901 l 188 926 l 186 942 l 169 960 l 147 968 l 122 971 l 104 963 l 94 940 l 96 918 l 96 899 l 100 831 l 97 810 l 96 672 l 100 639 l 97 617 l 100 590 l 97 543 l 100 433 l 97 344 l 100 321 l 99 304 l 97 54 l 100 29 l 111 10 l 131 -1 l 153 -1 l 176 0 l 200 0 z m 289 -124 l 265 -135 l 249 -157 l 244 -175 l 240 -199 l 236 -221 l 231 -246 l 226 -271 l 218 -292 l 215 -317 l 219 -336 l 235 -350 l 258 -337 l 278 -318 l 286 -297 l 290 -275 l 297 -253 l 303 -237 l 311 -214 l 319 -194 l 324 -175 l 335 -153 l 331 -136 l 313 -124 z "},"Ŀ":{"ha":506,"x_min":0,"x_max":0,"o":"m 243 -6 l 265 0 l 289 1 l 332 -4 l 442 1 l 465 11 l 479 26 l 479 46 l 465 68 l 443 76 l 289 76 l 268 79 l 222 75 l 201 88 l 189 107 l 188 143 l 192 221 l 189 253 l 193 306 l 189 353 l 193 394 l 189 506 l 192 526 l 189 614 l 192 647 l 192 707 l 193 724 l 190 760 l 190 792 l 188 814 l 190 836 l 189 882 l 186 901 l 188 926 l 186 942 l 169 960 l 147 968 l 122 971 l 104 963 l 94 940 l 96 918 l 96 899 l 100 831 l 97 810 l 96 672 l 100 639 l 97 617 l 100 590 l 97 543 l 100 433 l 97 344 l 100 321 l 99 304 l 97 54 l 100 29 l 111 10 l 131 -1 l 153 -1 l 176 0 l 200 0 z m 328 396 l 361 401 l 376 418 l 382 447 l 376 481 l 358 493 l 329 500 l 299 496 l 283 476 l 278 449 l 283 417 l 297 399 z "},"Ł":{"ha":542,"x_min":0,"x_max":0,"o":"m 190 -6 l 214 -1 l 236 -3 l 258 0 l 279 0 l 303 -4 l 365 -4 l 411 0 l 436 -1 l 456 1 l 476 -1 l 503 11 l 515 31 l 513 47 l 504 64 l 482 75 l 456 78 l 438 75 l 413 74 l 392 79 l 349 75 l 314 81 l 293 76 l 258 76 l 238 89 l 225 119 l 229 154 l 229 176 l 226 201 l 228 218 l 226 265 l 228 310 l 225 332 l 228 351 l 226 376 l 229 399 l 226 419 l 226 446 l 235 471 l 258 490 l 279 496 l 318 514 l 361 529 l 375 547 l 378 571 l 360 583 l 336 586 l 318 574 l 300 567 l 265 557 l 235 558 l 229 574 l 225 594 l 225 619 l 228 642 l 225 682 l 226 879 l 222 904 l 224 924 l 219 943 l 208 964 l 183 971 l 160 972 l 139 961 l 132 936 l 129 917 l 133 899 l 135 872 l 138 853 l 133 836 l 135 792 l 132 757 l 138 701 l 135 681 l 138 657 l 133 629 l 136 608 l 135 542 l 124 517 l 107 492 l 89 489 l 71 479 l 54 461 l 51 443 l 67 425 l 89 422 l 106 426 l 125 426 l 133 410 l 135 386 l 133 363 l 138 278 l 133 249 l 136 231 l 136 211 l 135 190 l 138 167 l 133 75 l 136 56 l 135 33 l 144 10 l 168 -1 z "},"M":{"ha":867,"x_min":0,"x_max":0,"o":"m 124 -6 l 143 -4 l 167 8 l 176 32 l 178 365 l 176 388 l 178 407 l 176 476 l 178 493 l 175 515 l 178 539 l 176 585 l 178 604 l 175 699 l 175 719 l 172 742 l 174 765 l 172 808 l 174 854 l 181 857 l 236 617 l 260 551 l 268 507 l 276 489 l 281 465 l 288 447 l 301 404 l 306 382 l 317 349 l 322 317 l 332 299 l 343 257 l 351 236 l 357 211 l 358 189 l 372 147 l 390 128 l 417 118 l 438 119 l 463 126 l 482 150 l 489 167 l 493 192 l 501 211 l 543 364 l 547 385 l 556 403 l 558 425 l 568 447 l 649 744 l 653 769 l 660 788 l 663 814 l 665 833 l 675 854 l 681 854 l 678 768 l 681 740 l 678 721 l 679 693 l 678 672 l 679 608 l 675 515 l 679 426 l 676 379 l 676 356 l 681 332 l 676 311 l 678 289 l 678 265 l 675 240 l 679 206 l 675 128 l 678 108 l 676 85 l 681 63 l 682 40 l 682 24 l 697 8 l 721 -4 l 743 -1 l 761 10 l 769 29 l 765 54 l 768 72 l 765 90 l 765 113 l 763 135 l 767 239 l 764 263 l 768 289 l 764 397 l 768 467 l 764 510 l 765 532 l 763 557 l 765 688 l 764 713 l 767 756 l 763 779 l 767 939 l 751 960 l 729 969 l 708 974 l 674 975 l 636 960 l 622 939 l 615 918 l 611 899 l 606 874 l 589 832 l 558 700 l 550 681 l 521 578 l 518 553 l 513 531 l 504 510 l 501 493 l 486 450 l 432 210 l 421 219 l 413 254 l 407 293 l 356 508 l 347 532 l 344 554 l 329 594 l 325 615 l 315 640 l 307 683 l 236 939 l 218 958 l 192 968 l 169 971 l 144 969 l 122 972 l 99 960 l 88 925 l 89 872 l 88 847 l 89 807 l 88 783 l 89 761 l 88 739 l 89 675 l 88 651 l 90 629 l 86 449 l 89 428 l 88 408 l 89 385 l 88 296 l 89 274 l 86 207 l 90 186 l 88 31 l 99 7 z "},"N":{"ha":678,"x_min":0,"x_max":0,"o":"m 489 -1 l 508 1 l 533 0 l 554 0 l 575 8 l 585 36 l 585 56 l 588 75 l 585 100 l 585 125 l 588 143 l 585 233 l 588 257 l 588 279 l 585 300 l 588 319 l 586 342 l 588 435 l 585 458 l 588 478 l 585 593 l 588 613 l 589 635 l 586 686 l 589 703 l 583 815 l 586 838 l 583 863 l 586 885 l 583 924 l 579 943 l 565 963 l 544 969 l 521 971 l 503 964 l 493 943 l 497 876 l 496 856 l 497 832 l 494 811 l 497 793 l 494 761 l 499 726 l 497 440 l 500 422 l 497 367 l 500 335 l 496 303 l 500 271 l 500 246 l 497 222 l 504 182 l 503 113 l 497 111 l 489 132 l 476 179 l 474 201 l 468 224 l 457 249 l 450 271 l 443 304 l 397 438 l 386 481 l 365 542 l 354 564 l 347 583 l 344 603 l 268 838 l 250 876 l 247 900 l 242 919 l 233 939 l 213 961 l 190 974 l 167 971 l 132 972 l 100 961 l 89 938 l 90 913 l 88 808 l 89 786 l 88 715 l 90 697 l 90 672 l 86 629 l 90 608 l 88 588 l 89 561 l 88 543 l 89 518 l 88 461 l 92 408 l 89 386 l 89 353 l 88 333 l 90 278 l 89 188 l 92 161 l 89 140 l 90 29 l 101 11 l 133 0 l 167 8 l 179 29 l 176 117 l 181 142 l 178 167 l 178 189 l 179 207 l 176 233 l 181 264 l 178 297 l 176 346 l 179 367 l 181 386 l 178 411 l 179 435 l 175 524 l 179 544 l 176 667 l 178 701 l 175 725 l 176 743 l 174 765 l 175 788 l 172 811 l 174 835 l 172 856 l 178 854 l 186 836 l 204 772 l 207 753 l 260 582 l 269 563 l 272 540 l 282 519 l 294 474 l 304 458 l 310 436 l 319 414 l 331 365 l 361 283 l 365 267 l 389 200 l 393 181 l 403 160 l 408 136 l 436 51 l 444 32 l 464 11 z "},"Ń":{"ha":678,"x_min":0,"x_max":0,"o":"m 489 -1 l 508 1 l 533 0 l 554 0 l 575 8 l 585 36 l 585 56 l 588 75 l 585 100 l 585 125 l 588 143 l 585 233 l 588 257 l 588 279 l 585 300 l 588 319 l 586 342 l 588 435 l 585 458 l 588 478 l 585 593 l 588 613 l 589 635 l 586 686 l 589 703 l 583 815 l 586 838 l 583 863 l 586 885 l 583 924 l 579 943 l 565 963 l 544 969 l 521 971 l 503 964 l 493 943 l 497 876 l 496 856 l 497 832 l 494 811 l 497 793 l 494 761 l 499 726 l 497 440 l 500 422 l 497 367 l 500 335 l 496 303 l 500 271 l 500 246 l 497 222 l 504 182 l 503 113 l 497 111 l 489 132 l 476 179 l 474 201 l 468 224 l 457 249 l 450 271 l 443 304 l 397 438 l 386 481 l 365 542 l 354 564 l 347 583 l 344 603 l 268 838 l 250 876 l 247 900 l 242 919 l 233 939 l 213 961 l 190 974 l 167 971 l 132 972 l 100 961 l 89 938 l 90 913 l 88 808 l 89 786 l 88 715 l 90 697 l 90 672 l 86 629 l 90 608 l 88 588 l 89 561 l 88 543 l 89 518 l 88 461 l 92 408 l 89 386 l 89 353 l 88 333 l 90 278 l 89 188 l 92 161 l 89 140 l 90 29 l 101 11 l 133 0 l 167 8 l 179 29 l 176 117 l 181 142 l 178 167 l 178 189 l 179 207 l 176 233 l 181 264 l 178 297 l 176 346 l 179 367 l 181 386 l 178 411 l 179 435 l 175 524 l 179 544 l 176 667 l 178 701 l 175 725 l 176 743 l 174 765 l 175 788 l 172 811 l 174 835 l 172 856 l 178 854 l 186 836 l 204 772 l 207 753 l 260 582 l 269 563 l 272 540 l 282 519 l 294 474 l 304 458 l 310 436 l 319 414 l 331 365 l 361 283 l 365 267 l 389 200 l 393 181 l 403 160 l 408 136 l 436 51 l 444 32 l 464 11 z m 325 1040 l 354 1047 l 378 1069 l 390 1088 l 401 1101 l 415 1121 l 428 1139 l 428 1156 l 417 1169 l 393 1169 l 368 1157 l 344 1140 l 336 1122 l 325 1104 l 307 1068 l 307 1050 z "},"Ň":{"ha":678,"x_min":0,"x_max":0,"o":"m 489 -1 l 508 1 l 533 0 l 554 0 l 575 8 l 585 36 l 585 56 l 588 75 l 585 100 l 585 125 l 588 143 l 585 233 l 588 257 l 588 279 l 585 300 l 588 319 l 586 342 l 588 435 l 585 458 l 588 478 l 585 593 l 588 613 l 589 635 l 586 686 l 589 703 l 583 815 l 586 838 l 583 863 l 586 885 l 583 924 l 579 943 l 565 963 l 544 969 l 521 971 l 503 964 l 493 943 l 497 876 l 496 856 l 497 832 l 494 811 l 497 793 l 494 761 l 499 726 l 497 440 l 500 422 l 497 367 l 500 335 l 496 303 l 500 271 l 500 246 l 497 222 l 504 182 l 503 113 l 497 111 l 489 132 l 476 179 l 474 201 l 468 224 l 457 249 l 450 271 l 443 304 l 397 438 l 386 481 l 365 542 l 354 564 l 347 583 l 344 603 l 268 838 l 250 876 l 247 900 l 242 919 l 233 939 l 213 961 l 190 974 l 167 971 l 132 972 l 100 961 l 89 938 l 90 913 l 88 808 l 89 786 l 88 715 l 90 697 l 90 672 l 86 629 l 90 608 l 88 588 l 89 561 l 88 543 l 89 518 l 88 461 l 92 408 l 89 386 l 89 353 l 88 333 l 90 278 l 89 188 l 92 161 l 89 140 l 90 29 l 101 11 l 133 0 l 167 8 l 179 29 l 176 117 l 181 142 l 178 167 l 178 189 l 179 207 l 176 233 l 181 264 l 178 297 l 176 346 l 179 367 l 181 386 l 178 411 l 179 435 l 175 524 l 179 544 l 176 667 l 178 701 l 175 725 l 176 743 l 174 765 l 175 788 l 172 811 l 174 835 l 172 856 l 178 854 l 186 836 l 204 772 l 207 753 l 260 582 l 269 563 l 272 540 l 282 519 l 294 474 l 304 458 l 310 436 l 319 414 l 331 365 l 361 283 l 365 267 l 389 200 l 393 181 l 403 160 l 408 136 l 436 51 l 444 32 l 464 11 z m 338 1039 l 361 1039 l 388 1046 l 414 1063 l 428 1079 l 442 1093 l 451 1111 l 465 1126 l 479 1143 l 479 1163 l 461 1168 l 429 1160 l 404 1143 l 390 1124 l 372 1106 l 351 1097 l 328 1110 l 311 1124 l 296 1144 l 269 1160 l 238 1169 l 218 1158 l 218 1140 l 235 1126 l 256 1103 l 272 1081 l 289 1064 l 310 1049 z "},"Ņ":{"ha":678,"x_min":0,"x_max":0,"o":"m 489 -1 l 508 1 l 533 0 l 554 0 l 575 8 l 585 36 l 585 56 l 588 75 l 585 100 l 585 125 l 588 143 l 585 233 l 588 257 l 588 279 l 585 300 l 588 319 l 586 342 l 588 435 l 585 458 l 588 478 l 585 593 l 588 613 l 589 635 l 586 686 l 589 703 l 583 815 l 586 838 l 583 863 l 586 885 l 583 924 l 579 943 l 565 963 l 544 969 l 521 971 l 503 964 l 493 943 l 497 876 l 496 856 l 497 832 l 494 811 l 497 793 l 494 761 l 499 726 l 497 440 l 500 422 l 497 367 l 500 335 l 496 303 l 500 271 l 500 246 l 497 222 l 504 182 l 503 113 l 497 111 l 489 132 l 476 179 l 474 201 l 468 224 l 457 249 l 450 271 l 443 304 l 397 438 l 386 481 l 365 542 l 354 564 l 347 583 l 344 603 l 268 838 l 250 876 l 247 900 l 242 919 l 233 939 l 213 961 l 190 974 l 167 971 l 132 972 l 100 961 l 89 938 l 90 913 l 88 808 l 89 786 l 88 715 l 90 697 l 90 672 l 86 629 l 90 608 l 88 588 l 89 561 l 88 543 l 89 518 l 88 461 l 92 408 l 89 386 l 89 353 l 88 333 l 90 278 l 89 188 l 92 161 l 89 140 l 90 29 l 101 11 l 133 0 l 167 8 l 179 29 l 176 117 l 181 142 l 178 167 l 178 189 l 179 207 l 176 233 l 181 264 l 178 297 l 176 346 l 179 367 l 181 386 l 178 411 l 179 435 l 175 524 l 179 544 l 176 667 l 178 701 l 175 725 l 176 743 l 174 765 l 175 788 l 172 811 l 174 835 l 172 856 l 178 854 l 186 836 l 204 772 l 207 753 l 260 582 l 269 563 l 272 540 l 282 519 l 294 474 l 304 458 l 310 436 l 319 414 l 331 365 l 361 283 l 365 267 l 389 200 l 393 181 l 403 160 l 408 136 l 436 51 l 444 32 l 464 11 z m 325 -124 l 301 -135 l 285 -157 l 281 -175 l 276 -199 l 272 -221 l 267 -246 l 263 -271 l 254 -292 l 251 -317 l 256 -336 l 271 -350 l 294 -337 l 314 -318 l 322 -297 l 326 -275 l 333 -253 l 339 -237 l 347 -214 l 356 -194 l 360 -175 l 371 -153 l 367 -136 l 349 -124 z "},"Ŋ":{"ha":678,"x_min":0,"x_max":0,"o":"m 428 -357 l 469 -346 l 503 -322 l 536 -290 l 547 -274 l 557 -256 l 563 -233 l 572 -211 l 578 -189 l 578 -167 l 585 -143 l 586 31 l 589 56 l 586 75 l 588 99 l 583 131 l 585 165 l 589 188 l 586 210 l 585 347 l 586 368 l 585 390 l 586 410 l 585 431 l 588 454 l 586 504 l 588 536 l 583 603 l 585 681 l 588 701 l 588 725 l 583 761 l 588 794 l 586 836 l 589 857 l 582 900 l 583 925 l 579 942 l 568 961 l 542 975 l 522 971 l 501 964 l 493 940 l 493 919 l 497 899 l 499 876 l 497 853 l 497 833 l 494 790 l 494 757 l 499 726 l 496 685 l 499 649 l 497 615 l 499 594 l 500 550 l 496 529 l 499 508 l 497 482 l 499 467 l 497 443 l 497 421 l 500 400 l 500 368 l 499 333 l 500 300 l 497 247 l 500 222 l 500 200 l 504 179 l 503 138 l 504 113 l 497 110 l 483 157 l 478 179 l 471 203 l 463 224 l 456 246 l 446 306 l 436 338 l 426 356 l 413 397 l 404 418 l 392 461 l 383 482 l 364 544 l 357 560 l 349 586 l 344 604 l 338 628 l 331 647 l 325 669 l 314 692 l 296 751 l 267 833 l 261 857 l 253 876 l 243 907 l 235 942 l 215 958 l 189 969 l 147 969 l 122 972 l 101 960 l 90 939 l 88 917 l 90 871 l 86 850 l 89 826 l 89 807 l 92 781 l 89 747 l 92 715 l 88 696 l 90 651 l 88 625 l 90 604 l 89 582 l 92 561 l 88 494 l 88 472 l 90 451 l 90 210 l 88 186 l 90 33 l 100 7 l 124 -3 l 144 -3 l 167 13 l 178 31 l 175 56 l 178 74 l 176 124 l 179 210 l 176 256 l 178 275 l 176 322 l 179 339 l 176 364 l 178 390 l 181 411 l 181 454 l 178 479 l 181 525 l 178 547 l 178 565 l 181 590 l 178 611 l 178 719 l 172 765 l 176 789 l 175 814 l 175 854 l 181 861 l 186 839 l 193 814 l 196 796 l 201 774 l 215 731 l 219 708 l 244 622 l 267 560 l 272 542 l 290 499 l 294 475 l 300 457 l 310 436 l 317 415 l 328 372 l 338 349 l 356 283 l 372 243 l 375 221 l 393 179 l 397 158 l 425 69 l 433 49 l 440 26 l 458 8 l 485 -11 l 497 -31 l 497 -124 l 494 -147 l 479 -194 l 476 -215 l 464 -233 l 449 -251 l 431 -269 l 413 -278 l 390 -292 l 383 -318 l 389 -332 l 404 -351 z "},"Ñ":{"ha":678,"x_min":0,"x_max":0,"o":"m 489 -1 l 508 1 l 533 0 l 554 0 l 575 8 l 585 36 l 585 56 l 588 75 l 585 100 l 585 125 l 588 143 l 585 233 l 588 257 l 588 279 l 585 300 l 588 319 l 586 342 l 588 435 l 585 458 l 588 478 l 585 593 l 588 613 l 589 635 l 586 686 l 589 703 l 583 815 l 586 838 l 583 863 l 586 885 l 583 924 l 579 943 l 565 963 l 544 969 l 521 971 l 503 964 l 493 943 l 497 876 l 496 856 l 497 832 l 494 811 l 497 793 l 494 761 l 499 726 l 497 440 l 500 422 l 497 367 l 500 335 l 496 303 l 500 271 l 500 246 l 497 222 l 504 182 l 503 113 l 497 111 l 489 132 l 476 179 l 474 201 l 468 224 l 457 249 l 450 271 l 443 304 l 397 438 l 386 481 l 365 542 l 354 564 l 347 583 l 344 603 l 268 838 l 250 876 l 247 900 l 242 919 l 233 939 l 213 961 l 190 974 l 167 971 l 132 972 l 100 961 l 89 938 l 90 913 l 88 808 l 89 786 l 88 715 l 90 697 l 90 672 l 86 629 l 90 608 l 88 588 l 89 561 l 88 543 l 89 518 l 88 461 l 92 408 l 89 386 l 89 353 l 88 333 l 90 278 l 89 188 l 92 161 l 89 140 l 90 29 l 101 11 l 133 0 l 167 8 l 179 29 l 176 117 l 181 142 l 178 167 l 178 189 l 179 207 l 176 233 l 181 264 l 178 297 l 176 346 l 179 367 l 181 386 l 178 411 l 179 435 l 175 524 l 179 544 l 176 667 l 178 701 l 175 725 l 176 743 l 174 765 l 175 788 l 172 811 l 174 835 l 172 856 l 178 854 l 186 836 l 204 772 l 207 753 l 260 582 l 269 563 l 272 540 l 282 519 l 294 474 l 304 458 l 310 436 l 319 414 l 331 365 l 361 283 l 365 267 l 389 200 l 393 181 l 403 160 l 408 136 l 436 51 l 444 32 l 464 11 z m 407 1058 l 436 1065 l 458 1075 l 472 1089 l 479 1113 l 461 1131 l 435 1121 l 401 1118 l 371 1122 l 350 1129 l 332 1143 l 314 1144 l 281 1150 l 251 1149 l 231 1133 l 217 1122 l 211 1094 l 229 1075 l 254 1083 l 285 1090 l 317 1086 l 336 1081 l 356 1072 l 376 1060 z "},"O":{"ha":642,"x_min":0,"x_max":0,"o":"m 286 -15 l 318 -14 l 351 -14 l 375 -11 l 396 -4 l 417 -3 l 433 6 l 468 29 l 485 44 l 500 65 l 522 100 l 547 164 l 558 210 l 565 251 l 569 319 l 575 342 l 575 388 l 579 431 l 575 565 l 578 588 l 578 610 l 556 771 l 550 794 l 542 815 l 529 854 l 510 893 l 481 926 l 467 939 l 431 960 l 411 969 l 393 974 l 375 979 l 350 983 l 318 986 l 285 983 l 264 981 l 244 976 l 224 968 l 206 958 l 186 946 l 171 933 l 153 922 l 138 904 l 129 881 l 117 867 l 110 843 l 100 828 l 81 761 l 72 693 l 67 671 l 67 650 l 65 626 l 67 603 l 64 585 l 64 446 l 61 426 l 61 407 l 65 383 l 63 357 l 83 196 l 96 153 l 107 135 l 122 93 l 132 76 l 144 58 l 172 31 l 206 6 l 222 -3 l 243 -7 l 265 -14 z m 350 63 l 288 64 l 267 71 l 250 83 l 232 93 l 201 125 l 193 146 l 181 185 l 164 257 l 163 300 l 158 317 l 157 407 l 154 429 l 154 450 l 157 483 l 154 544 l 157 611 l 158 632 l 161 681 l 172 746 l 190 817 l 208 850 l 236 882 l 250 893 l 268 899 l 288 906 l 319 903 l 349 904 l 372 897 l 392 890 l 424 861 l 436 843 l 446 822 l 451 797 l 458 778 l 468 760 l 469 735 l 478 692 l 483 607 l 482 582 l 486 538 l 483 519 l 485 399 l 482 379 l 483 354 l 478 290 l 471 246 l 468 218 l 465 196 l 456 175 l 442 133 l 418 101 l 403 89 l 389 75 l 368 69 z "},"Ó":{"ha":642,"x_min":0,"x_max":0,"o":"m 286 -15 l 318 -14 l 351 -14 l 375 -11 l 396 -4 l 417 -3 l 433 6 l 468 29 l 485 44 l 500 65 l 522 100 l 547 164 l 558 210 l 565 251 l 569 319 l 575 342 l 575 388 l 579 431 l 575 565 l 578 588 l 578 610 l 556 771 l 550 794 l 542 815 l 529 854 l 510 893 l 481 926 l 467 939 l 431 960 l 411 969 l 393 974 l 375 979 l 350 983 l 318 986 l 285 983 l 264 981 l 244 976 l 224 968 l 206 958 l 186 946 l 171 933 l 153 922 l 138 904 l 129 881 l 117 867 l 110 843 l 100 828 l 81 761 l 72 693 l 67 671 l 67 650 l 65 626 l 67 603 l 64 585 l 64 446 l 61 426 l 61 407 l 65 383 l 63 357 l 83 196 l 96 153 l 107 135 l 122 93 l 132 76 l 144 58 l 172 31 l 206 6 l 222 -3 l 243 -7 l 265 -14 z m 350 63 l 288 64 l 267 71 l 250 83 l 232 93 l 201 125 l 193 146 l 181 185 l 164 257 l 163 300 l 158 317 l 157 407 l 154 429 l 154 450 l 157 483 l 154 544 l 157 611 l 158 632 l 161 681 l 172 746 l 190 817 l 208 850 l 236 882 l 250 893 l 268 899 l 288 906 l 319 903 l 349 904 l 372 897 l 392 890 l 424 861 l 436 843 l 446 822 l 451 797 l 458 778 l 468 760 l 469 735 l 478 692 l 483 607 l 482 582 l 486 538 l 483 519 l 485 399 l 482 379 l 483 354 l 478 290 l 471 246 l 468 218 l 465 196 l 456 175 l 442 133 l 418 101 l 403 89 l 389 75 l 368 69 z m 292 1040 l 321 1047 l 344 1069 l 357 1088 l 368 1101 l 382 1121 l 394 1139 l 394 1156 l 383 1169 l 360 1169 l 335 1157 l 311 1140 l 303 1122 l 292 1104 l 274 1068 l 274 1050 z "},"Ô":{"ha":642,"x_min":0,"x_max":0,"o":"m 286 -15 l 318 -14 l 351 -14 l 375 -11 l 396 -4 l 417 -3 l 433 6 l 468 29 l 485 44 l 500 65 l 522 100 l 547 164 l 558 210 l 565 251 l 569 319 l 575 342 l 575 388 l 579 431 l 575 565 l 578 588 l 578 610 l 556 771 l 550 794 l 542 815 l 529 854 l 510 893 l 481 926 l 467 939 l 431 960 l 411 969 l 393 974 l 375 979 l 350 983 l 318 986 l 285 983 l 264 981 l 244 976 l 224 968 l 206 958 l 186 946 l 171 933 l 153 922 l 138 904 l 129 881 l 117 867 l 110 843 l 100 828 l 81 761 l 72 693 l 67 671 l 67 650 l 65 626 l 67 603 l 64 585 l 64 446 l 61 426 l 61 407 l 65 383 l 63 357 l 83 196 l 96 153 l 107 135 l 122 93 l 132 76 l 144 58 l 172 31 l 206 6 l 222 -3 l 243 -7 l 265 -14 z m 350 63 l 288 64 l 267 71 l 250 83 l 232 93 l 201 125 l 193 146 l 181 185 l 164 257 l 163 300 l 158 317 l 157 407 l 154 429 l 154 450 l 157 483 l 154 544 l 157 611 l 158 632 l 161 681 l 172 746 l 190 817 l 208 850 l 236 882 l 250 893 l 268 899 l 288 906 l 319 903 l 349 904 l 372 897 l 392 890 l 424 861 l 436 843 l 446 822 l 451 797 l 458 778 l 468 760 l 469 735 l 478 692 l 483 607 l 482 582 l 486 538 l 483 519 l 485 399 l 482 379 l 483 354 l 478 290 l 471 246 l 468 218 l 465 196 l 456 175 l 442 133 l 418 101 l 403 89 l 389 75 l 368 69 z m 419 1039 l 440 1040 l 457 1044 l 451 1064 l 439 1081 l 417 1103 l 397 1125 l 383 1144 l 358 1160 l 329 1168 l 306 1167 l 278 1158 l 250 1144 l 238 1124 l 222 1113 l 208 1096 l 197 1083 l 181 1064 l 181 1043 l 196 1039 l 217 1042 l 243 1047 l 268 1064 l 285 1081 l 294 1100 l 318 1110 l 338 1100 l 354 1085 l 368 1067 l 392 1047 z "},"Ö":{"ha":642,"x_min":0,"x_max":0,"o":"m 286 -15 l 318 -14 l 351 -14 l 375 -11 l 396 -4 l 417 -3 l 433 6 l 468 29 l 485 44 l 500 65 l 522 100 l 547 164 l 558 210 l 565 251 l 569 319 l 575 342 l 575 388 l 579 431 l 575 565 l 578 588 l 578 610 l 556 771 l 550 794 l 542 815 l 529 854 l 510 893 l 481 926 l 467 939 l 431 960 l 411 969 l 393 974 l 375 979 l 350 983 l 318 986 l 285 983 l 264 981 l 244 976 l 224 968 l 206 958 l 186 946 l 171 933 l 153 922 l 138 904 l 129 881 l 117 867 l 110 843 l 100 828 l 81 761 l 72 693 l 67 671 l 67 650 l 65 626 l 67 603 l 64 585 l 64 446 l 61 426 l 61 407 l 65 383 l 63 357 l 83 196 l 96 153 l 107 135 l 122 93 l 132 76 l 144 58 l 172 31 l 206 6 l 222 -3 l 243 -7 l 265 -14 z m 350 63 l 288 64 l 267 71 l 250 83 l 232 93 l 201 125 l 193 146 l 181 185 l 164 257 l 163 300 l 158 317 l 157 407 l 154 429 l 154 450 l 157 483 l 154 544 l 157 611 l 158 632 l 161 681 l 172 746 l 190 817 l 208 850 l 236 882 l 250 893 l 268 899 l 288 906 l 319 903 l 349 904 l 372 897 l 392 890 l 424 861 l 436 843 l 446 822 l 451 797 l 458 778 l 468 760 l 469 735 l 478 692 l 483 607 l 482 582 l 486 538 l 483 519 l 485 399 l 482 379 l 483 354 l 478 290 l 471 246 l 468 218 l 465 196 l 456 175 l 442 133 l 418 101 l 403 89 l 389 75 l 368 69 z m 397 1054 l 422 1057 l 440 1068 l 444 1101 l 439 1131 l 426 1147 l 396 1153 l 368 1143 l 353 1129 l 347 1101 l 354 1074 l 365 1060 z m 233 1057 l 260 1063 l 272 1074 l 281 1104 l 275 1131 l 261 1149 l 235 1151 l 204 1140 l 189 1128 l 185 1103 l 189 1072 l 204 1064 z "},"Ò":{"ha":642,"x_min":0,"x_max":0,"o":"m 286 -15 l 318 -14 l 351 -14 l 375 -11 l 396 -4 l 417 -3 l 433 6 l 468 29 l 485 44 l 500 65 l 522 100 l 547 164 l 558 210 l 565 251 l 569 319 l 575 342 l 575 388 l 579 431 l 575 565 l 578 588 l 578 610 l 556 771 l 550 794 l 542 815 l 529 854 l 510 893 l 481 926 l 467 939 l 431 960 l 411 969 l 393 974 l 375 979 l 350 983 l 318 986 l 285 983 l 264 981 l 244 976 l 224 968 l 206 958 l 186 946 l 171 933 l 153 922 l 138 904 l 129 881 l 117 867 l 110 843 l 100 828 l 81 761 l 72 693 l 67 671 l 67 650 l 65 626 l 67 603 l 64 585 l 64 446 l 61 426 l 61 407 l 65 383 l 63 357 l 83 196 l 96 153 l 107 135 l 122 93 l 132 76 l 144 58 l 172 31 l 206 6 l 222 -3 l 243 -7 l 265 -14 z m 350 63 l 288 64 l 267 71 l 250 83 l 232 93 l 201 125 l 193 146 l 181 185 l 164 257 l 163 300 l 158 317 l 157 407 l 154 429 l 154 450 l 157 483 l 154 544 l 157 611 l 158 632 l 161 681 l 172 746 l 190 817 l 208 850 l 236 882 l 250 893 l 268 899 l 288 906 l 319 903 l 349 904 l 372 897 l 392 890 l 424 861 l 436 843 l 446 822 l 451 797 l 458 778 l 468 760 l 469 735 l 478 692 l 483 607 l 482 582 l 486 538 l 483 519 l 485 399 l 482 379 l 483 354 l 478 290 l 471 246 l 468 218 l 465 196 l 456 175 l 442 133 l 418 101 l 403 89 l 389 75 l 368 69 z m 321 1038 l 338 1047 l 339 1068 l 325 1086 l 318 1106 l 308 1122 l 299 1139 l 279 1160 l 253 1171 l 226 1168 l 211 1158 l 213 1143 l 225 1118 l 242 1103 l 250 1083 l 263 1069 l 288 1051 z "},"Ő":{"ha":642,"x_min":0,"x_max":0,"o":"m 286 -15 l 318 -14 l 351 -14 l 375 -11 l 396 -4 l 417 -3 l 433 6 l 468 29 l 485 44 l 500 65 l 522 100 l 547 164 l 558 210 l 565 251 l 569 319 l 575 342 l 575 388 l 579 431 l 575 565 l 578 588 l 578 610 l 556 771 l 550 794 l 542 815 l 529 854 l 510 893 l 481 926 l 467 939 l 431 960 l 411 969 l 393 974 l 375 979 l 350 983 l 318 986 l 285 983 l 264 981 l 244 976 l 224 968 l 206 958 l 186 946 l 171 933 l 153 922 l 138 904 l 129 881 l 117 867 l 110 843 l 100 828 l 81 761 l 72 693 l 67 671 l 67 650 l 65 626 l 67 603 l 64 585 l 64 446 l 61 426 l 61 407 l 65 383 l 63 357 l 83 196 l 96 153 l 107 135 l 122 93 l 132 76 l 144 58 l 172 31 l 206 6 l 222 -3 l 243 -7 l 265 -14 z m 350 63 l 288 64 l 267 71 l 250 83 l 232 93 l 201 125 l 193 146 l 181 185 l 164 257 l 163 300 l 158 317 l 157 407 l 154 429 l 154 450 l 157 483 l 154 544 l 157 611 l 158 632 l 161 681 l 172 746 l 190 817 l 208 850 l 236 882 l 250 893 l 268 899 l 288 906 l 319 903 l 349 904 l 372 897 l 392 890 l 424 861 l 436 843 l 446 822 l 451 797 l 458 778 l 468 760 l 469 735 l 478 692 l 483 607 l 482 582 l 486 538 l 483 519 l 485 399 l 482 379 l 483 354 l 478 290 l 471 246 l 468 218 l 465 196 l 456 175 l 442 133 l 418 101 l 403 89 l 389 75 l 368 69 z m 253 1042 l 274 1047 l 296 1071 l 307 1094 l 317 1117 l 325 1133 l 325 1158 l 303 1171 l 274 1157 l 256 1138 l 246 1118 l 239 1093 l 233 1067 l 238 1050 z m 368 1042 l 393 1053 l 410 1071 l 419 1093 l 429 1115 l 438 1138 l 436 1154 l 414 1167 l 386 1157 l 368 1138 l 360 1114 l 354 1092 l 347 1069 l 351 1049 z "},"Ō":{"ha":642,"x_min":0,"x_max":0,"o":"m 286 -15 l 318 -14 l 351 -14 l 375 -11 l 396 -4 l 417 -3 l 433 6 l 468 29 l 485 44 l 500 65 l 522 100 l 547 164 l 558 210 l 565 251 l 569 319 l 575 342 l 575 388 l 579 431 l 575 565 l 578 588 l 578 610 l 556 771 l 550 794 l 542 815 l 529 854 l 510 893 l 481 926 l 467 939 l 431 960 l 411 969 l 393 974 l 375 979 l 350 983 l 318 986 l 285 983 l 264 981 l 244 976 l 224 968 l 206 958 l 186 946 l 171 933 l 153 922 l 138 904 l 129 881 l 117 867 l 110 843 l 100 828 l 81 761 l 72 693 l 67 671 l 67 650 l 65 626 l 67 603 l 64 585 l 64 446 l 61 426 l 61 407 l 65 383 l 63 357 l 83 196 l 96 153 l 107 135 l 122 93 l 132 76 l 144 58 l 172 31 l 206 6 l 222 -3 l 243 -7 l 265 -14 z m 350 63 l 288 64 l 267 71 l 250 83 l 232 93 l 201 125 l 193 146 l 181 185 l 164 257 l 163 300 l 158 317 l 157 407 l 154 429 l 154 450 l 157 483 l 154 544 l 157 611 l 158 632 l 161 681 l 172 746 l 190 817 l 208 850 l 236 882 l 250 893 l 268 899 l 288 906 l 319 903 l 349 904 l 372 897 l 392 890 l 424 861 l 436 843 l 446 822 l 451 797 l 458 778 l 468 760 l 469 735 l 478 692 l 483 607 l 482 582 l 486 538 l 483 519 l 485 399 l 482 379 l 483 354 l 478 290 l 471 246 l 468 218 l 465 196 l 456 175 l 442 133 l 418 101 l 403 89 l 389 75 l 368 69 z m 244 1060 l 269 1065 l 289 1064 l 325 1063 l 358 1061 l 378 1064 l 403 1064 l 425 1065 l 449 1075 l 460 1096 l 449 1114 l 422 1126 l 390 1126 l 360 1126 l 336 1122 l 313 1124 l 292 1121 l 269 1125 l 246 1124 l 225 1124 l 204 1124 l 181 1115 l 169 1097 l 178 1074 l 201 1067 l 225 1067 z "},"Ø":{"ha":699,"x_min":0,"x_max":0,"o":"m 357 -17 l 411 -11 l 442 -6 l 469 7 l 490 18 l 506 31 l 522 49 l 549 83 l 560 103 l 567 125 l 575 144 l 583 165 l 604 278 l 604 293 l 608 318 l 608 343 l 614 383 l 611 428 l 615 486 l 611 540 l 613 565 l 613 588 l 608 614 l 610 633 l 607 658 l 603 678 l 603 703 l 590 765 l 589 793 l 581 810 l 581 840 l 588 872 l 597 888 l 606 913 l 618 933 l 617 958 l 593 968 l 540 918 l 518 925 l 504 938 l 469 960 l 450 967 l 431 971 l 408 982 l 356 986 l 301 976 l 283 978 l 229 954 l 204 938 l 192 918 l 176 904 l 135 824 l 129 803 l 125 782 l 118 758 l 117 742 l 110 717 l 94 447 l 100 425 l 100 406 l 99 383 l 101 358 l 100 336 l 106 315 l 108 271 l 117 228 l 118 203 l 125 183 l 125 154 l 117 131 l 106 108 l 94 89 l 86 69 l 76 50 l 76 25 l 99 10 l 121 25 l 133 43 l 140 64 l 158 76 l 176 63 l 190 49 l 204 31 l 221 18 l 239 11 l 260 -4 l 281 -8 l 301 -14 z m 326 65 l 304 71 l 288 82 l 240 119 l 231 139 l 224 164 l 221 193 l 229 221 l 274 303 l 286 321 l 304 360 l 319 378 l 329 403 l 428 579 l 435 597 l 453 629 l 467 661 l 479 682 l 492 699 l 503 708 l 508 699 l 514 675 l 515 654 l 519 632 l 518 583 l 521 563 l 521 538 l 518 514 l 522 426 l 521 401 l 521 378 l 517 358 l 517 307 l 511 288 l 511 267 l 506 240 l 506 219 l 499 196 l 494 171 l 486 151 l 481 133 l 457 100 l 443 90 l 424 75 l 385 65 z m 201 299 l 197 311 l 196 331 l 192 354 l 190 381 l 193 404 l 190 425 l 190 515 l 188 539 l 194 615 l 192 635 l 196 658 l 199 683 l 210 749 l 213 771 l 232 832 l 242 849 l 256 868 l 274 883 l 289 889 l 306 900 l 325 904 l 358 904 l 390 907 l 449 871 l 463 858 l 476 838 l 479 806 l 471 776 l 449 738 l 442 718 l 367 578 l 353 563 l 344 538 l 336 521 l 324 503 l 279 422 l 269 401 l 257 383 l 214 304 z "},"Õ":{"ha":642,"x_min":0,"x_max":0,"o":"m 286 -15 l 318 -14 l 351 -14 l 375 -11 l 396 -4 l 417 -3 l 433 6 l 468 29 l 485 44 l 500 65 l 522 100 l 547 164 l 558 210 l 565 251 l 569 319 l 575 342 l 575 388 l 579 431 l 575 565 l 578 588 l 578 610 l 556 771 l 550 794 l 542 815 l 529 854 l 510 893 l 481 926 l 467 939 l 431 960 l 411 969 l 393 974 l 375 979 l 350 983 l 318 986 l 285 983 l 264 981 l 244 976 l 224 968 l 206 958 l 186 946 l 171 933 l 153 922 l 138 904 l 129 881 l 117 867 l 110 843 l 100 828 l 81 761 l 72 693 l 67 671 l 67 650 l 65 626 l 67 603 l 64 585 l 64 446 l 61 426 l 61 407 l 65 383 l 63 357 l 83 196 l 96 153 l 107 135 l 122 93 l 132 76 l 144 58 l 172 31 l 206 6 l 222 -3 l 243 -7 l 265 -14 z m 350 63 l 288 64 l 267 71 l 250 83 l 232 93 l 201 125 l 193 146 l 181 185 l 164 257 l 163 300 l 158 317 l 157 407 l 154 429 l 154 450 l 157 483 l 154 544 l 157 611 l 158 632 l 161 681 l 172 746 l 190 817 l 208 850 l 236 882 l 250 893 l 268 899 l 288 906 l 319 903 l 349 904 l 372 897 l 392 890 l 424 861 l 436 843 l 446 822 l 451 797 l 458 778 l 468 760 l 469 735 l 478 692 l 483 607 l 482 582 l 486 538 l 483 519 l 485 399 l 482 379 l 483 354 l 478 290 l 471 246 l 468 218 l 465 196 l 456 175 l 442 133 l 418 101 l 403 89 l 389 75 l 368 69 z m 374 1058 l 403 1065 l 425 1075 l 439 1089 l 446 1113 l 428 1131 l 401 1121 l 368 1118 l 338 1122 l 317 1129 l 299 1143 l 281 1144 l 247 1150 l 218 1149 l 197 1133 l 183 1122 l 178 1094 l 196 1075 l 221 1083 l 251 1090 l 283 1086 l 303 1081 l 322 1072 l 343 1060 z "},"Œ":{"ha":847,"x_min":0,"x_max":0,"o":"m 449 -6 l 518 -3 l 538 -3 l 561 0 l 743 0 l 763 10 l 778 26 l 778 49 l 768 64 l 747 75 l 721 76 l 700 75 l 658 78 l 638 76 l 614 78 l 590 72 l 572 78 l 551 78 l 529 88 l 518 119 l 515 199 l 518 219 l 515 247 l 517 269 l 513 288 l 515 313 l 515 376 l 514 401 l 514 422 l 525 446 l 549 458 l 569 457 l 603 454 l 628 458 l 660 457 l 681 456 l 706 457 l 729 456 l 750 468 l 763 497 l 751 519 l 726 536 l 704 531 l 663 536 l 638 531 l 604 531 l 572 535 l 549 533 l 524 542 l 517 568 l 515 725 l 517 746 l 515 771 l 515 790 l 517 815 l 513 839 l 517 860 l 528 881 l 547 892 l 572 890 l 613 896 l 638 892 l 678 894 l 701 892 l 722 892 l 747 893 l 765 901 l 778 919 l 774 940 l 765 960 l 742 972 l 721 971 l 696 974 l 675 968 l 651 971 l 632 968 l 572 975 l 540 971 l 519 972 l 496 971 l 474 972 l 451 967 l 429 971 l 406 969 l 379 974 l 346 974 l 292 968 l 274 961 l 253 957 l 210 939 l 193 931 l 158 899 l 147 878 l 122 844 l 96 782 l 92 760 l 85 742 l 75 671 l 69 651 l 67 628 l 67 588 l 64 564 l 64 538 l 61 514 l 61 486 l 64 449 l 63 401 l 67 379 l 65 357 l 69 335 l 71 310 l 75 286 l 78 267 l 85 246 l 88 219 l 107 157 l 117 136 l 125 115 l 138 100 l 149 78 l 163 64 l 179 53 l 193 36 l 275 6 l 350 -4 l 383 1 l 404 -1 l 425 -3 z m 317 72 l 296 78 l 257 97 l 238 115 l 210 146 l 192 188 l 186 211 l 176 228 l 168 300 l 161 319 l 163 343 l 161 364 l 157 383 l 158 426 l 156 450 l 153 540 l 157 590 l 157 613 l 163 632 l 164 660 l 168 679 l 171 706 l 182 746 l 185 769 l 204 811 l 218 828 l 228 843 l 260 874 l 278 879 l 294 889 l 381 894 l 403 890 l 421 885 l 431 860 l 433 817 l 431 797 l 429 775 l 432 749 l 429 707 l 431 686 l 435 665 l 431 592 l 433 574 l 433 551 l 431 528 l 432 288 l 433 267 l 429 242 l 432 217 l 433 171 l 431 128 l 432 110 l 424 86 l 401 72 l 378 76 l 347 72 z "},"P":{"ha":610,"x_min":0,"x_max":0,"o":"m 149 -4 l 171 8 l 182 40 l 181 136 l 183 156 l 183 311 l 181 332 l 192 354 l 210 364 l 342 372 l 404 390 l 442 411 l 460 429 l 478 443 l 493 460 l 519 496 l 529 514 l 550 575 l 554 596 l 554 618 l 561 642 l 563 675 l 551 778 l 546 803 l 528 843 l 519 864 l 507 882 l 475 918 l 461 931 l 440 939 l 418 951 l 397 960 l 375 963 l 354 969 l 329 968 l 297 972 l 263 968 l 236 972 l 192 972 l 168 969 l 147 969 l 125 974 l 103 960 l 90 933 l 92 892 l 88 869 l 89 851 l 88 828 l 90 801 l 89 718 l 90 697 l 89 675 l 93 651 l 89 626 l 92 606 l 93 574 l 89 517 l 90 496 l 89 460 l 90 374 l 88 342 l 89 318 l 93 296 l 89 274 l 92 251 l 89 231 l 90 206 l 89 183 l 92 163 l 89 32 l 103 7 l 125 0 z m 250 439 l 214 442 l 190 454 l 179 478 l 185 529 l 181 565 l 183 592 l 181 636 l 182 657 l 181 679 l 182 701 l 181 733 l 183 839 l 183 858 l 192 883 l 213 897 l 235 893 l 256 892 l 288 894 l 340 890 l 365 882 l 385 878 l 417 851 l 431 831 l 446 797 l 456 767 l 460 749 l 464 707 l 465 640 l 461 618 l 460 594 l 446 547 l 433 531 l 424 510 l 390 475 l 369 464 l 349 458 l 326 449 l 282 440 z "},"Þ":{"ha":624,"x_min":0,"x_max":0,"o":"m 135 -3 l 171 11 l 181 35 l 179 56 l 182 126 l 181 146 l 183 183 l 193 213 l 210 226 l 233 226 l 265 224 l 318 231 l 338 231 l 358 235 l 381 243 l 403 249 l 422 260 l 439 271 l 460 281 l 506 329 l 528 363 l 544 404 l 550 428 l 551 446 l 554 468 l 561 492 l 558 557 l 554 581 l 546 649 l 536 671 l 529 690 l 519 710 l 507 728 l 476 764 l 458 778 l 438 790 l 418 799 l 353 818 l 329 815 l 296 818 l 261 817 l 228 819 l 190 829 l 181 853 l 181 896 l 179 915 l 182 936 l 171 964 l 144 972 l 121 972 l 99 960 l 90 938 l 88 921 l 89 896 l 89 871 l 86 853 l 89 717 l 92 694 l 89 674 l 90 626 l 86 597 l 89 521 l 88 496 l 90 475 l 88 108 l 90 78 l 88 32 l 99 8 z m 247 300 l 215 301 l 192 317 l 182 335 l 182 381 l 181 400 l 181 515 l 182 532 l 179 556 l 181 576 l 179 653 l 182 685 l 179 710 l 192 733 l 211 742 l 233 740 l 289 744 l 340 736 l 363 729 l 383 719 l 417 697 l 429 682 l 440 663 l 449 644 l 465 575 l 468 488 l 461 468 l 458 443 l 453 419 l 432 381 l 406 346 l 390 333 l 328 307 l 303 303 l 281 306 z "},"Q":{"ha":663,"x_min":0,"x_max":0,"o":"m 542 -111 l 568 -108 l 593 -87 l 594 -64 l 581 -42 l 561 -36 l 543 -25 l 524 -17 l 492 10 l 482 31 l 490 50 l 501 68 l 513 83 l 525 106 l 531 129 l 544 165 l 564 253 l 564 274 l 572 319 l 572 343 l 574 364 l 572 388 l 576 411 l 575 450 l 579 515 l 576 542 l 576 592 l 567 679 l 536 838 l 528 860 l 479 929 l 465 942 l 449 951 l 411 969 l 351 982 l 318 986 l 285 982 l 267 983 l 204 960 l 183 950 l 138 903 l 126 886 l 115 864 l 85 782 l 76 736 l 75 715 l 71 696 l 69 671 l 65 651 l 61 563 l 58 494 l 61 382 l 65 354 l 67 338 l 67 311 l 68 288 l 79 219 l 82 197 l 103 132 l 113 117 l 119 93 l 131 75 l 174 31 l 186 19 l 224 0 l 244 -4 l 263 -12 l 286 -18 l 353 -15 l 383 -21 l 411 -29 l 433 -53 l 461 -65 l 501 -92 l 521 -103 z m 288 67 l 267 69 l 229 89 l 215 106 l 201 126 l 194 143 l 183 165 l 171 213 l 171 232 l 165 253 l 157 367 l 153 386 l 151 453 l 153 528 l 157 613 l 156 636 l 172 771 l 189 817 l 218 868 l 233 881 l 249 889 l 269 896 l 289 904 l 318 907 l 351 903 l 392 888 l 433 844 l 444 822 l 458 781 l 476 692 l 478 649 l 481 629 l 485 558 l 483 540 l 482 519 l 485 482 l 483 451 l 485 431 l 481 376 l 481 333 l 478 288 l 474 267 l 472 243 l 468 222 l 442 133 l 428 117 l 419 101 l 404 88 l 388 78 l 368 74 l 350 68 z "},"R":{"ha":607,"x_min":0,"x_max":0,"o":"m 518 -4 l 536 1 l 551 21 l 550 40 l 542 63 l 524 101 l 515 129 l 492 182 l 483 207 l 478 225 l 468 246 l 461 264 l 456 285 l 446 303 l 415 389 l 411 414 l 421 436 l 439 451 l 458 464 l 476 476 l 493 492 l 503 510 l 517 529 l 528 550 l 543 590 l 547 615 l 549 639 l 551 660 l 556 685 l 558 718 l 551 746 l 547 790 l 535 836 l 519 857 l 513 872 l 497 888 l 482 906 l 465 919 l 428 940 l 406 950 l 388 956 l 363 965 l 344 963 l 314 967 l 278 968 l 250 972 l 229 967 l 206 972 l 179 974 l 154 968 l 117 967 l 92 949 l 88 925 l 92 882 l 90 861 l 86 839 l 90 808 l 90 772 l 86 749 l 85 729 l 90 707 l 90 683 l 86 661 l 86 617 l 90 594 l 92 485 l 88 443 l 90 419 l 90 397 l 86 372 l 90 296 l 89 269 l 89 243 l 85 190 l 86 151 l 90 111 l 88 61 l 89 43 l 93 21 l 110 6 l 132 -1 l 156 3 l 172 21 l 179 40 l 181 294 l 179 318 l 179 339 l 176 361 l 181 386 l 199 403 l 219 404 l 267 401 l 292 401 l 310 383 l 325 363 l 333 344 l 346 300 l 356 282 l 374 240 l 379 222 l 397 182 l 403 163 l 413 143 l 418 121 l 428 100 l 433 78 l 447 43 l 463 17 l 488 0 z m 231 481 l 203 485 l 186 503 l 179 525 l 178 546 l 179 568 l 176 586 l 178 613 l 176 644 l 179 700 l 176 724 l 178 756 l 181 783 l 179 829 l 178 847 l 188 874 l 201 886 l 221 893 l 244 896 l 304 892 l 358 881 l 378 874 l 394 864 l 414 847 l 451 792 l 458 771 l 463 682 l 461 649 l 456 629 l 456 606 l 447 582 l 417 528 l 400 515 l 381 506 l 358 493 l 336 488 l 317 486 l 296 481 z "},"Ŕ":{"ha":607,"x_min":0,"x_max":0,"o":"m 518 -4 l 536 1 l 551 21 l 550 40 l 542 63 l 524 101 l 515 129 l 492 182 l 483 207 l 478 225 l 468 246 l 461 264 l 456 285 l 446 303 l 415 389 l 411 414 l 421 436 l 439 451 l 458 464 l 476 476 l 493 492 l 503 510 l 517 529 l 528 550 l 543 590 l 547 615 l 549 639 l 551 660 l 556 685 l 558 718 l 551 746 l 547 790 l 535 836 l 519 857 l 513 872 l 497 888 l 482 906 l 465 919 l 428 940 l 406 950 l 388 956 l 363 965 l 344 963 l 314 967 l 278 968 l 250 972 l 229 967 l 206 972 l 179 974 l 154 968 l 117 967 l 92 949 l 88 925 l 92 882 l 90 861 l 86 839 l 90 808 l 90 772 l 86 749 l 85 729 l 90 707 l 90 683 l 86 661 l 86 617 l 90 594 l 92 485 l 88 443 l 90 419 l 90 397 l 86 372 l 90 296 l 89 269 l 89 243 l 85 190 l 86 151 l 90 111 l 88 61 l 89 43 l 93 21 l 110 6 l 132 -1 l 156 3 l 172 21 l 179 40 l 181 294 l 179 318 l 179 339 l 176 361 l 181 386 l 199 403 l 219 404 l 267 401 l 292 401 l 310 383 l 325 363 l 333 344 l 346 300 l 356 282 l 374 240 l 379 222 l 397 182 l 403 163 l 413 143 l 418 121 l 428 100 l 433 78 l 447 43 l 463 17 l 488 0 z m 231 481 l 203 485 l 186 503 l 179 525 l 178 546 l 179 568 l 176 586 l 178 613 l 176 644 l 179 700 l 176 724 l 178 756 l 181 783 l 179 829 l 178 847 l 188 874 l 201 886 l 221 893 l 244 896 l 304 892 l 358 881 l 378 874 l 394 864 l 414 847 l 451 792 l 458 771 l 463 682 l 461 649 l 456 629 l 456 606 l 447 582 l 417 528 l 400 515 l 381 506 l 358 493 l 336 488 l 317 486 l 296 481 z m 240 1040 l 269 1047 l 293 1069 l 306 1088 l 317 1101 l 331 1121 l 343 1139 l 343 1156 l 332 1169 l 308 1169 l 283 1157 l 260 1140 l 251 1122 l 240 1104 l 222 1068 l 222 1050 z "},"Ř":{"ha":607,"x_min":0,"x_max":0,"o":"m 518 -4 l 536 1 l 551 21 l 550 40 l 542 63 l 524 101 l 515 129 l 492 182 l 483 207 l 478 225 l 468 246 l 461 264 l 456 285 l 446 303 l 415 389 l 411 414 l 421 436 l 439 451 l 458 464 l 476 476 l 493 492 l 503 510 l 517 529 l 528 550 l 543 590 l 547 615 l 549 639 l 551 660 l 556 685 l 558 718 l 551 746 l 547 790 l 535 836 l 519 857 l 513 872 l 497 888 l 482 906 l 465 919 l 428 940 l 406 950 l 388 956 l 363 965 l 344 963 l 314 967 l 278 968 l 250 972 l 229 967 l 206 972 l 179 974 l 154 968 l 117 967 l 92 949 l 88 925 l 92 882 l 90 861 l 86 839 l 90 808 l 90 772 l 86 749 l 85 729 l 90 707 l 90 683 l 86 661 l 86 617 l 90 594 l 92 485 l 88 443 l 90 419 l 90 397 l 86 372 l 90 296 l 89 269 l 89 243 l 85 190 l 86 151 l 90 111 l 88 61 l 89 43 l 93 21 l 110 6 l 132 -1 l 156 3 l 172 21 l 179 40 l 181 294 l 179 318 l 179 339 l 176 361 l 181 386 l 199 403 l 219 404 l 267 401 l 292 401 l 310 383 l 325 363 l 333 344 l 346 300 l 356 282 l 374 240 l 379 222 l 397 182 l 403 163 l 413 143 l 418 121 l 428 100 l 433 78 l 447 43 l 463 17 l 488 0 z m 231 481 l 203 485 l 186 503 l 179 525 l 178 546 l 179 568 l 176 586 l 178 613 l 176 644 l 179 700 l 176 724 l 178 756 l 181 783 l 179 829 l 178 847 l 188 874 l 201 886 l 221 893 l 244 896 l 304 892 l 358 881 l 378 874 l 394 864 l 414 847 l 451 792 l 458 771 l 463 682 l 461 649 l 456 629 l 456 606 l 447 582 l 417 528 l 400 515 l 381 506 l 358 493 l 336 488 l 317 486 l 296 481 z m 253 1039 l 276 1039 l 303 1046 l 329 1063 l 343 1079 l 357 1093 l 367 1111 l 381 1126 l 394 1143 l 394 1163 l 376 1168 l 344 1160 l 319 1143 l 306 1124 l 288 1106 l 267 1097 l 243 1110 l 226 1124 l 211 1144 l 185 1160 l 153 1169 l 133 1158 l 133 1140 l 150 1126 l 171 1103 l 188 1081 l 204 1064 l 225 1049 z "},"Ŗ":{"ha":607,"x_min":0,"x_max":0,"o":"m 518 -4 l 536 1 l 551 21 l 550 40 l 542 63 l 524 101 l 515 129 l 492 182 l 483 207 l 478 225 l 468 246 l 461 264 l 456 285 l 446 303 l 415 389 l 411 414 l 421 436 l 439 451 l 458 464 l 476 476 l 493 492 l 503 510 l 517 529 l 528 550 l 543 590 l 547 615 l 549 639 l 551 660 l 556 685 l 558 718 l 551 746 l 547 790 l 535 836 l 519 857 l 513 872 l 497 888 l 482 906 l 465 919 l 428 940 l 406 950 l 388 956 l 363 965 l 344 963 l 314 967 l 278 968 l 250 972 l 229 967 l 206 972 l 179 974 l 154 968 l 117 967 l 92 949 l 88 925 l 92 882 l 90 861 l 86 839 l 90 808 l 90 772 l 86 749 l 85 729 l 90 707 l 90 683 l 86 661 l 86 617 l 90 594 l 92 485 l 88 443 l 90 419 l 90 397 l 86 372 l 90 296 l 89 269 l 89 243 l 85 190 l 86 151 l 90 111 l 88 61 l 89 43 l 93 21 l 110 6 l 132 -1 l 156 3 l 172 21 l 179 40 l 181 294 l 179 318 l 179 339 l 176 361 l 181 386 l 199 403 l 219 404 l 267 401 l 292 401 l 310 383 l 325 363 l 333 344 l 346 300 l 356 282 l 374 240 l 379 222 l 397 182 l 403 163 l 413 143 l 418 121 l 428 100 l 433 78 l 447 43 l 463 17 l 488 0 z m 231 481 l 203 485 l 186 503 l 179 525 l 178 546 l 179 568 l 176 586 l 178 613 l 176 644 l 179 700 l 176 724 l 178 756 l 181 783 l 179 829 l 178 847 l 188 874 l 201 886 l 221 893 l 244 896 l 304 892 l 358 881 l 378 874 l 394 864 l 414 847 l 451 792 l 458 771 l 463 682 l 461 649 l 456 629 l 456 606 l 447 582 l 417 528 l 400 515 l 381 506 l 358 493 l 336 488 l 317 486 l 296 481 z m 307 -124 l 283 -135 l 267 -157 l 263 -175 l 258 -199 l 254 -221 l 249 -246 l 244 -271 l 236 -292 l 233 -317 l 238 -336 l 253 -350 l 276 -337 l 296 -318 l 304 -297 l 308 -275 l 315 -253 l 321 -237 l 329 -214 l 338 -194 l 342 -175 l 353 -153 l 349 -136 l 331 -124 z "},"S":{"ha":585,"x_min":0,"x_max":0,"o":"m 278 -15 l 335 -10 l 379 1 l 400 8 l 436 35 l 453 50 l 465 67 l 483 81 l 497 103 l 504 121 l 514 142 l 521 163 l 525 183 l 529 203 l 533 226 l 536 260 l 535 294 l 529 318 l 529 338 l 514 381 l 503 399 l 490 418 l 478 440 l 415 499 l 342 549 l 265 592 l 208 635 l 196 654 l 182 671 l 175 692 l 164 711 l 163 797 l 167 822 l 179 838 l 190 858 l 204 872 l 222 886 l 260 903 l 292 908 l 326 906 l 349 899 l 372 899 l 396 888 l 413 875 l 442 868 l 468 888 l 474 915 l 463 938 l 419 963 l 400 971 l 356 982 l 329 985 l 294 983 l 261 981 l 231 981 l 197 969 l 176 960 l 163 944 l 143 935 l 125 917 l 108 906 l 97 889 l 74 824 l 68 769 l 71 738 l 76 696 l 93 651 l 124 601 l 157 571 l 171 550 l 192 540 l 226 514 l 303 471 l 321 457 l 340 446 l 389 400 l 415 367 l 424 350 l 432 325 l 439 310 l 440 283 l 439 250 l 439 218 l 435 199 l 429 178 l 421 154 l 413 136 l 399 119 l 383 103 l 346 78 l 304 65 l 272 60 l 236 65 l 215 67 l 192 71 l 131 96 l 111 108 l 90 114 l 68 99 l 63 71 l 74 49 l 93 32 l 131 11 l 156 1 l 179 -4 l 199 -6 l 224 -12 l 246 -11 z "},"Ś":{"ha":585,"x_min":0,"x_max":0,"o":"m 278 -15 l 335 -10 l 379 1 l 400 8 l 436 35 l 453 50 l 465 67 l 483 81 l 497 103 l 504 121 l 514 142 l 521 163 l 525 183 l 529 203 l 533 226 l 536 260 l 535 294 l 529 318 l 529 338 l 514 381 l 503 399 l 490 418 l 478 440 l 415 499 l 342 549 l 265 592 l 208 635 l 196 654 l 182 671 l 175 692 l 164 711 l 163 797 l 167 822 l 179 838 l 190 858 l 204 872 l 222 886 l 260 903 l 292 908 l 326 906 l 349 899 l 372 899 l 396 888 l 413 875 l 442 868 l 468 888 l 474 915 l 463 938 l 419 963 l 400 971 l 356 982 l 329 985 l 294 983 l 261 981 l 231 981 l 197 969 l 176 960 l 163 944 l 143 935 l 125 917 l 108 906 l 97 889 l 74 824 l 68 769 l 71 738 l 76 696 l 93 651 l 124 601 l 157 571 l 171 550 l 192 540 l 226 514 l 303 471 l 321 457 l 340 446 l 389 400 l 415 367 l 424 350 l 432 325 l 439 310 l 440 283 l 439 250 l 439 218 l 435 199 l 429 178 l 421 154 l 413 136 l 399 119 l 383 103 l 346 78 l 304 65 l 272 60 l 236 65 l 215 67 l 192 71 l 131 96 l 111 108 l 90 114 l 68 99 l 63 71 l 74 49 l 93 32 l 131 11 l 156 1 l 179 -4 l 199 -6 l 224 -12 l 246 -11 z m 272 1040 l 301 1047 l 325 1069 l 338 1088 l 349 1101 l 363 1121 l 375 1139 l 375 1156 l 364 1169 l 340 1169 l 315 1157 l 292 1140 l 283 1122 l 272 1104 l 254 1068 l 254 1050 z "},"Š":{"ha":585,"x_min":0,"x_max":0,"o":"m 278 -15 l 335 -10 l 379 1 l 400 8 l 436 35 l 453 50 l 465 67 l 483 81 l 497 103 l 504 121 l 514 142 l 521 163 l 525 183 l 529 203 l 533 226 l 536 260 l 535 294 l 529 318 l 529 338 l 514 381 l 503 399 l 490 418 l 478 440 l 415 499 l 342 549 l 265 592 l 208 635 l 196 654 l 182 671 l 175 692 l 164 711 l 163 797 l 167 822 l 179 838 l 190 858 l 204 872 l 222 886 l 260 903 l 292 908 l 326 906 l 349 899 l 372 899 l 396 888 l 413 875 l 442 868 l 468 888 l 474 915 l 463 938 l 419 963 l 400 971 l 356 982 l 329 985 l 294 983 l 261 981 l 231 981 l 197 969 l 176 960 l 163 944 l 143 935 l 125 917 l 108 906 l 97 889 l 74 824 l 68 769 l 71 738 l 76 696 l 93 651 l 124 601 l 157 571 l 171 550 l 192 540 l 226 514 l 303 471 l 321 457 l 340 446 l 389 400 l 415 367 l 424 350 l 432 325 l 439 310 l 440 283 l 439 250 l 439 218 l 435 199 l 429 178 l 421 154 l 413 136 l 399 119 l 383 103 l 346 78 l 304 65 l 272 60 l 236 65 l 215 67 l 192 71 l 131 96 l 111 108 l 90 114 l 68 99 l 63 71 l 74 49 l 93 32 l 131 11 l 156 1 l 179 -4 l 199 -6 l 224 -12 l 246 -11 z m 285 1039 l 308 1039 l 335 1046 l 361 1063 l 375 1079 l 389 1093 l 399 1111 l 413 1126 l 426 1143 l 426 1163 l 408 1168 l 376 1160 l 351 1143 l 338 1124 l 319 1106 l 299 1097 l 275 1110 l 258 1124 l 243 1144 l 217 1160 l 185 1169 l 165 1158 l 165 1140 l 182 1126 l 203 1103 l 219 1081 l 236 1064 l 257 1049 z "},"Ş":{"ha":585,"x_min":0,"x_max":0,"o":"m 275 -308 l 301 -306 l 322 -297 l 343 -292 l 364 -282 l 406 -229 l 407 -157 l 397 -135 l 368 -103 l 347 -89 l 326 -82 l 306 -69 l 301 -44 l 313 -12 l 335 -10 l 379 1 l 400 8 l 436 35 l 453 50 l 465 67 l 483 81 l 497 103 l 504 121 l 514 142 l 521 163 l 525 183 l 529 203 l 533 226 l 536 260 l 535 294 l 529 318 l 529 338 l 514 381 l 503 399 l 490 418 l 478 440 l 415 499 l 208 635 l 196 654 l 182 671 l 175 692 l 164 711 l 163 797 l 167 822 l 179 838 l 190 858 l 204 872 l 222 886 l 260 903 l 292 908 l 326 906 l 349 899 l 372 899 l 396 888 l 413 875 l 442 868 l 468 888 l 474 915 l 463 938 l 419 963 l 400 971 l 356 982 l 329 985 l 294 983 l 261 981 l 231 981 l 197 969 l 176 960 l 163 944 l 143 935 l 125 917 l 108 906 l 97 889 l 74 824 l 68 769 l 71 738 l 76 696 l 93 651 l 124 601 l 157 571 l 171 550 l 192 540 l 226 514 l 303 471 l 321 457 l 340 446 l 389 400 l 415 367 l 424 350 l 432 325 l 439 310 l 440 283 l 439 250 l 439 218 l 435 199 l 429 178 l 421 154 l 413 136 l 399 119 l 383 103 l 346 78 l 304 65 l 272 60 l 236 65 l 215 67 l 192 71 l 131 96 l 111 108 l 90 114 l 68 99 l 63 71 l 74 49 l 93 32 l 131 11 l 156 1 l 179 -4 l 199 -6 l 224 -12 l 246 -11 l 256 -12 l 231 -96 l 243 -121 l 269 -129 l 294 -132 l 314 -137 l 331 -153 l 338 -189 l 333 -217 l 319 -233 l 300 -243 l 279 -247 l 233 -237 l 210 -237 l 196 -264 l 213 -289 l 235 -301 l 254 -307 z "},"Ș":{"ha":585,"x_min":0,"x_max":0,"o":"m 278 -15 l 335 -10 l 379 1 l 400 8 l 436 35 l 453 50 l 465 67 l 483 81 l 497 103 l 504 121 l 514 142 l 521 163 l 525 183 l 529 203 l 533 226 l 536 260 l 535 294 l 529 318 l 529 338 l 514 381 l 503 399 l 490 418 l 478 440 l 415 499 l 342 549 l 265 592 l 208 635 l 196 654 l 182 671 l 175 692 l 164 711 l 163 797 l 167 822 l 179 838 l 190 858 l 204 872 l 222 886 l 260 903 l 292 908 l 326 906 l 349 899 l 372 899 l 396 888 l 413 875 l 442 868 l 468 888 l 474 915 l 463 938 l 419 963 l 400 971 l 356 982 l 329 985 l 294 983 l 261 981 l 231 981 l 197 969 l 176 960 l 163 944 l 143 935 l 125 917 l 108 906 l 97 889 l 74 824 l 68 769 l 71 738 l 76 696 l 93 651 l 124 601 l 157 571 l 171 550 l 192 540 l 226 514 l 303 471 l 321 457 l 340 446 l 389 400 l 415 367 l 424 350 l 432 325 l 439 310 l 440 283 l 439 250 l 439 218 l 435 199 l 429 178 l 421 154 l 413 136 l 399 119 l 383 103 l 346 78 l 304 65 l 272 60 l 236 65 l 215 67 l 192 71 l 131 96 l 111 108 l 90 114 l 68 99 l 63 71 l 74 49 l 93 32 l 131 11 l 156 1 l 179 -4 l 199 -6 l 224 -12 l 246 -11 z m 274 -124 l 250 -135 l 233 -157 l 229 -175 l 225 -199 l 221 -221 l 215 -246 l 211 -271 l 203 -292 l 200 -317 l 204 -336 l 219 -350 l 243 -337 l 263 -318 l 271 -297 l 275 -275 l 282 -253 l 288 -237 l 296 -214 l 304 -194 l 308 -175 l 319 -153 l 315 -136 l 297 -124 z "},"T":{"ha":533,"x_min":0,"x_max":0,"o":"m 285 -1 l 308 8 l 315 29 l 314 49 l 310 74 l 313 94 l 313 115 l 311 133 l 313 153 l 311 178 l 313 210 l 310 244 l 311 288 l 310 308 l 314 332 l 311 356 l 311 432 l 310 461 l 313 482 l 310 507 l 311 529 l 311 554 l 308 576 l 310 599 l 314 619 l 308 661 l 313 682 l 311 732 l 314 747 l 311 794 l 314 819 l 310 842 l 311 860 l 324 882 l 343 893 l 368 897 l 389 894 l 410 896 l 468 893 l 500 903 l 510 929 l 501 960 l 478 968 l 435 975 l 389 969 l 342 971 l 321 975 l 299 969 l 276 972 l 254 968 l 232 969 l 211 968 l 190 972 l 142 969 l 118 972 l 86 968 l 54 969 l 31 956 l 21 935 l 31 908 l 54 899 l 96 893 l 121 896 l 142 893 l 186 894 l 207 883 l 219 860 l 219 553 l 222 529 l 222 508 l 219 482 l 219 443 l 222 419 l 221 393 l 221 374 l 219 350 l 221 328 l 218 307 l 222 288 l 219 210 l 221 154 l 218 110 l 221 89 l 219 63 l 225 24 l 238 7 l 264 1 z "},"Ŧ":{"ha":533,"x_min":0,"x_max":0,"o":"m 286 -4 l 307 11 l 317 32 l 313 51 l 313 94 l 308 115 l 311 267 l 310 285 l 313 329 l 310 349 l 314 468 l 311 501 l 321 525 l 344 538 l 413 536 l 436 543 l 444 565 l 432 588 l 413 596 l 376 592 l 343 593 l 324 608 l 311 628 l 311 711 l 308 733 l 308 756 l 313 776 l 310 796 l 311 828 l 310 850 l 324 885 l 343 894 l 390 896 l 408 894 l 479 897 l 501 906 l 511 933 l 499 958 l 478 969 l 342 971 l 322 969 l 300 972 l 276 972 l 256 969 l 231 974 l 185 972 l 140 975 l 119 974 l 99 969 l 75 975 l 53 972 l 31 960 l 17 933 l 29 907 l 54 897 l 75 894 l 97 896 l 186 894 l 207 882 l 217 865 l 219 817 l 217 794 l 217 774 l 218 753 l 222 732 l 219 679 l 221 647 l 218 628 l 206 601 l 185 596 l 142 597 l 119 596 l 94 582 l 86 564 l 97 546 l 118 532 l 139 536 l 164 533 l 183 533 l 208 524 l 219 492 l 222 418 l 219 397 l 221 372 l 218 351 l 221 207 l 218 175 l 221 153 l 219 133 l 221 110 l 218 90 l 219 64 l 224 42 l 225 26 l 238 7 z "},"Ť":{"ha":533,"x_min":0,"x_max":0,"o":"m 285 -1 l 308 8 l 315 29 l 314 49 l 310 74 l 313 94 l 313 115 l 311 133 l 313 153 l 311 178 l 313 210 l 310 244 l 311 288 l 310 308 l 314 332 l 311 356 l 311 432 l 310 461 l 313 482 l 310 507 l 311 529 l 311 554 l 308 576 l 310 599 l 314 619 l 308 661 l 313 682 l 311 732 l 314 747 l 311 794 l 314 819 l 310 842 l 311 860 l 324 882 l 343 893 l 368 897 l 389 894 l 410 896 l 468 893 l 500 903 l 510 929 l 501 960 l 478 968 l 435 975 l 389 969 l 342 971 l 321 975 l 299 969 l 276 972 l 254 968 l 232 969 l 211 968 l 190 972 l 142 969 l 118 972 l 86 968 l 54 969 l 31 956 l 21 935 l 31 908 l 54 899 l 96 893 l 121 896 l 142 893 l 186 894 l 207 883 l 219 860 l 219 553 l 222 529 l 222 508 l 219 482 l 219 443 l 222 419 l 221 393 l 221 374 l 219 350 l 221 328 l 218 307 l 222 288 l 219 210 l 221 154 l 218 110 l 221 89 l 219 63 l 225 24 l 238 7 l 264 1 z m 249 1039 l 272 1039 l 299 1046 l 325 1063 l 339 1079 l 353 1093 l 363 1111 l 376 1126 l 390 1143 l 390 1163 l 372 1168 l 340 1160 l 315 1143 l 301 1124 l 283 1106 l 263 1097 l 239 1110 l 222 1124 l 207 1144 l 181 1160 l 149 1169 l 129 1158 l 129 1140 l 146 1126 l 167 1103 l 183 1081 l 200 1064 l 221 1049 z "},"Ţ":{"ha":533,"x_min":0,"x_max":0,"o":"m 285 -1 l 308 8 l 315 29 l 314 49 l 310 74 l 313 94 l 313 115 l 311 133 l 313 153 l 311 178 l 313 210 l 310 244 l 311 288 l 310 308 l 314 332 l 311 356 l 311 432 l 310 461 l 313 482 l 310 507 l 311 529 l 311 554 l 308 576 l 310 599 l 314 619 l 308 661 l 313 682 l 311 732 l 314 747 l 311 794 l 314 819 l 310 842 l 311 860 l 324 882 l 343 893 l 368 897 l 389 894 l 410 896 l 468 893 l 500 903 l 510 929 l 501 960 l 478 968 l 435 975 l 389 969 l 342 971 l 321 975 l 299 969 l 276 972 l 254 968 l 232 969 l 211 968 l 190 972 l 142 969 l 118 972 l 86 968 l 54 969 l 31 956 l 21 935 l 31 908 l 54 899 l 96 893 l 121 896 l 142 893 l 186 894 l 207 883 l 219 860 l 219 553 l 222 529 l 222 508 l 219 482 l 219 443 l 222 419 l 221 393 l 221 374 l 219 350 l 221 328 l 218 307 l 222 288 l 219 210 l 221 154 l 218 110 l 221 89 l 219 63 l 225 24 l 238 7 l 264 1 z m 269 -124 l 246 -135 l 229 -157 l 225 -175 l 221 -199 l 217 -221 l 211 -246 l 207 -271 l 199 -292 l 196 -317 l 200 -336 l 215 -350 l 239 -337 l 258 -318 l 267 -297 l 271 -275 l 278 -253 l 283 -237 l 292 -214 l 300 -194 l 304 -175 l 315 -153 l 311 -136 l 293 -124 z "},"Ț":{"ha":533,"x_min":0,"x_max":0,"o":"m 285 -1 l 308 8 l 315 29 l 314 49 l 310 74 l 313 94 l 313 115 l 311 133 l 313 153 l 311 178 l 313 210 l 310 244 l 311 288 l 310 308 l 314 332 l 311 356 l 311 432 l 310 461 l 313 482 l 310 507 l 311 529 l 311 554 l 308 576 l 310 599 l 314 619 l 308 661 l 313 682 l 311 732 l 314 747 l 311 794 l 314 819 l 310 842 l 311 860 l 324 882 l 343 893 l 368 897 l 389 894 l 410 896 l 468 893 l 500 903 l 510 929 l 501 960 l 478 968 l 435 975 l 389 969 l 342 971 l 321 975 l 299 969 l 276 972 l 254 968 l 232 969 l 211 968 l 190 972 l 142 969 l 118 972 l 86 968 l 54 969 l 31 956 l 21 935 l 31 908 l 54 899 l 96 893 l 121 896 l 142 893 l 186 894 l 207 883 l 219 860 l 219 553 l 222 529 l 222 508 l 219 482 l 219 443 l 222 419 l 221 393 l 221 374 l 219 350 l 221 328 l 218 307 l 222 288 l 219 210 l 221 154 l 218 110 l 221 89 l 219 63 l 225 24 l 238 7 l 264 1 z m 269 -124 l 246 -135 l 229 -157 l 225 -175 l 221 -199 l 217 -221 l 211 -246 l 207 -271 l 199 -292 l 196 -317 l 200 -336 l 215 -350 l 239 -337 l 258 -318 l 267 -297 l 271 -275 l 278 -253 l 283 -237 l 292 -214 l 300 -194 l 304 -175 l 315 -153 l 311 -136 l 293 -124 z "},"U":{"ha":635,"x_min":0,"x_max":0,"o":"m 290 -15 l 356 -14 l 399 -7 l 438 7 l 458 17 l 474 31 l 492 46 l 503 63 l 514 81 l 535 146 l 546 210 l 546 233 l 549 256 l 549 278 l 553 311 l 550 340 l 549 367 l 550 389 l 549 411 l 551 454 l 550 494 l 551 518 l 549 542 l 553 563 l 550 633 l 551 653 l 550 686 l 553 832 l 551 850 l 550 896 l 553 914 l 553 936 l 539 963 l 518 974 l 496 969 l 472 958 l 457 940 l 461 917 l 458 783 l 461 765 l 457 739 l 460 699 l 458 653 l 460 631 l 458 567 l 461 547 l 458 456 l 460 433 l 457 410 l 458 278 l 456 258 l 457 236 l 457 213 l 451 190 l 449 165 l 435 121 l 428 106 l 413 86 l 376 67 l 353 63 l 321 64 l 289 67 l 268 72 l 247 75 l 229 89 l 217 107 l 201 147 l 190 194 l 189 215 l 185 235 l 183 282 l 188 350 l 186 372 l 182 393 l 186 435 l 186 461 l 183 481 l 186 503 l 186 636 l 183 657 l 185 836 l 182 881 l 183 906 l 182 924 l 179 942 l 164 960 l 140 969 l 117 971 l 97 961 l 89 938 l 89 921 l 92 899 l 90 876 l 93 817 l 90 789 l 94 725 l 90 639 l 94 569 l 93 549 l 94 501 l 92 476 l 93 364 l 92 343 l 92 310 l 94 278 l 94 256 l 96 208 l 100 189 l 101 164 l 108 147 l 118 104 l 129 83 l 139 63 l 153 47 l 168 29 l 182 15 l 203 4 l 242 -10 l 264 -11 z "},"Ú":{"ha":635,"x_min":0,"x_max":0,"o":"m 290 -15 l 356 -14 l 399 -7 l 438 7 l 458 17 l 474 31 l 492 46 l 503 63 l 514 81 l 535 146 l 546 210 l 546 233 l 549 256 l 549 278 l 553 311 l 550 340 l 549 367 l 550 389 l 549 411 l 551 454 l 550 494 l 551 518 l 549 542 l 553 563 l 550 633 l 551 653 l 550 686 l 553 832 l 551 850 l 550 896 l 553 914 l 553 936 l 539 963 l 518 974 l 496 969 l 472 958 l 457 940 l 461 917 l 458 783 l 461 765 l 457 739 l 460 699 l 458 653 l 460 631 l 458 567 l 461 547 l 458 456 l 460 433 l 457 410 l 458 278 l 456 258 l 457 236 l 457 213 l 451 190 l 449 165 l 435 121 l 428 106 l 413 86 l 376 67 l 353 63 l 321 64 l 289 67 l 268 72 l 247 75 l 229 89 l 217 107 l 201 147 l 190 194 l 189 215 l 185 235 l 183 282 l 188 350 l 186 372 l 182 393 l 186 435 l 186 461 l 183 481 l 186 503 l 186 636 l 183 657 l 185 836 l 182 881 l 183 906 l 182 924 l 179 942 l 164 960 l 140 969 l 117 971 l 97 961 l 89 938 l 89 921 l 92 899 l 90 876 l 93 817 l 90 789 l 94 725 l 90 639 l 94 569 l 93 549 l 94 501 l 92 476 l 93 364 l 92 343 l 92 310 l 94 278 l 94 256 l 96 208 l 100 189 l 101 164 l 108 147 l 118 104 l 129 83 l 139 63 l 153 47 l 168 29 l 182 15 l 203 4 l 242 -10 l 264 -11 z m 296 1040 l 325 1047 l 349 1069 l 361 1088 l 372 1101 l 386 1121 l 399 1139 l 399 1156 l 388 1169 l 364 1169 l 339 1157 l 315 1140 l 307 1122 l 296 1104 l 278 1068 l 278 1050 z "},"Û":{"ha":635,"x_min":0,"x_max":0,"o":"m 290 -15 l 356 -14 l 399 -7 l 438 7 l 458 17 l 474 31 l 492 46 l 503 63 l 514 81 l 535 146 l 546 210 l 546 233 l 549 256 l 549 278 l 553 311 l 550 340 l 549 367 l 550 389 l 549 411 l 551 454 l 550 494 l 551 518 l 549 542 l 553 563 l 550 633 l 551 653 l 550 686 l 553 832 l 551 850 l 550 896 l 553 914 l 553 936 l 539 963 l 518 974 l 496 969 l 472 958 l 457 940 l 461 917 l 458 783 l 461 765 l 457 739 l 460 699 l 458 653 l 460 631 l 458 567 l 461 547 l 458 456 l 460 433 l 457 410 l 458 278 l 456 258 l 457 236 l 457 213 l 451 190 l 449 165 l 435 121 l 428 106 l 413 86 l 376 67 l 353 63 l 321 64 l 289 67 l 268 72 l 247 75 l 229 89 l 217 107 l 201 147 l 190 194 l 189 215 l 185 235 l 183 282 l 188 350 l 186 372 l 182 393 l 186 435 l 186 461 l 183 481 l 186 503 l 186 636 l 183 657 l 185 836 l 182 881 l 183 906 l 182 924 l 179 942 l 164 960 l 140 969 l 117 971 l 97 961 l 89 938 l 89 921 l 92 899 l 90 876 l 93 817 l 90 789 l 94 725 l 90 639 l 94 569 l 93 549 l 94 501 l 92 476 l 93 364 l 92 343 l 92 310 l 94 278 l 94 256 l 96 208 l 100 189 l 101 164 l 108 147 l 118 104 l 129 83 l 139 63 l 153 47 l 168 29 l 182 15 l 203 4 l 242 -10 l 264 -11 z m 424 1039 l 444 1040 l 461 1044 l 456 1064 l 443 1081 l 421 1103 l 401 1125 l 388 1144 l 363 1160 l 333 1168 l 310 1167 l 282 1158 l 254 1144 l 242 1124 l 226 1113 l 213 1096 l 201 1083 l 185 1064 l 185 1043 l 200 1039 l 221 1042 l 247 1047 l 272 1064 l 289 1081 l 299 1100 l 322 1110 l 342 1100 l 358 1085 l 372 1067 l 396 1047 z "},"Ü":{"ha":635,"x_min":0,"x_max":0,"o":"m 290 -15 l 356 -14 l 399 -7 l 438 7 l 458 17 l 474 31 l 492 46 l 503 63 l 514 81 l 535 146 l 546 210 l 546 233 l 549 256 l 549 278 l 553 311 l 550 340 l 549 367 l 550 389 l 549 411 l 551 454 l 550 494 l 551 518 l 549 542 l 553 563 l 550 633 l 551 653 l 550 686 l 553 832 l 551 850 l 550 896 l 553 914 l 553 936 l 539 963 l 518 974 l 496 969 l 472 958 l 457 940 l 461 917 l 458 783 l 461 765 l 457 739 l 460 699 l 458 653 l 460 631 l 458 567 l 461 547 l 458 456 l 460 433 l 457 410 l 458 278 l 456 258 l 457 236 l 457 213 l 451 190 l 449 165 l 435 121 l 428 106 l 413 86 l 376 67 l 353 63 l 321 64 l 289 67 l 268 72 l 247 75 l 229 89 l 217 107 l 201 147 l 190 194 l 189 215 l 185 235 l 183 282 l 188 350 l 186 372 l 182 393 l 186 435 l 186 461 l 183 481 l 186 503 l 186 636 l 183 657 l 185 836 l 182 881 l 183 906 l 182 924 l 179 942 l 164 960 l 140 969 l 117 971 l 97 961 l 89 938 l 89 921 l 92 899 l 90 876 l 93 817 l 90 789 l 94 725 l 90 639 l 94 569 l 93 549 l 94 501 l 92 476 l 93 364 l 92 343 l 92 310 l 94 278 l 94 256 l 96 208 l 100 189 l 101 164 l 108 147 l 118 104 l 129 83 l 139 63 l 153 47 l 168 29 l 182 15 l 203 4 l 242 -10 l 264 -11 z m 401 1054 l 426 1057 l 444 1068 l 449 1101 l 443 1131 l 431 1147 l 400 1153 l 372 1143 l 357 1129 l 351 1101 l 358 1074 l 369 1060 z m 238 1057 l 264 1063 l 276 1074 l 285 1104 l 279 1131 l 265 1149 l 239 1151 l 208 1140 l 193 1128 l 189 1103 l 193 1072 l 208 1064 z "},"Ù":{"ha":635,"x_min":0,"x_max":0,"o":"m 290 -15 l 356 -14 l 399 -7 l 438 7 l 458 17 l 474 31 l 492 46 l 503 63 l 514 81 l 535 146 l 546 210 l 546 233 l 549 256 l 549 278 l 553 311 l 550 340 l 549 367 l 550 389 l 549 411 l 551 454 l 550 494 l 551 518 l 549 542 l 553 563 l 550 633 l 551 653 l 550 686 l 553 832 l 551 850 l 550 896 l 553 914 l 553 936 l 539 963 l 518 974 l 496 969 l 472 958 l 457 940 l 461 917 l 458 783 l 461 765 l 457 739 l 460 699 l 458 653 l 460 631 l 458 567 l 461 547 l 458 456 l 460 433 l 457 410 l 458 278 l 456 258 l 457 236 l 457 213 l 451 190 l 449 165 l 435 121 l 428 106 l 413 86 l 376 67 l 353 63 l 321 64 l 289 67 l 268 72 l 247 75 l 229 89 l 217 107 l 201 147 l 190 194 l 189 215 l 185 235 l 183 282 l 188 350 l 186 372 l 182 393 l 186 435 l 186 461 l 183 481 l 186 503 l 186 636 l 183 657 l 185 836 l 182 881 l 183 906 l 182 924 l 179 942 l 164 960 l 140 969 l 117 971 l 97 961 l 89 938 l 89 921 l 92 899 l 90 876 l 93 817 l 90 789 l 94 725 l 90 639 l 94 569 l 93 549 l 94 501 l 92 476 l 93 364 l 92 343 l 92 310 l 94 278 l 94 256 l 96 208 l 100 189 l 101 164 l 108 147 l 118 104 l 129 83 l 139 63 l 153 47 l 168 29 l 182 15 l 203 4 l 242 -10 l 264 -11 z m 325 1038 l 342 1047 l 343 1068 l 329 1086 l 322 1106 l 313 1122 l 303 1139 l 283 1160 l 257 1171 l 231 1168 l 215 1158 l 217 1143 l 229 1118 l 246 1103 l 254 1083 l 267 1069 l 292 1051 z "},"Ű":{"ha":635,"x_min":0,"x_max":0,"o":"m 290 -15 l 356 -14 l 399 -7 l 438 7 l 458 17 l 474 31 l 492 46 l 503 63 l 514 81 l 535 146 l 546 210 l 546 233 l 549 256 l 549 278 l 553 311 l 550 340 l 549 367 l 550 389 l 549 411 l 551 454 l 550 494 l 551 518 l 549 542 l 553 563 l 550 633 l 551 653 l 550 686 l 553 832 l 551 850 l 550 896 l 553 914 l 553 936 l 539 963 l 518 974 l 496 969 l 472 958 l 457 940 l 461 917 l 458 783 l 461 765 l 457 739 l 460 699 l 458 653 l 460 631 l 458 567 l 461 547 l 458 456 l 460 433 l 457 410 l 458 278 l 456 258 l 457 236 l 457 213 l 451 190 l 449 165 l 435 121 l 428 106 l 413 86 l 376 67 l 353 63 l 321 64 l 289 67 l 268 72 l 247 75 l 229 89 l 217 107 l 201 147 l 190 194 l 189 215 l 185 235 l 183 282 l 188 350 l 186 372 l 182 393 l 186 435 l 186 461 l 183 481 l 186 503 l 186 636 l 183 657 l 185 836 l 182 881 l 183 906 l 182 924 l 179 942 l 164 960 l 140 969 l 117 971 l 97 961 l 89 938 l 89 921 l 92 899 l 90 876 l 93 817 l 90 789 l 94 725 l 90 639 l 94 569 l 93 549 l 94 501 l 92 476 l 93 364 l 92 343 l 92 310 l 94 278 l 94 256 l 96 208 l 100 189 l 101 164 l 108 147 l 118 104 l 129 83 l 139 63 l 153 47 l 168 29 l 182 15 l 203 4 l 242 -10 l 264 -11 z m 257 1042 l 278 1047 l 300 1071 l 311 1094 l 321 1117 l 329 1133 l 329 1158 l 307 1171 l 278 1157 l 260 1138 l 250 1118 l 243 1093 l 238 1067 l 242 1050 z m 372 1042 l 397 1053 l 414 1071 l 424 1093 l 433 1115 l 442 1138 l 440 1154 l 418 1167 l 390 1157 l 372 1138 l 364 1114 l 358 1092 l 351 1069 l 356 1049 z "},"Ū":{"ha":635,"x_min":0,"x_max":0,"o":"m 290 -15 l 356 -14 l 399 -7 l 438 7 l 458 17 l 474 31 l 492 46 l 503 63 l 514 81 l 535 146 l 546 210 l 546 233 l 549 256 l 549 278 l 553 311 l 550 340 l 549 367 l 550 389 l 549 411 l 551 454 l 550 494 l 551 518 l 549 542 l 553 563 l 550 633 l 551 653 l 550 686 l 553 832 l 551 850 l 550 896 l 553 914 l 553 936 l 539 963 l 518 974 l 496 969 l 472 958 l 457 940 l 461 917 l 458 783 l 461 765 l 457 739 l 460 699 l 458 653 l 460 631 l 458 567 l 461 547 l 458 456 l 460 433 l 457 410 l 458 278 l 456 258 l 457 236 l 457 213 l 451 190 l 449 165 l 435 121 l 428 106 l 413 86 l 376 67 l 353 63 l 321 64 l 289 67 l 268 72 l 247 75 l 229 89 l 217 107 l 201 147 l 190 194 l 189 215 l 185 235 l 183 282 l 188 350 l 186 372 l 182 393 l 186 435 l 186 461 l 183 481 l 186 503 l 186 636 l 183 657 l 185 836 l 182 881 l 183 906 l 182 924 l 179 942 l 164 960 l 140 969 l 117 971 l 97 961 l 89 938 l 89 921 l 92 899 l 90 876 l 93 817 l 90 789 l 94 725 l 90 639 l 94 569 l 93 549 l 94 501 l 92 476 l 93 364 l 92 343 l 92 310 l 94 278 l 94 256 l 96 208 l 100 189 l 101 164 l 108 147 l 118 104 l 129 83 l 139 63 l 153 47 l 168 29 l 182 15 l 203 4 l 242 -10 l 264 -11 z m 249 1060 l 274 1065 l 293 1064 l 329 1063 l 363 1061 l 382 1064 l 407 1064 l 429 1065 l 453 1075 l 464 1096 l 453 1114 l 426 1126 l 394 1126 l 364 1126 l 340 1122 l 317 1124 l 296 1121 l 274 1125 l 250 1124 l 229 1124 l 208 1124 l 185 1115 l 174 1097 l 182 1074 l 206 1067 l 229 1067 z "},"Ų":{"ha":635,"x_min":0,"x_max":0,"o":"m 425 -303 l 451 -303 l 494 -290 l 514 -271 l 519 -249 l 504 -233 l 457 -242 l 438 -237 l 421 -226 l 407 -199 l 401 -167 l 413 -97 l 421 -78 l 451 -18 l 464 3 l 475 25 l 493 50 l 511 76 l 524 101 l 531 121 l 551 253 l 549 274 l 550 386 l 547 408 l 549 497 l 551 518 l 549 606 l 551 629 l 550 875 l 551 894 l 549 913 l 549 938 l 536 957 l 513 971 l 493 971 l 469 960 l 458 939 l 461 882 l 458 850 l 460 826 l 458 693 l 460 672 l 457 653 l 458 632 l 457 542 l 458 499 l 458 476 l 456 458 l 460 374 l 456 349 l 458 281 l 457 258 l 457 238 l 456 213 l 450 189 l 449 167 l 442 146 l 435 128 l 424 108 l 410 90 l 385 72 l 353 65 l 319 64 l 289 67 l 268 69 l 229 90 l 214 104 l 192 169 l 183 213 l 181 349 l 185 368 l 182 435 l 186 461 l 181 535 l 183 567 l 183 593 l 181 614 l 185 693 l 182 717 l 185 758 l 182 793 l 185 815 l 181 835 l 181 861 l 183 903 l 179 943 l 165 961 l 139 972 l 115 972 l 93 957 l 85 938 l 88 918 l 89 875 l 88 858 l 89 836 l 92 811 l 90 635 l 94 615 l 92 571 l 89 546 l 92 390 l 90 361 l 92 278 l 90 256 l 97 190 l 118 101 l 139 61 l 150 43 l 185 17 l 204 8 l 221 1 l 242 -8 l 267 -12 l 318 -12 l 340 -11 l 361 -22 l 363 -40 l 351 -64 l 343 -83 l 339 -106 l 335 -132 l 331 -153 l 329 -200 l 335 -236 l 350 -264 l 364 -281 l 385 -290 z "},"Ů":{"ha":635,"x_min":0,"x_max":0,"o":"m 290 -15 l 356 -14 l 399 -7 l 438 7 l 458 17 l 474 31 l 492 46 l 503 63 l 514 81 l 535 146 l 546 210 l 546 233 l 549 256 l 549 278 l 553 311 l 550 340 l 549 367 l 550 389 l 549 411 l 551 454 l 550 494 l 551 518 l 549 542 l 553 563 l 550 633 l 551 653 l 550 686 l 553 832 l 551 850 l 550 896 l 553 914 l 553 936 l 539 963 l 518 974 l 496 969 l 472 958 l 457 940 l 461 917 l 458 783 l 461 765 l 457 739 l 460 699 l 458 653 l 460 631 l 458 567 l 461 547 l 458 456 l 460 433 l 457 410 l 458 278 l 456 258 l 457 236 l 457 213 l 451 190 l 449 165 l 435 121 l 428 106 l 413 86 l 376 67 l 353 63 l 321 64 l 289 67 l 268 72 l 247 75 l 229 89 l 217 107 l 201 147 l 190 194 l 189 215 l 185 235 l 183 282 l 188 350 l 186 372 l 182 393 l 186 435 l 186 461 l 183 481 l 186 503 l 186 636 l 183 657 l 185 836 l 182 881 l 183 906 l 182 924 l 179 942 l 164 960 l 140 969 l 117 971 l 97 961 l 89 938 l 89 921 l 92 899 l 90 876 l 93 817 l 90 789 l 94 725 l 90 639 l 94 569 l 93 549 l 94 501 l 92 476 l 93 364 l 92 343 l 92 310 l 94 278 l 94 256 l 96 208 l 100 189 l 101 164 l 108 147 l 118 104 l 129 83 l 139 63 l 153 47 l 168 29 l 182 15 l 203 4 l 242 -10 l 264 -11 z m 322 1013 l 356 1017 l 376 1024 l 396 1036 l 408 1058 l 421 1081 l 421 1110 l 418 1146 l 410 1167 l 392 1188 l 376 1200 l 356 1210 l 321 1211 l 283 1211 l 265 1199 l 250 1183 l 232 1168 l 225 1147 l 218 1111 l 224 1079 l 232 1058 l 247 1036 l 265 1025 l 288 1014 z m 321 1068 l 288 1078 l 279 1110 l 289 1143 l 319 1157 l 354 1144 l 361 1113 l 354 1078 z "},"V":{"ha":604,"x_min":0,"x_max":0,"o":"m 279 -3 l 303 1 l 324 -1 l 350 7 l 367 28 l 375 75 l 388 115 l 396 163 l 399 185 l 406 207 l 425 292 l 426 311 l 433 332 l 442 379 l 450 397 l 456 418 l 457 442 l 472 504 l 475 526 l 485 572 l 492 593 l 496 617 l 503 636 l 504 656 l 513 679 l 517 703 l 522 719 l 533 789 l 544 826 l 561 918 l 568 938 l 561 961 l 539 972 l 514 972 l 489 960 l 474 939 l 469 915 l 458 875 l 457 849 l 446 808 l 439 764 l 433 740 l 431 724 l 415 668 l 407 615 l 365 422 l 351 381 l 329 247 l 324 228 l 319 181 l 315 164 l 313 140 l 306 117 l 303 115 l 294 139 l 292 163 l 286 186 l 286 201 l 279 224 l 278 250 l 264 335 l 258 354 l 250 375 l 244 422 l 229 461 l 228 486 l 208 569 l 207 593 l 201 613 l 196 639 l 188 658 l 185 682 l 164 786 l 156 811 l 151 829 l 150 851 l 142 872 l 139 896 l 132 918 l 128 940 l 113 960 l 88 974 l 63 968 l 43 961 l 33 942 l 36 919 l 44 896 l 47 872 l 54 850 l 76 747 l 83 724 l 103 638 l 110 593 l 117 571 l 119 551 l 132 506 l 135 485 l 179 290 l 188 267 l 188 244 l 200 207 l 235 53 l 236 31 l 254 13 z "},"W":{"ha":946,"x_min":0,"x_max":0,"o":"m 689 -6 l 714 7 l 728 31 l 731 50 l 736 72 l 742 114 l 772 268 l 772 288 l 803 440 l 810 461 l 811 482 l 817 508 l 818 526 l 822 551 l 828 572 l 831 592 l 838 610 l 839 638 l 844 658 l 850 704 l 857 721 l 864 763 l 865 785 l 876 831 l 878 850 l 883 871 l 886 894 l 894 918 l 896 939 l 886 956 l 867 968 l 843 971 l 821 958 l 803 936 l 797 893 l 786 851 l 782 804 l 776 781 l 771 747 l 763 718 l 763 699 l 749 631 l 747 608 l 739 585 l 738 544 l 726 496 l 725 475 l 710 415 l 710 390 l 692 303 l 681 194 l 676 175 l 676 154 l 674 133 l 669 110 l 664 111 l 661 132 l 663 156 l 635 344 l 633 369 l 617 456 l 614 479 l 610 497 l 603 519 l 589 608 l 583 633 l 582 651 l 576 676 l 571 700 l 567 722 l 565 742 l 556 783 l 551 831 l 539 872 l 533 917 l 529 939 l 515 958 l 490 969 l 464 972 l 433 960 l 417 933 l 413 913 l 411 892 l 406 874 l 400 849 l 396 829 l 394 807 l 378 717 l 376 699 l 368 654 l 361 631 l 358 586 l 346 546 l 344 521 l 332 454 l 331 438 l 322 411 l 318 390 l 317 368 l 308 325 l 307 303 l 300 272 l 294 236 l 296 219 l 292 200 l 292 174 l 285 132 l 283 111 l 279 110 l 272 174 l 267 199 l 265 219 l 265 240 l 246 346 l 244 367 l 236 413 l 229 431 l 225 451 l 224 475 l 213 540 l 201 586 l 201 613 l 190 651 l 182 719 l 172 753 l 165 783 l 165 808 l 158 829 l 157 849 l 150 871 l 140 938 l 126 960 l 101 969 l 75 972 l 51 958 l 46 940 l 50 915 l 56 896 l 78 764 l 83 743 l 85 718 l 93 700 l 101 658 l 103 633 l 110 614 l 115 593 l 124 526 l 149 400 l 153 374 l 163 332 l 165 311 l 172 290 l 174 267 l 179 233 l 188 201 l 189 181 l 200 138 l 203 113 l 218 31 l 233 11 l 257 0 l 276 -4 l 300 -1 l 322 10 l 336 31 l 356 140 l 357 164 l 363 186 l 369 206 l 371 229 l 376 250 l 378 272 l 383 293 l 399 403 l 406 426 l 418 493 l 418 515 l 426 549 l 453 733 l 458 758 l 461 778 l 461 803 l 468 849 l 474 849 l 482 779 l 483 758 l 500 626 l 507 601 l 508 583 l 515 560 l 515 535 l 531 474 l 535 429 l 539 408 l 546 383 l 547 363 l 556 340 l 556 315 l 564 272 l 569 249 l 607 28 l 621 8 l 644 -3 z "},"Ẃ":{"ha":946,"x_min":0,"x_max":0,"o":"m 689 -6 l 714 7 l 728 31 l 731 50 l 736 72 l 742 114 l 772 268 l 772 288 l 803 440 l 810 461 l 811 482 l 817 508 l 818 526 l 822 551 l 828 572 l 831 592 l 838 610 l 839 638 l 844 658 l 850 704 l 857 721 l 864 763 l 865 785 l 876 831 l 878 850 l 883 871 l 886 894 l 894 918 l 896 939 l 886 956 l 867 968 l 843 971 l 821 958 l 803 936 l 797 893 l 786 851 l 782 804 l 776 781 l 771 747 l 763 718 l 763 699 l 749 631 l 747 608 l 739 585 l 738 544 l 726 496 l 725 475 l 710 415 l 710 390 l 692 303 l 681 194 l 676 175 l 676 154 l 674 133 l 669 110 l 664 111 l 661 132 l 663 156 l 635 344 l 633 369 l 617 456 l 614 479 l 610 497 l 603 519 l 589 608 l 583 633 l 582 651 l 576 676 l 571 700 l 567 722 l 565 742 l 556 783 l 551 831 l 539 872 l 533 917 l 529 939 l 515 958 l 490 969 l 464 972 l 433 960 l 417 933 l 413 913 l 411 892 l 406 874 l 400 849 l 396 829 l 394 807 l 378 717 l 376 699 l 368 654 l 361 631 l 358 586 l 346 546 l 344 521 l 332 454 l 331 438 l 322 411 l 318 390 l 317 368 l 308 325 l 307 303 l 300 272 l 294 236 l 296 219 l 292 200 l 292 174 l 285 132 l 283 111 l 279 110 l 272 174 l 267 199 l 265 219 l 265 240 l 246 346 l 244 367 l 236 413 l 229 431 l 225 451 l 224 475 l 213 540 l 201 586 l 201 613 l 190 651 l 182 719 l 172 753 l 165 783 l 165 808 l 158 829 l 157 849 l 150 871 l 140 938 l 126 960 l 101 969 l 75 972 l 51 958 l 46 940 l 50 915 l 56 896 l 78 764 l 83 743 l 85 718 l 93 700 l 101 658 l 103 633 l 110 614 l 115 593 l 124 526 l 149 400 l 153 374 l 163 332 l 165 311 l 172 290 l 174 267 l 179 233 l 188 201 l 189 181 l 200 138 l 203 113 l 218 31 l 233 11 l 257 0 l 276 -4 l 300 -1 l 322 10 l 336 31 l 356 140 l 357 164 l 363 186 l 369 206 l 371 229 l 376 250 l 378 272 l 383 293 l 399 403 l 406 426 l 418 493 l 418 515 l 426 549 l 453 733 l 458 758 l 461 778 l 461 803 l 468 849 l 474 849 l 482 779 l 483 758 l 500 626 l 507 601 l 508 583 l 515 560 l 515 535 l 531 474 l 535 429 l 539 408 l 546 383 l 547 363 l 556 340 l 556 315 l 564 272 l 569 249 l 607 28 l 621 8 l 644 -3 z m 453 1040 l 482 1047 l 506 1069 l 518 1088 l 529 1101 l 543 1121 l 556 1139 l 556 1156 l 544 1169 l 521 1169 l 496 1157 l 472 1140 l 464 1122 l 453 1104 l 435 1068 l 435 1050 z "},"Ŵ":{"ha":946,"x_min":0,"x_max":0,"o":"m 689 -6 l 714 7 l 728 31 l 731 50 l 736 72 l 742 114 l 772 268 l 772 288 l 803 440 l 810 461 l 811 482 l 817 508 l 818 526 l 822 551 l 828 572 l 831 592 l 838 610 l 839 638 l 844 658 l 850 704 l 857 721 l 864 763 l 865 785 l 876 831 l 878 850 l 883 871 l 886 894 l 894 918 l 896 939 l 886 956 l 867 968 l 843 971 l 821 958 l 803 936 l 797 893 l 786 851 l 782 804 l 776 781 l 771 747 l 763 718 l 763 699 l 749 631 l 747 608 l 739 585 l 738 544 l 726 496 l 725 475 l 710 415 l 710 390 l 692 303 l 681 194 l 676 175 l 676 154 l 674 133 l 669 110 l 664 111 l 661 132 l 663 156 l 635 344 l 633 369 l 617 456 l 614 479 l 610 497 l 603 519 l 589 608 l 583 633 l 582 651 l 576 676 l 571 700 l 567 722 l 565 742 l 556 783 l 551 831 l 539 872 l 533 917 l 529 939 l 515 958 l 490 969 l 464 972 l 433 960 l 417 933 l 413 913 l 411 892 l 406 874 l 400 849 l 396 829 l 394 807 l 378 717 l 376 699 l 368 654 l 361 631 l 358 586 l 346 546 l 344 521 l 332 454 l 331 438 l 322 411 l 318 390 l 317 368 l 308 325 l 307 303 l 300 272 l 294 236 l 296 219 l 292 200 l 292 174 l 285 132 l 283 111 l 279 110 l 272 174 l 267 199 l 265 219 l 265 240 l 246 346 l 244 367 l 236 413 l 229 431 l 225 451 l 224 475 l 213 540 l 201 586 l 201 613 l 190 651 l 182 719 l 172 753 l 165 783 l 165 808 l 158 829 l 157 849 l 150 871 l 140 938 l 126 960 l 101 969 l 75 972 l 51 958 l 46 940 l 50 915 l 56 896 l 78 764 l 83 743 l 85 718 l 93 700 l 101 658 l 103 633 l 110 614 l 115 593 l 124 526 l 149 400 l 153 374 l 163 332 l 165 311 l 172 290 l 174 267 l 179 233 l 188 201 l 189 181 l 200 138 l 203 113 l 218 31 l 233 11 l 257 0 l 276 -4 l 300 -1 l 322 10 l 336 31 l 356 140 l 357 164 l 363 186 l 369 206 l 371 229 l 376 250 l 378 272 l 383 293 l 399 403 l 406 426 l 418 493 l 418 515 l 426 549 l 453 733 l 458 758 l 461 778 l 461 803 l 468 849 l 474 849 l 482 779 l 483 758 l 500 626 l 507 601 l 508 583 l 515 560 l 515 535 l 531 474 l 535 429 l 539 408 l 546 383 l 547 363 l 556 340 l 556 315 l 564 272 l 569 249 l 607 28 l 621 8 l 644 -3 z m 581 1039 l 601 1040 l 618 1044 l 613 1064 l 600 1081 l 578 1103 l 558 1125 l 544 1144 l 519 1160 l 490 1168 l 467 1167 l 439 1158 l 411 1144 l 399 1124 l 383 1113 l 369 1096 l 358 1083 l 342 1064 l 342 1043 l 357 1039 l 378 1042 l 404 1047 l 429 1064 l 446 1081 l 456 1100 l 479 1110 l 499 1100 l 515 1085 l 529 1067 l 553 1047 z "},"Ẅ":{"ha":946,"x_min":0,"x_max":0,"o":"m 689 -6 l 714 7 l 728 31 l 731 50 l 736 72 l 742 114 l 772 268 l 772 288 l 803 440 l 810 461 l 811 482 l 817 508 l 818 526 l 822 551 l 828 572 l 831 592 l 838 610 l 839 638 l 844 658 l 850 704 l 857 721 l 864 763 l 865 785 l 876 831 l 878 850 l 883 871 l 886 894 l 894 918 l 896 939 l 886 956 l 867 968 l 843 971 l 821 958 l 803 936 l 797 893 l 786 851 l 782 804 l 776 781 l 771 747 l 763 718 l 763 699 l 749 631 l 747 608 l 739 585 l 738 544 l 726 496 l 725 475 l 710 415 l 710 390 l 692 303 l 681 194 l 676 175 l 676 154 l 674 133 l 669 110 l 664 111 l 661 132 l 663 156 l 635 344 l 633 369 l 617 456 l 614 479 l 610 497 l 603 519 l 589 608 l 583 633 l 582 651 l 576 676 l 571 700 l 567 722 l 565 742 l 556 783 l 551 831 l 539 872 l 533 917 l 529 939 l 515 958 l 490 969 l 464 972 l 433 960 l 417 933 l 413 913 l 411 892 l 406 874 l 400 849 l 396 829 l 394 807 l 378 717 l 376 699 l 368 654 l 361 631 l 358 586 l 346 546 l 344 521 l 332 454 l 331 438 l 322 411 l 318 390 l 317 368 l 308 325 l 307 303 l 300 272 l 294 236 l 296 219 l 292 200 l 292 174 l 285 132 l 283 111 l 279 110 l 272 174 l 267 199 l 265 219 l 265 240 l 246 346 l 244 367 l 236 413 l 229 431 l 225 451 l 224 475 l 213 540 l 201 586 l 201 613 l 190 651 l 182 719 l 172 753 l 165 783 l 165 808 l 158 829 l 157 849 l 150 871 l 140 938 l 126 960 l 101 969 l 75 972 l 51 958 l 46 940 l 50 915 l 56 896 l 78 764 l 83 743 l 85 718 l 93 700 l 101 658 l 103 633 l 110 614 l 115 593 l 124 526 l 149 400 l 153 374 l 163 332 l 165 311 l 172 290 l 174 267 l 179 233 l 188 201 l 189 181 l 200 138 l 203 113 l 218 31 l 233 11 l 257 0 l 276 -4 l 300 -1 l 322 10 l 336 31 l 356 140 l 357 164 l 363 186 l 369 206 l 371 229 l 376 250 l 378 272 l 383 293 l 399 403 l 406 426 l 418 493 l 418 515 l 426 549 l 453 733 l 458 758 l 461 778 l 461 803 l 468 849 l 474 849 l 482 779 l 483 758 l 500 626 l 507 601 l 508 583 l 515 560 l 515 535 l 531 474 l 535 429 l 539 408 l 546 383 l 547 363 l 556 340 l 556 315 l 564 272 l 569 249 l 607 28 l 621 8 l 644 -3 z m 558 1054 l 583 1057 l 601 1068 l 606 1101 l 600 1131 l 588 1147 l 557 1153 l 529 1143 l 514 1129 l 508 1101 l 515 1074 l 526 1060 z m 394 1057 l 421 1063 l 433 1074 l 442 1104 l 436 1131 l 422 1149 l 396 1151 l 365 1140 l 350 1128 l 346 1103 l 350 1072 l 365 1064 z "},"Ẁ":{"ha":946,"x_min":0,"x_max":0,"o":"m 689 -6 l 714 7 l 728 31 l 731 50 l 736 72 l 742 114 l 772 268 l 772 288 l 803 440 l 810 461 l 811 482 l 817 508 l 818 526 l 822 551 l 828 572 l 831 592 l 838 610 l 839 638 l 844 658 l 850 704 l 857 721 l 864 763 l 865 785 l 876 831 l 878 850 l 883 871 l 886 894 l 894 918 l 896 939 l 886 956 l 867 968 l 843 971 l 821 958 l 803 936 l 797 893 l 786 851 l 782 804 l 776 781 l 771 747 l 763 718 l 763 699 l 749 631 l 747 608 l 739 585 l 738 544 l 726 496 l 725 475 l 710 415 l 710 390 l 692 303 l 681 194 l 676 175 l 676 154 l 674 133 l 669 110 l 664 111 l 661 132 l 663 156 l 635 344 l 633 369 l 617 456 l 614 479 l 610 497 l 603 519 l 589 608 l 583 633 l 582 651 l 576 676 l 571 700 l 567 722 l 565 742 l 556 783 l 551 831 l 539 872 l 533 917 l 529 939 l 515 958 l 490 969 l 464 972 l 433 960 l 417 933 l 413 913 l 411 892 l 406 874 l 400 849 l 396 829 l 394 807 l 378 717 l 376 699 l 368 654 l 361 631 l 358 586 l 346 546 l 344 521 l 332 454 l 331 438 l 322 411 l 318 390 l 317 368 l 308 325 l 307 303 l 300 272 l 294 236 l 296 219 l 292 200 l 292 174 l 285 132 l 283 111 l 279 110 l 272 174 l 267 199 l 265 219 l 265 240 l 246 346 l 244 367 l 236 413 l 229 431 l 225 451 l 224 475 l 213 540 l 201 586 l 201 613 l 190 651 l 182 719 l 172 753 l 165 783 l 165 808 l 158 829 l 157 849 l 150 871 l 140 938 l 126 960 l 101 969 l 75 972 l 51 958 l 46 940 l 50 915 l 56 896 l 78 764 l 83 743 l 85 718 l 93 700 l 101 658 l 103 633 l 110 614 l 115 593 l 124 526 l 149 400 l 153 374 l 163 332 l 165 311 l 172 290 l 174 267 l 179 233 l 188 201 l 189 181 l 200 138 l 203 113 l 218 31 l 233 11 l 257 0 l 276 -4 l 300 -1 l 322 10 l 336 31 l 356 140 l 357 164 l 363 186 l 369 206 l 371 229 l 376 250 l 378 272 l 383 293 l 399 403 l 406 426 l 418 493 l 418 515 l 426 549 l 453 733 l 458 758 l 461 778 l 461 803 l 468 849 l 474 849 l 482 779 l 483 758 l 500 626 l 507 601 l 508 583 l 515 560 l 515 535 l 531 474 l 535 429 l 539 408 l 546 383 l 547 363 l 556 340 l 556 315 l 564 272 l 569 249 l 607 28 l 621 8 l 644 -3 z m 482 1038 l 499 1047 l 500 1068 l 486 1086 l 479 1106 l 469 1122 l 460 1139 l 440 1160 l 414 1171 l 388 1168 l 372 1158 l 374 1143 l 386 1118 l 403 1103 l 411 1083 l 424 1069 l 449 1051 z "},"X":{"ha":606,"x_min":0,"x_max":0,"o":"m 71 -4 l 94 -3 l 118 13 l 146 43 l 158 72 l 165 92 l 175 108 l 181 133 l 201 175 l 251 306 l 260 342 l 276 378 l 282 397 l 293 421 l 300 440 l 308 439 l 315 422 l 322 399 l 332 378 l 336 358 l 346 340 l 356 306 l 399 199 l 407 172 l 415 153 l 421 131 l 429 110 l 439 89 l 446 72 l 456 50 l 461 29 l 482 8 l 510 -3 l 538 -1 l 554 11 l 560 32 l 535 89 l 506 175 l 496 196 l 481 239 l 461 278 l 454 304 l 446 325 l 436 342 l 425 385 l 415 404 l 410 429 l 400 449 l 378 521 l 382 551 l 393 571 l 399 594 l 410 611 l 415 636 l 425 654 l 444 706 l 458 735 l 465 754 l 469 778 l 501 858 l 511 875 l 519 897 l 529 918 l 535 940 l 531 961 l 513 971 l 486 971 l 458 964 l 440 942 l 433 919 l 424 899 l 392 804 l 379 776 l 371 754 l 361 735 l 340 675 l 332 656 l 326 633 l 315 614 l 308 593 l 300 601 l 288 636 l 278 657 l 274 675 l 236 774 l 225 794 l 217 817 l 207 835 l 194 879 l 185 897 l 179 918 l 171 940 l 149 963 l 118 972 l 93 974 l 74 961 l 74 938 l 78 917 l 86 899 l 93 876 l 108 847 l 118 817 l 146 754 l 176 669 l 186 654 l 192 629 l 214 568 l 224 550 l 229 515 l 226 489 l 201 421 l 183 385 l 176 364 l 150 301 l 144 278 l 135 256 l 131 239 l 88 131 l 76 114 l 69 93 l 64 71 l 49 29 l 50 10 z "},"Y":{"ha":544,"x_min":0,"x_max":0,"o":"m 285 -1 l 308 8 l 319 31 l 319 50 l 322 75 l 322 96 l 318 118 l 321 165 l 321 186 l 322 210 l 319 247 l 324 413 l 331 444 l 347 489 l 356 506 l 369 550 l 385 589 l 389 610 l 397 633 l 408 653 l 426 715 l 460 796 l 465 817 l 475 835 l 511 940 l 507 960 l 489 975 l 463 975 l 435 958 l 417 938 l 408 918 l 396 875 l 385 853 l 381 835 l 363 790 l 350 747 l 339 725 l 328 676 l 299 594 l 289 579 l 276 539 l 269 543 l 260 564 l 254 585 l 232 643 l 217 697 l 157 847 l 151 881 l 142 897 l 126 939 l 108 963 l 81 968 l 54 971 l 33 958 l 29 939 l 36 918 l 54 879 l 75 814 l 94 775 l 101 757 l 110 739 l 122 694 l 132 674 l 138 654 l 157 613 l 165 590 l 181 538 l 192 511 l 203 490 l 211 469 l 226 417 l 231 319 l 228 251 l 231 219 l 228 188 l 229 164 l 226 118 l 229 31 l 240 11 l 263 3 z "},"Ý":{"ha":544,"x_min":0,"x_max":0,"o":"m 285 -1 l 308 8 l 319 31 l 319 50 l 322 75 l 322 96 l 318 118 l 321 165 l 321 186 l 322 210 l 319 247 l 324 413 l 331 444 l 347 489 l 356 506 l 369 550 l 385 589 l 389 610 l 397 633 l 408 653 l 426 715 l 460 796 l 465 817 l 475 835 l 511 940 l 507 960 l 489 975 l 463 975 l 435 958 l 417 938 l 408 918 l 396 875 l 385 853 l 381 835 l 363 790 l 350 747 l 339 725 l 328 676 l 299 594 l 289 579 l 276 539 l 269 543 l 260 564 l 254 585 l 232 643 l 217 697 l 157 847 l 151 881 l 142 897 l 126 939 l 108 963 l 81 968 l 54 971 l 33 958 l 29 939 l 36 918 l 54 879 l 75 814 l 94 775 l 101 757 l 110 739 l 122 694 l 132 674 l 138 654 l 157 613 l 165 590 l 181 538 l 192 511 l 203 490 l 211 469 l 226 417 l 231 319 l 228 251 l 231 219 l 228 188 l 229 164 l 226 118 l 229 31 l 240 11 l 263 3 z m 243 1040 l 272 1047 l 296 1069 l 308 1088 l 319 1101 l 333 1121 l 346 1139 l 346 1156 l 335 1169 l 311 1169 l 286 1157 l 263 1140 l 254 1122 l 243 1104 l 225 1068 l 225 1050 z "},"Ŷ":{"ha":544,"x_min":0,"x_max":0,"o":"m 285 -1 l 308 8 l 319 31 l 319 50 l 322 75 l 322 96 l 318 118 l 321 165 l 321 186 l 322 210 l 319 247 l 324 413 l 331 444 l 347 489 l 356 506 l 369 550 l 385 589 l 389 610 l 397 633 l 408 653 l 426 715 l 460 796 l 465 817 l 475 835 l 511 940 l 507 960 l 489 975 l 463 975 l 435 958 l 417 938 l 408 918 l 396 875 l 385 853 l 381 835 l 363 790 l 350 747 l 339 725 l 328 676 l 299 594 l 289 579 l 276 539 l 269 543 l 260 564 l 254 585 l 232 643 l 217 697 l 157 847 l 151 881 l 142 897 l 126 939 l 108 963 l 81 968 l 54 971 l 33 958 l 29 939 l 36 918 l 54 879 l 75 814 l 94 775 l 101 757 l 110 739 l 122 694 l 132 674 l 138 654 l 157 613 l 165 590 l 181 538 l 192 511 l 203 490 l 211 469 l 226 417 l 231 319 l 228 251 l 231 219 l 228 188 l 229 164 l 226 118 l 229 31 l 240 11 l 263 3 z m 371 1039 l 392 1040 l 408 1044 l 403 1064 l 390 1081 l 368 1103 l 349 1125 l 335 1144 l 310 1160 l 281 1168 l 257 1167 l 229 1158 l 201 1144 l 189 1124 l 174 1113 l 160 1096 l 149 1083 l 132 1064 l 132 1043 l 147 1039 l 168 1042 l 194 1047 l 219 1064 l 236 1081 l 246 1100 l 269 1110 l 289 1100 l 306 1085 l 319 1067 l 343 1047 z "},"Ÿ":{"ha":544,"x_min":0,"x_max":0,"o":"m 285 -1 l 308 8 l 319 31 l 319 50 l 322 75 l 322 96 l 318 118 l 321 165 l 321 186 l 322 210 l 319 247 l 324 413 l 331 444 l 347 489 l 356 506 l 369 550 l 385 589 l 389 610 l 397 633 l 408 653 l 426 715 l 460 796 l 465 817 l 475 835 l 511 940 l 507 960 l 489 975 l 463 975 l 435 958 l 417 938 l 408 918 l 396 875 l 385 853 l 381 835 l 363 790 l 350 747 l 339 725 l 328 676 l 299 594 l 289 579 l 276 539 l 269 543 l 260 564 l 254 585 l 232 643 l 217 697 l 157 847 l 151 881 l 142 897 l 126 939 l 108 963 l 81 968 l 54 971 l 33 958 l 29 939 l 36 918 l 54 879 l 75 814 l 94 775 l 101 757 l 110 739 l 122 694 l 132 674 l 138 654 l 157 613 l 165 590 l 181 538 l 192 511 l 203 490 l 211 469 l 226 417 l 231 319 l 228 251 l 231 219 l 228 188 l 229 164 l 226 118 l 229 31 l 240 11 l 263 3 z m 349 1054 l 374 1057 l 392 1068 l 396 1101 l 390 1131 l 378 1147 l 347 1153 l 319 1143 l 304 1129 l 299 1101 l 306 1074 l 317 1060 z m 185 1057 l 211 1063 l 224 1074 l 232 1104 l 226 1131 l 213 1149 l 186 1151 l 156 1140 l 140 1128 l 136 1103 l 140 1072 l 156 1064 z "},"Ỳ":{"ha":544,"x_min":0,"x_max":0,"o":"m 285 -1 l 308 8 l 319 31 l 319 50 l 322 75 l 322 96 l 318 118 l 321 165 l 321 186 l 322 210 l 319 247 l 324 413 l 331 444 l 347 489 l 356 506 l 369 550 l 385 589 l 389 610 l 397 633 l 408 653 l 426 715 l 460 796 l 465 817 l 475 835 l 511 940 l 507 960 l 489 975 l 463 975 l 435 958 l 417 938 l 408 918 l 396 875 l 385 853 l 381 835 l 363 790 l 350 747 l 339 725 l 328 676 l 299 594 l 289 579 l 276 539 l 269 543 l 260 564 l 254 585 l 232 643 l 217 697 l 157 847 l 151 881 l 142 897 l 126 939 l 108 963 l 81 968 l 54 971 l 33 958 l 29 939 l 36 918 l 54 879 l 75 814 l 94 775 l 101 757 l 110 739 l 122 694 l 132 674 l 138 654 l 157 613 l 165 590 l 181 538 l 192 511 l 203 490 l 211 469 l 226 417 l 231 319 l 228 251 l 231 219 l 228 188 l 229 164 l 226 118 l 229 31 l 240 11 l 263 3 z m 272 1038 l 289 1047 l 290 1068 l 276 1086 l 269 1106 l 260 1122 l 250 1139 l 231 1160 l 204 1171 l 178 1168 l 163 1158 l 164 1143 l 176 1118 l 193 1103 l 201 1083 l 214 1069 l 239 1051 z "},"Z":{"ha":544,"x_min":0,"x_max":0,"o":"m 88 -6 l 108 -1 l 129 1 l 165 0 l 186 3 l 206 1 l 231 3 l 282 -3 l 306 0 l 328 -3 l 353 -1 l 372 0 l 406 -3 l 463 -3 l 482 7 l 494 29 l 494 46 l 483 69 l 443 79 l 419 81 l 399 76 l 376 81 l 335 75 l 314 75 l 289 79 l 258 78 l 228 81 l 204 75 l 181 79 l 165 92 l 164 108 l 188 171 l 196 186 l 236 293 l 247 311 l 254 329 l 260 353 l 269 372 l 288 415 l 296 431 l 301 453 l 313 472 l 318 496 l 329 513 l 342 558 l 369 619 l 378 636 l 383 656 l 411 717 l 426 761 l 436 781 l 451 822 l 469 860 l 483 922 l 482 942 l 471 960 l 447 969 l 424 971 l 404 969 l 382 972 l 360 974 l 338 969 l 274 968 l 242 974 l 124 968 l 100 974 l 81 965 l 68 932 l 81 901 l 101 894 l 126 894 l 168 890 l 215 892 l 239 894 l 264 892 l 283 894 l 307 894 l 331 892 l 351 892 l 371 886 l 374 863 l 365 840 l 360 821 l 340 782 l 325 738 l 314 717 l 307 701 l 300 678 l 288 654 l 279 636 l 274 617 l 265 599 l 258 576 l 247 556 l 225 493 l 215 478 l 207 454 l 203 432 l 183 393 l 176 369 l 168 353 l 158 329 l 139 293 l 133 269 l 122 251 l 117 232 l 110 211 l 100 189 l 93 167 l 82 146 l 67 107 l 61 74 l 54 44 l 53 26 l 67 7 z "},"Ź":{"ha":544,"x_min":0,"x_max":0,"o":"m 88 -6 l 108 -1 l 129 1 l 165 0 l 186 3 l 206 1 l 231 3 l 282 -3 l 306 0 l 328 -3 l 353 -1 l 372 0 l 406 -3 l 463 -3 l 482 7 l 494 29 l 494 46 l 483 69 l 443 79 l 419 81 l 399 76 l 376 81 l 335 75 l 314 75 l 289 79 l 258 78 l 228 81 l 204 75 l 181 79 l 165 92 l 164 108 l 188 171 l 196 186 l 236 293 l 247 311 l 254 329 l 260 353 l 269 372 l 288 415 l 296 431 l 301 453 l 313 472 l 318 496 l 329 513 l 342 558 l 369 619 l 378 636 l 383 656 l 411 717 l 426 761 l 436 781 l 451 822 l 469 860 l 483 922 l 482 942 l 471 960 l 447 969 l 424 971 l 404 969 l 382 972 l 360 974 l 338 969 l 274 968 l 242 974 l 124 968 l 100 974 l 81 965 l 68 932 l 81 901 l 101 894 l 126 894 l 168 890 l 215 892 l 239 894 l 264 892 l 283 894 l 307 894 l 331 892 l 351 892 l 371 886 l 374 863 l 365 840 l 360 821 l 340 782 l 325 738 l 314 717 l 307 701 l 300 678 l 288 654 l 279 636 l 274 617 l 265 599 l 258 576 l 247 556 l 225 493 l 215 478 l 207 454 l 203 432 l 183 393 l 176 369 l 168 353 l 158 329 l 139 293 l 133 269 l 122 251 l 117 232 l 110 211 l 100 189 l 93 167 l 82 146 l 67 107 l 61 74 l 54 44 l 53 26 l 67 7 z m 253 1040 l 282 1047 l 306 1069 l 318 1088 l 329 1101 l 343 1121 l 356 1139 l 356 1156 l 344 1169 l 321 1169 l 296 1157 l 272 1140 l 264 1122 l 253 1104 l 235 1068 l 235 1050 z "},"Ž":{"ha":544,"x_min":0,"x_max":0,"o":"m 88 -6 l 108 -1 l 129 1 l 165 0 l 186 3 l 206 1 l 231 3 l 282 -3 l 306 0 l 328 -3 l 353 -1 l 372 0 l 406 -3 l 463 -3 l 482 7 l 494 29 l 494 46 l 483 69 l 443 79 l 419 81 l 399 76 l 376 81 l 335 75 l 314 75 l 289 79 l 258 78 l 228 81 l 204 75 l 181 79 l 165 92 l 164 108 l 188 171 l 196 186 l 236 293 l 247 311 l 254 329 l 260 353 l 269 372 l 288 415 l 296 431 l 301 453 l 313 472 l 318 496 l 329 513 l 342 558 l 369 619 l 378 636 l 383 656 l 411 717 l 426 761 l 436 781 l 451 822 l 469 860 l 483 922 l 482 942 l 471 960 l 447 969 l 424 971 l 404 969 l 382 972 l 360 974 l 338 969 l 274 968 l 242 974 l 124 968 l 100 974 l 81 965 l 68 932 l 81 901 l 101 894 l 126 894 l 168 890 l 215 892 l 239 894 l 264 892 l 283 894 l 307 894 l 331 892 l 351 892 l 371 886 l 374 863 l 365 840 l 360 821 l 340 782 l 325 738 l 314 717 l 307 701 l 300 678 l 288 654 l 279 636 l 274 617 l 265 599 l 258 576 l 247 556 l 225 493 l 215 478 l 207 454 l 203 432 l 183 393 l 176 369 l 168 353 l 158 329 l 139 293 l 133 269 l 122 251 l 117 232 l 110 211 l 100 189 l 93 167 l 82 146 l 67 107 l 61 74 l 54 44 l 53 26 l 67 7 z m 265 1039 l 289 1039 l 315 1046 l 342 1063 l 356 1079 l 369 1093 l 379 1111 l 393 1126 l 407 1143 l 407 1163 l 389 1168 l 357 1160 l 332 1143 l 318 1124 l 300 1106 l 279 1097 l 256 1110 l 239 1124 l 224 1144 l 197 1160 l 165 1169 l 146 1158 l 146 1140 l 163 1126 l 183 1103 l 200 1081 l 217 1064 l 238 1049 z "},"Ż":{"ha":544,"x_min":0,"x_max":0,"o":"m 88 -6 l 108 -1 l 129 1 l 165 0 l 186 3 l 206 1 l 231 3 l 282 -3 l 306 0 l 328 -3 l 353 -1 l 372 0 l 406 -3 l 463 -3 l 482 7 l 494 29 l 494 46 l 483 69 l 443 79 l 419 81 l 399 76 l 376 81 l 335 75 l 314 75 l 289 79 l 258 78 l 228 81 l 204 75 l 181 79 l 165 92 l 164 108 l 188 171 l 196 186 l 236 293 l 247 311 l 254 329 l 260 353 l 269 372 l 288 415 l 296 431 l 301 453 l 313 472 l 318 496 l 329 513 l 342 558 l 369 619 l 378 636 l 383 656 l 411 717 l 426 761 l 436 781 l 451 822 l 469 860 l 483 922 l 482 942 l 471 960 l 447 969 l 424 971 l 404 969 l 382 972 l 360 974 l 338 969 l 274 968 l 242 974 l 124 968 l 100 974 l 81 965 l 68 932 l 81 901 l 101 894 l 126 894 l 168 890 l 215 892 l 239 894 l 264 892 l 283 894 l 307 894 l 331 892 l 351 892 l 371 886 l 374 863 l 365 840 l 360 821 l 340 782 l 325 738 l 314 717 l 307 701 l 300 678 l 288 654 l 279 636 l 274 617 l 265 599 l 258 576 l 247 556 l 225 493 l 215 478 l 207 454 l 203 432 l 183 393 l 176 369 l 168 353 l 158 329 l 139 293 l 133 269 l 122 251 l 117 232 l 110 211 l 100 189 l 93 167 l 82 146 l 67 107 l 61 74 l 54 44 l 53 26 l 67 7 z m 275 1054 l 303 1056 l 318 1072 l 324 1101 l 319 1129 l 304 1150 l 272 1153 l 243 1146 l 231 1131 l 224 1101 l 232 1069 l 244 1060 z "},"a":{"ha":550,"x_min":0,"x_max":0,"o":"m 253 -15 l 289 -4 l 321 8 l 339 21 l 365 44 l 376 50 l 385 43 l 388 22 l 401 6 l 438 -3 l 467 7 l 472 29 l 468 65 l 467 86 l 468 107 l 465 154 l 468 224 l 465 239 l 468 279 l 467 339 l 465 358 l 467 375 l 468 414 l 465 442 l 465 472 l 460 511 l 451 550 l 443 571 l 435 589 l 411 624 l 396 636 l 382 644 l 357 657 l 329 664 l 308 671 l 251 672 l 232 671 l 211 665 l 194 664 l 158 649 l 142 639 l 124 631 l 110 619 l 99 599 l 101 576 l 110 565 l 128 554 l 147 558 l 183 581 l 210 590 l 240 597 l 269 594 l 299 596 l 317 592 l 332 579 l 347 568 l 358 554 l 365 539 l 371 517 l 374 499 l 376 479 l 381 439 l 369 421 l 350 414 l 332 417 l 306 414 l 276 415 l 238 410 l 217 406 l 163 381 l 146 371 l 129 354 l 115 343 l 103 328 l 93 313 l 81 296 l 74 275 l 67 260 l 61 239 l 58 221 l 56 201 l 56 142 l 57 122 l 67 88 l 76 67 l 96 35 l 110 24 l 125 13 l 140 3 l 158 -3 l 176 -10 l 196 -12 z m 238 61 l 210 64 l 190 72 l 174 82 l 163 94 l 149 129 l 146 146 l 146 178 l 149 228 l 151 246 l 160 264 l 168 278 l 181 294 l 193 308 l 225 331 l 260 340 l 279 347 l 351 344 l 369 339 l 379 315 l 379 300 l 378 203 l 379 183 l 379 165 l 372 140 l 361 118 l 347 103 l 318 85 l 283 68 l 267 63 z "},"á":{"ha":550,"x_min":0,"x_max":0,"o":"m 253 -15 l 289 -4 l 321 8 l 339 21 l 365 44 l 376 50 l 385 43 l 388 22 l 401 6 l 438 -3 l 467 7 l 472 29 l 468 65 l 467 86 l 468 107 l 465 154 l 468 224 l 465 239 l 468 279 l 467 339 l 465 358 l 467 375 l 468 414 l 465 442 l 465 472 l 460 511 l 451 550 l 443 571 l 435 589 l 411 624 l 396 636 l 382 644 l 357 657 l 329 664 l 308 671 l 251 672 l 232 671 l 211 665 l 194 664 l 158 649 l 142 639 l 124 631 l 110 619 l 99 599 l 101 576 l 110 565 l 128 554 l 147 558 l 183 581 l 210 590 l 240 597 l 269 594 l 299 596 l 317 592 l 332 579 l 347 568 l 358 554 l 365 539 l 371 517 l 374 499 l 376 479 l 381 439 l 369 421 l 350 414 l 332 417 l 306 414 l 276 415 l 238 410 l 217 406 l 163 381 l 146 371 l 129 354 l 115 343 l 103 328 l 93 313 l 81 296 l 74 275 l 67 260 l 61 239 l 58 221 l 56 201 l 56 142 l 57 122 l 67 88 l 76 67 l 96 35 l 110 24 l 125 13 l 140 3 l 158 -3 l 176 -10 l 196 -12 z m 238 61 l 210 64 l 190 72 l 174 82 l 163 94 l 149 129 l 146 146 l 146 178 l 149 228 l 151 246 l 160 264 l 168 278 l 181 294 l 193 308 l 225 331 l 260 340 l 279 347 l 351 344 l 369 339 l 379 315 l 379 300 l 378 203 l 379 183 l 379 165 l 372 140 l 361 118 l 347 103 l 318 85 l 283 68 l 267 63 z m 242 750 l 271 757 l 294 779 l 307 797 l 318 811 l 332 831 l 344 849 l 344 865 l 333 879 l 310 879 l 285 867 l 261 850 l 253 832 l 242 814 l 224 778 l 224 760 z "},"ă":{"ha":550,"x_min":0,"x_max":0,"o":"m 253 -15 l 289 -4 l 321 8 l 339 21 l 365 44 l 376 50 l 385 43 l 388 22 l 401 6 l 438 -3 l 467 7 l 472 29 l 468 65 l 467 86 l 468 107 l 465 154 l 468 224 l 465 239 l 468 279 l 467 339 l 465 358 l 467 375 l 468 414 l 465 442 l 465 472 l 460 511 l 451 550 l 443 571 l 435 589 l 411 624 l 396 636 l 382 644 l 357 657 l 329 664 l 308 671 l 251 672 l 232 671 l 211 665 l 194 664 l 158 649 l 142 639 l 124 631 l 110 619 l 99 599 l 101 576 l 110 565 l 128 554 l 147 558 l 183 581 l 210 590 l 240 597 l 269 594 l 299 596 l 317 592 l 332 579 l 347 568 l 358 554 l 365 539 l 371 517 l 374 499 l 376 479 l 381 439 l 369 421 l 350 414 l 332 417 l 306 414 l 276 415 l 238 410 l 217 406 l 163 381 l 146 371 l 129 354 l 115 343 l 103 328 l 93 313 l 81 296 l 74 275 l 67 260 l 61 239 l 58 221 l 56 201 l 56 142 l 57 122 l 67 88 l 76 67 l 96 35 l 110 24 l 125 13 l 140 3 l 158 -3 l 176 -10 l 196 -12 z m 238 61 l 210 64 l 190 72 l 174 82 l 163 94 l 149 129 l 146 146 l 146 178 l 149 228 l 151 246 l 160 264 l 168 278 l 181 294 l 193 308 l 225 331 l 260 340 l 279 347 l 351 344 l 369 339 l 379 315 l 379 300 l 378 203 l 379 183 l 379 165 l 372 140 l 361 118 l 347 103 l 318 85 l 283 68 l 267 63 z m 267 749 l 300 751 l 318 756 l 338 763 l 356 772 l 372 782 l 392 793 l 403 811 l 406 839 l 396 863 l 376 860 l 354 851 l 342 835 l 319 821 l 301 815 l 268 813 l 233 817 l 215 822 l 194 838 l 179 851 l 157 865 l 135 863 l 125 835 l 128 815 l 142 797 l 158 786 l 174 774 l 193 763 l 215 756 l 235 756 z "},"â":{"ha":550,"x_min":0,"x_max":0,"o":"m 253 -15 l 289 -4 l 321 8 l 339 21 l 365 44 l 376 50 l 385 43 l 388 22 l 401 6 l 438 -3 l 467 7 l 472 29 l 468 65 l 467 86 l 468 107 l 465 154 l 468 224 l 465 239 l 468 279 l 467 339 l 465 358 l 467 375 l 468 414 l 465 442 l 465 472 l 460 511 l 451 550 l 443 571 l 435 589 l 411 624 l 396 636 l 382 644 l 357 657 l 329 664 l 308 671 l 251 672 l 232 671 l 211 665 l 194 664 l 158 649 l 142 639 l 124 631 l 110 619 l 99 599 l 101 576 l 110 565 l 128 554 l 147 558 l 183 581 l 210 590 l 240 597 l 269 594 l 299 596 l 317 592 l 332 579 l 347 568 l 358 554 l 365 539 l 371 517 l 374 499 l 376 479 l 381 439 l 369 421 l 350 414 l 332 417 l 306 414 l 276 415 l 238 410 l 217 406 l 163 381 l 146 371 l 129 354 l 115 343 l 103 328 l 93 313 l 81 296 l 74 275 l 67 260 l 61 239 l 58 221 l 56 201 l 56 142 l 57 122 l 67 88 l 76 67 l 96 35 l 110 24 l 125 13 l 140 3 l 158 -3 l 176 -10 l 196 -12 z m 238 61 l 210 64 l 190 72 l 174 82 l 163 94 l 149 129 l 146 146 l 146 178 l 149 228 l 151 246 l 160 264 l 168 278 l 181 294 l 193 308 l 225 331 l 260 340 l 279 347 l 351 344 l 369 339 l 379 315 l 379 300 l 378 203 l 379 183 l 379 165 l 372 140 l 361 118 l 347 103 l 318 85 l 283 68 l 267 63 z m 369 749 l 390 750 l 407 754 l 401 774 l 389 790 l 367 813 l 347 835 l 333 854 l 308 869 l 279 878 l 256 876 l 228 868 l 200 854 l 188 833 l 172 822 l 158 806 l 147 793 l 131 774 l 131 753 l 146 749 l 167 751 l 193 757 l 218 774 l 235 790 l 244 810 l 268 819 l 288 810 l 304 794 l 318 776 l 342 757 z "},"ä":{"ha":550,"x_min":0,"x_max":0,"o":"m 253 -15 l 289 -4 l 321 8 l 339 21 l 365 44 l 376 50 l 385 43 l 388 22 l 401 6 l 438 -3 l 467 7 l 472 29 l 468 65 l 467 86 l 468 107 l 465 154 l 468 224 l 465 239 l 468 279 l 467 339 l 465 358 l 467 375 l 468 414 l 465 442 l 465 472 l 460 511 l 451 550 l 443 571 l 435 589 l 411 624 l 396 636 l 382 644 l 357 657 l 329 664 l 308 671 l 251 672 l 232 671 l 211 665 l 194 664 l 158 649 l 142 639 l 124 631 l 110 619 l 99 599 l 101 576 l 110 565 l 128 554 l 147 558 l 183 581 l 210 590 l 240 597 l 269 594 l 299 596 l 317 592 l 332 579 l 347 568 l 358 554 l 365 539 l 371 517 l 374 499 l 376 479 l 381 439 l 369 421 l 350 414 l 332 417 l 306 414 l 276 415 l 238 410 l 217 406 l 163 381 l 146 371 l 129 354 l 115 343 l 103 328 l 93 313 l 81 296 l 74 275 l 67 260 l 61 239 l 58 221 l 56 201 l 56 142 l 57 122 l 67 88 l 76 67 l 96 35 l 110 24 l 125 13 l 140 3 l 158 -3 l 176 -10 l 196 -12 z m 238 61 l 210 64 l 190 72 l 174 82 l 163 94 l 149 129 l 146 146 l 146 178 l 149 228 l 151 246 l 160 264 l 168 278 l 181 294 l 193 308 l 225 331 l 260 340 l 279 347 l 351 344 l 369 339 l 379 315 l 379 300 l 378 203 l 379 183 l 379 165 l 372 140 l 361 118 l 347 103 l 318 85 l 283 68 l 267 63 z m 347 764 l 372 767 l 390 778 l 394 811 l 389 840 l 376 857 l 346 863 l 318 853 l 303 839 l 297 811 l 304 783 l 315 769 z m 183 767 l 210 772 l 222 783 l 231 814 l 225 840 l 211 858 l 185 861 l 154 850 l 139 838 l 135 813 l 139 782 l 154 774 z "},"à":{"ha":550,"x_min":0,"x_max":0,"o":"m 253 -15 l 289 -4 l 321 8 l 339 21 l 365 44 l 376 50 l 385 43 l 388 22 l 401 6 l 438 -3 l 467 7 l 472 29 l 468 65 l 467 86 l 468 107 l 465 154 l 468 224 l 465 239 l 468 279 l 467 339 l 465 358 l 467 375 l 468 414 l 465 442 l 465 472 l 460 511 l 451 550 l 443 571 l 435 589 l 411 624 l 396 636 l 382 644 l 357 657 l 329 664 l 308 671 l 251 672 l 232 671 l 211 665 l 194 664 l 158 649 l 142 639 l 124 631 l 110 619 l 99 599 l 101 576 l 110 565 l 128 554 l 147 558 l 183 581 l 210 590 l 240 597 l 269 594 l 299 596 l 317 592 l 332 579 l 347 568 l 358 554 l 365 539 l 371 517 l 374 499 l 376 479 l 381 439 l 369 421 l 350 414 l 332 417 l 306 414 l 276 415 l 238 410 l 217 406 l 163 381 l 146 371 l 129 354 l 115 343 l 103 328 l 93 313 l 81 296 l 74 275 l 67 260 l 61 239 l 58 221 l 56 201 l 56 142 l 57 122 l 67 88 l 76 67 l 96 35 l 110 24 l 125 13 l 140 3 l 158 -3 l 176 -10 l 196 -12 z m 238 61 l 210 64 l 190 72 l 174 82 l 163 94 l 149 129 l 146 146 l 146 178 l 149 228 l 151 246 l 160 264 l 168 278 l 181 294 l 193 308 l 225 331 l 260 340 l 279 347 l 351 344 l 369 339 l 379 315 l 379 300 l 378 203 l 379 183 l 379 165 l 372 140 l 361 118 l 347 103 l 318 85 l 283 68 l 267 63 z m 271 747 l 288 757 l 289 778 l 275 796 l 268 815 l 258 832 l 249 849 l 229 869 l 203 881 l 176 878 l 161 868 l 163 853 l 175 828 l 192 813 l 200 793 l 213 779 l 238 761 z "},"ā":{"ha":550,"x_min":0,"x_max":0,"o":"m 253 -15 l 289 -4 l 321 8 l 339 21 l 365 44 l 376 50 l 385 43 l 388 22 l 401 6 l 438 -3 l 467 7 l 472 29 l 468 65 l 467 86 l 468 107 l 465 154 l 468 224 l 465 239 l 468 279 l 467 339 l 465 358 l 467 375 l 468 414 l 465 442 l 465 472 l 460 511 l 451 550 l 443 571 l 435 589 l 411 624 l 396 636 l 382 644 l 357 657 l 329 664 l 308 671 l 251 672 l 232 671 l 211 665 l 194 664 l 158 649 l 142 639 l 124 631 l 110 619 l 99 599 l 101 576 l 110 565 l 128 554 l 147 558 l 183 581 l 210 590 l 240 597 l 269 594 l 299 596 l 317 592 l 332 579 l 347 568 l 358 554 l 365 539 l 371 517 l 374 499 l 376 479 l 381 439 l 369 421 l 350 414 l 332 417 l 306 414 l 276 415 l 238 410 l 217 406 l 163 381 l 146 371 l 129 354 l 115 343 l 103 328 l 93 313 l 81 296 l 74 275 l 67 260 l 61 239 l 58 221 l 56 201 l 56 142 l 57 122 l 67 88 l 76 67 l 96 35 l 110 24 l 125 13 l 140 3 l 158 -3 l 176 -10 l 196 -12 z m 238 61 l 210 64 l 190 72 l 174 82 l 163 94 l 149 129 l 146 146 l 146 178 l 149 228 l 151 246 l 160 264 l 168 278 l 181 294 l 193 308 l 225 331 l 260 340 l 279 347 l 351 344 l 369 339 l 379 315 l 379 300 l 378 203 l 379 183 l 379 165 l 372 140 l 361 118 l 347 103 l 318 85 l 283 68 l 267 63 z m 194 769 l 219 775 l 239 774 l 275 772 l 308 771 l 328 774 l 353 774 l 375 775 l 399 785 l 410 806 l 399 824 l 372 836 l 340 836 l 310 836 l 286 832 l 263 833 l 242 831 l 219 835 l 196 833 l 175 833 l 154 833 l 131 825 l 119 807 l 128 783 l 151 776 l 175 776 z "},"ą":{"ha":575,"x_min":0,"x_max":0,"o":"m 404 -304 l 442 -303 l 461 -299 l 479 -289 l 493 -275 l 497 -249 l 483 -239 l 463 -236 l 444 -242 l 428 -242 l 411 -237 l 399 -226 l 389 -203 l 385 -176 l 385 -158 l 397 -118 l 426 -68 l 438 -54 l 449 -39 l 461 -24 l 471 1 l 474 26 l 471 49 l 468 65 l 468 260 l 467 276 l 465 472 l 461 514 l 456 533 l 451 551 l 435 586 l 424 603 l 413 618 l 396 635 l 365 656 l 347 664 l 328 668 l 281 672 l 243 671 l 204 663 l 158 649 l 142 640 l 126 629 l 108 619 l 97 600 l 101 576 l 111 564 l 128 556 l 147 560 l 165 572 l 183 581 l 240 596 l 269 596 l 318 589 l 333 578 l 346 567 l 358 551 l 365 536 l 371 518 l 378 479 l 381 464 l 378 438 l 369 419 l 351 415 l 335 417 l 304 413 l 275 414 l 238 411 l 218 403 l 200 396 l 147 372 l 118 342 l 104 329 l 92 314 l 67 258 l 61 242 l 58 219 l 54 201 l 56 142 l 60 124 l 63 101 l 69 83 l 78 67 l 97 36 l 126 11 l 142 1 l 158 -6 l 178 -11 l 196 -14 l 225 -15 l 253 -12 l 271 -12 l 289 -7 l 308 0 l 324 10 l 339 24 l 353 33 l 365 46 l 378 53 l 388 39 l 389 21 l 397 6 l 399 -8 l 386 -26 l 375 -40 l 351 -75 l 343 -93 l 333 -108 l 326 -128 l 315 -164 l 313 -186 l 311 -206 l 317 -233 l 328 -260 l 339 -272 l 353 -285 l 369 -292 l 386 -301 z m 239 61 l 201 65 l 176 81 l 164 96 l 156 113 l 146 150 l 147 206 l 149 224 l 154 244 l 161 261 l 171 281 l 181 292 l 193 306 l 208 318 l 251 338 l 279 344 l 335 346 l 351 349 l 369 336 l 379 318 l 378 279 l 381 225 l 379 206 l 379 176 l 372 142 l 361 119 l 347 103 l 319 83 l 268 63 z "},"å":{"ha":550,"x_min":0,"x_max":0,"o":"m 253 -15 l 289 -4 l 321 8 l 339 21 l 365 44 l 376 50 l 385 43 l 388 22 l 401 6 l 438 -3 l 467 7 l 472 29 l 468 65 l 467 86 l 468 107 l 465 154 l 468 224 l 465 239 l 468 279 l 467 339 l 465 358 l 467 375 l 468 414 l 465 442 l 465 472 l 460 511 l 451 550 l 443 571 l 435 589 l 411 624 l 396 636 l 382 644 l 357 657 l 329 664 l 308 671 l 251 672 l 232 671 l 211 665 l 194 664 l 158 649 l 142 639 l 124 631 l 110 619 l 99 599 l 101 576 l 110 565 l 128 554 l 147 558 l 183 581 l 210 590 l 240 597 l 269 594 l 299 596 l 317 592 l 332 579 l 347 568 l 358 554 l 365 539 l 371 517 l 374 499 l 376 479 l 381 439 l 369 421 l 350 414 l 332 417 l 306 414 l 276 415 l 238 410 l 217 406 l 163 381 l 146 371 l 129 354 l 115 343 l 103 328 l 93 313 l 81 296 l 74 275 l 67 260 l 61 239 l 58 221 l 56 201 l 56 142 l 57 122 l 67 88 l 76 67 l 96 35 l 110 24 l 125 13 l 140 3 l 158 -3 l 176 -10 l 196 -12 z m 238 61 l 210 64 l 190 72 l 174 82 l 163 94 l 149 129 l 146 146 l 146 178 l 149 228 l 151 246 l 160 264 l 168 278 l 181 294 l 193 308 l 225 331 l 260 340 l 279 347 l 351 344 l 369 339 l 379 315 l 379 300 l 378 203 l 379 183 l 379 165 l 372 140 l 361 118 l 347 103 l 318 85 l 283 68 l 267 63 z m 268 722 l 301 726 l 322 733 l 342 746 l 354 768 l 367 790 l 367 819 l 364 856 l 356 876 l 338 897 l 322 910 l 301 919 l 267 921 l 229 921 l 211 908 l 196 893 l 178 878 l 171 857 l 164 821 l 169 789 l 178 768 l 193 746 l 211 735 l 233 724 z m 267 778 l 233 788 l 225 819 l 235 853 l 265 867 l 300 854 l 307 822 l 300 788 z "},"ã":{"ha":550,"x_min":0,"x_max":0,"o":"m 253 -15 l 289 -4 l 321 8 l 339 21 l 365 44 l 376 50 l 385 43 l 388 22 l 401 6 l 438 -3 l 467 7 l 472 29 l 468 65 l 467 86 l 468 107 l 465 154 l 468 224 l 465 239 l 468 279 l 467 339 l 465 358 l 467 375 l 468 414 l 465 442 l 465 472 l 460 511 l 451 550 l 443 571 l 435 589 l 411 624 l 396 636 l 382 644 l 357 657 l 329 664 l 308 671 l 251 672 l 232 671 l 211 665 l 194 664 l 158 649 l 142 639 l 124 631 l 110 619 l 99 599 l 101 576 l 110 565 l 128 554 l 147 558 l 183 581 l 210 590 l 240 597 l 269 594 l 299 596 l 317 592 l 332 579 l 347 568 l 358 554 l 365 539 l 371 517 l 374 499 l 376 479 l 381 439 l 369 421 l 350 414 l 332 417 l 306 414 l 276 415 l 238 410 l 217 406 l 163 381 l 146 371 l 129 354 l 115 343 l 103 328 l 93 313 l 81 296 l 74 275 l 67 260 l 61 239 l 58 221 l 56 201 l 56 142 l 57 122 l 67 88 l 76 67 l 96 35 l 110 24 l 125 13 l 140 3 l 158 -3 l 176 -10 l 196 -12 z m 238 61 l 210 64 l 190 72 l 174 82 l 163 94 l 149 129 l 146 146 l 146 178 l 149 228 l 151 246 l 160 264 l 168 278 l 181 294 l 193 308 l 225 331 l 260 340 l 279 347 l 351 344 l 369 339 l 379 315 l 379 300 l 378 203 l 379 183 l 379 165 l 372 140 l 361 118 l 347 103 l 318 85 l 283 68 l 267 63 z m 324 768 l 353 775 l 375 785 l 389 799 l 396 822 l 378 840 l 351 831 l 318 828 l 288 832 l 267 839 l 249 853 l 231 854 l 197 860 l 168 858 l 147 843 l 133 832 l 128 804 l 146 785 l 171 793 l 201 800 l 233 796 l 253 790 l 272 782 l 293 769 z "},"æ":{"ha":861,"x_min":0,"x_max":0,"o":"m 196 -14 l 224 -14 l 254 -11 l 274 -8 l 313 1 l 329 11 l 346 24 l 363 33 l 406 78 l 421 86 l 436 76 l 461 46 l 474 32 l 504 11 l 522 1 l 540 -6 l 557 -10 l 576 -14 l 628 -14 l 656 -12 l 674 -8 l 732 15 l 749 26 l 765 39 l 779 54 l 789 75 l 788 96 l 778 110 l 761 118 l 742 111 l 726 99 l 692 76 l 635 60 l 604 63 l 575 63 l 556 68 l 539 78 l 510 104 l 499 121 l 482 154 l 475 178 l 471 196 l 478 215 l 494 229 l 531 238 l 550 239 l 569 246 l 588 247 l 604 256 l 622 267 l 640 271 l 657 282 l 672 290 l 704 314 l 718 325 l 732 340 l 765 385 l 774 403 l 785 438 l 793 475 l 796 535 l 792 553 l 776 589 l 767 606 l 739 633 l 721 644 l 686 661 l 647 669 l 588 668 l 549 660 l 500 631 l 485 617 l 472 600 l 458 581 l 449 564 l 439 557 l 429 568 l 415 599 l 404 617 l 393 631 l 379 642 l 364 650 l 331 667 l 283 672 l 254 674 l 236 669 l 218 664 l 199 661 l 179 654 l 163 651 l 146 642 l 131 631 l 117 625 l 106 604 l 108 582 l 118 564 l 133 557 l 156 558 l 188 581 l 225 594 l 243 596 l 275 597 l 304 593 l 321 589 l 336 579 l 351 568 l 364 557 l 372 539 l 378 518 l 382 501 l 383 481 l 386 461 l 386 439 l 376 419 l 356 414 l 338 417 l 307 418 l 256 415 l 236 410 l 218 403 l 197 399 l 161 381 l 146 371 l 124 351 l 104 329 l 93 311 l 81 297 l 67 260 l 63 238 l 57 221 l 53 172 l 56 143 l 61 106 l 68 89 l 75 69 l 86 54 l 97 40 l 110 24 l 124 10 l 158 -6 l 178 -11 z m 239 63 l 208 64 l 190 68 l 163 96 l 154 110 l 146 149 l 143 178 l 147 224 l 153 243 l 161 261 l 181 294 l 192 307 l 207 322 l 225 331 l 243 338 l 261 340 l 279 344 l 339 346 l 358 344 l 375 335 l 385 315 l 386 293 l 386 275 l 388 253 l 388 235 l 392 214 l 392 197 l 390 167 l 382 140 l 354 110 l 339 96 l 322 86 l 286 68 l 267 63 z m 492 292 l 472 299 l 464 318 l 463 338 l 465 357 l 474 435 l 481 471 l 494 510 l 501 524 l 522 557 l 536 569 l 550 579 l 567 588 l 585 594 l 642 594 l 661 589 l 690 564 l 700 547 l 706 526 l 707 500 l 706 468 l 700 451 l 694 433 l 686 415 l 676 396 l 664 382 l 653 365 l 621 340 l 586 319 l 569 313 l 551 308 l 531 300 l 513 297 z "},"b":{"ha":603,"x_min":0,"x_max":0,"o":"m 328 -14 l 358 -14 l 378 -10 l 394 -6 l 413 6 l 429 13 l 444 22 l 472 53 l 492 82 l 511 118 l 518 139 l 522 157 l 528 174 l 532 194 l 539 253 l 540 274 l 543 292 l 544 371 l 542 389 l 543 410 l 533 489 l 528 507 l 524 528 l 515 546 l 510 563 l 492 597 l 468 622 l 453 638 l 424 656 l 389 669 l 369 669 l 340 674 l 313 672 l 290 668 l 272 661 l 253 656 l 235 647 l 215 638 l 199 626 l 185 625 l 175 642 l 176 682 l 174 700 l 175 726 l 174 749 l 175 847 l 169 943 l 157 963 l 140 972 l 121 969 l 103 971 l 89 963 l 82 943 l 85 925 l 85 904 l 86 886 l 89 826 l 86 810 l 86 789 l 88 760 l 86 701 l 88 682 l 86 663 l 86 643 l 88 625 l 86 529 l 88 511 l 86 492 l 88 463 l 88 386 l 86 365 l 89 231 l 86 210 l 86 189 l 89 151 l 86 124 l 88 71 l 82 31 l 88 10 l 103 -3 l 121 -3 l 136 1 l 158 10 l 171 32 l 179 46 l 194 43 l 211 29 l 228 21 l 243 10 l 260 -1 l 299 -10 z m 336 60 l 308 63 l 290 63 l 271 68 l 238 86 l 222 96 l 206 107 l 194 122 l 182 149 l 174 176 l 175 274 l 175 351 l 174 390 l 174 410 l 176 428 l 174 449 l 175 469 l 174 486 l 174 507 l 181 533 l 197 550 l 214 560 l 228 572 l 247 581 l 263 588 l 282 592 l 297 597 l 325 596 l 356 596 l 372 590 l 392 578 l 407 569 l 428 538 l 442 499 l 447 479 l 450 438 l 453 418 l 456 376 l 454 358 l 456 331 l 453 301 l 454 282 l 450 263 l 450 242 l 440 183 l 435 167 l 432 146 l 415 110 l 406 96 l 393 81 l 379 72 l 363 64 z "},"c":{"ha":515,"x_min":0,"x_max":0,"o":"m 318 -14 l 339 -12 l 357 -8 l 376 1 l 394 6 l 428 26 l 443 35 l 460 49 l 469 75 l 464 94 l 456 108 l 439 118 l 419 113 l 397 93 l 374 75 l 354 69 l 317 63 l 288 60 l 251 63 l 210 83 l 197 97 l 186 113 l 171 150 l 163 165 l 160 185 l 156 201 l 149 279 l 149 325 l 147 357 l 149 376 l 149 397 l 151 417 l 154 432 l 160 474 l 167 490 l 171 508 l 178 525 l 188 540 l 199 556 l 211 571 l 225 582 l 243 589 l 260 593 l 289 596 l 338 590 l 354 585 l 372 574 l 403 551 l 422 544 l 440 553 l 449 568 l 453 592 l 442 614 l 429 625 l 411 639 l 360 661 l 318 671 l 290 672 l 260 669 l 242 667 l 186 647 l 169 638 l 154 626 l 140 614 l 129 596 l 115 582 l 106 563 l 96 550 l 89 531 l 83 511 l 76 494 l 71 474 l 69 454 l 64 436 l 58 376 l 60 358 l 57 328 l 58 278 l 69 176 l 75 160 l 88 118 l 94 101 l 113 67 l 124 50 l 138 40 l 167 14 l 183 4 l 219 -8 l 260 -12 z "},"ć":{"ha":515,"x_min":0,"x_max":0,"o":"m 318 -14 l 339 -12 l 357 -8 l 376 1 l 394 6 l 428 26 l 443 35 l 460 49 l 469 75 l 464 94 l 456 108 l 439 118 l 419 113 l 397 93 l 374 75 l 354 69 l 317 63 l 288 60 l 251 63 l 210 83 l 197 97 l 186 113 l 171 150 l 163 165 l 160 185 l 156 201 l 149 279 l 149 325 l 147 357 l 149 376 l 149 397 l 151 417 l 154 432 l 160 474 l 167 490 l 171 508 l 178 525 l 188 540 l 199 556 l 211 571 l 225 582 l 243 589 l 260 593 l 289 596 l 338 590 l 354 585 l 372 574 l 403 551 l 422 544 l 440 553 l 449 568 l 453 592 l 442 614 l 429 625 l 411 639 l 360 661 l 318 671 l 290 672 l 260 669 l 242 667 l 186 647 l 169 638 l 154 626 l 140 614 l 129 596 l 115 582 l 106 563 l 96 550 l 89 531 l 83 511 l 76 494 l 71 474 l 69 454 l 64 436 l 58 376 l 60 358 l 57 328 l 58 278 l 69 176 l 75 160 l 88 118 l 94 101 l 113 67 l 124 50 l 138 40 l 167 14 l 183 4 l 219 -8 l 260 -12 z m 261 750 l 290 757 l 314 779 l 326 797 l 338 811 l 351 831 l 364 849 l 364 865 l 353 879 l 329 879 l 304 867 l 281 850 l 272 832 l 261 814 l 243 778 l 243 760 z "},"č":{"ha":515,"x_min":0,"x_max":0,"o":"m 318 -14 l 339 -12 l 357 -8 l 376 1 l 394 6 l 428 26 l 443 35 l 460 49 l 469 75 l 464 94 l 456 108 l 439 118 l 419 113 l 397 93 l 374 75 l 354 69 l 317 63 l 288 60 l 251 63 l 210 83 l 197 97 l 186 113 l 171 150 l 163 165 l 160 185 l 156 201 l 149 279 l 149 325 l 147 357 l 149 376 l 149 397 l 151 417 l 154 432 l 160 474 l 167 490 l 171 508 l 178 525 l 188 540 l 199 556 l 211 571 l 225 582 l 243 589 l 260 593 l 289 596 l 338 590 l 354 585 l 372 574 l 403 551 l 422 544 l 440 553 l 449 568 l 453 592 l 442 614 l 429 625 l 411 639 l 360 661 l 318 671 l 290 672 l 260 669 l 242 667 l 186 647 l 169 638 l 154 626 l 140 614 l 129 596 l 115 582 l 106 563 l 96 550 l 89 531 l 83 511 l 76 494 l 71 474 l 69 454 l 64 436 l 58 376 l 60 358 l 57 328 l 58 278 l 69 176 l 75 160 l 88 118 l 94 101 l 113 67 l 124 50 l 138 40 l 167 14 l 183 4 l 219 -8 l 260 -12 z m 274 749 l 297 749 l 324 756 l 350 772 l 364 789 l 378 803 l 388 821 l 401 836 l 415 853 l 415 872 l 397 878 l 365 869 l 340 853 l 326 833 l 308 815 l 288 807 l 264 819 l 247 833 l 232 854 l 206 869 l 174 879 l 154 868 l 154 850 l 171 836 l 192 813 l 208 790 l 225 774 l 246 758 z "},"ç":{"ha":515,"x_min":0,"x_max":0,"o":"m 292 -307 l 318 -304 l 339 -296 l 360 -290 l 381 -281 l 397 -261 l 422 -228 l 424 -156 l 414 -133 l 385 -101 l 364 -87 l 343 -81 l 322 -68 l 318 -43 l 329 -11 l 338 -11 l 356 -6 l 375 3 l 393 8 l 426 29 l 442 38 l 458 51 l 468 76 l 463 97 l 454 111 l 438 119 l 418 115 l 396 94 l 372 78 l 353 71 l 286 61 l 250 64 l 225 78 l 208 86 l 196 99 l 185 115 l 169 153 l 161 168 l 158 188 l 154 204 l 147 281 l 147 326 l 146 360 l 147 378 l 147 400 l 150 418 l 153 435 l 156 454 l 158 476 l 165 493 l 169 511 l 176 528 l 186 543 l 197 558 l 210 572 l 224 583 l 242 590 l 258 596 l 288 597 l 336 593 l 353 586 l 371 576 l 386 564 l 401 554 l 421 547 l 439 556 l 447 569 l 451 593 l 440 615 l 428 626 l 410 642 l 358 663 l 317 674 l 289 674 l 258 672 l 240 669 l 185 650 l 168 639 l 153 628 l 139 617 l 128 597 l 114 585 l 104 565 l 94 551 l 88 532 l 82 514 l 75 496 l 69 476 l 68 457 l 63 439 l 57 378 l 58 360 l 56 331 l 57 279 l 68 179 l 74 161 l 86 121 l 93 103 l 111 69 l 122 53 l 136 42 l 165 17 l 182 7 l 218 -6 l 258 -10 l 271 -10 l 247 -94 l 260 -119 l 286 -128 l 311 -131 l 331 -136 l 347 -151 l 354 -187 l 350 -215 l 336 -232 l 317 -242 l 296 -246 l 250 -236 l 226 -236 l 213 -262 l 229 -287 l 251 -300 l 271 -306 z "},"ċ":{"ha":515,"x_min":0,"x_max":0,"o":"m 318 -14 l 339 -12 l 357 -8 l 376 1 l 394 6 l 428 26 l 443 35 l 460 49 l 469 75 l 464 94 l 456 108 l 439 118 l 419 113 l 397 93 l 374 75 l 354 69 l 317 63 l 288 60 l 251 63 l 210 83 l 197 97 l 186 113 l 171 150 l 163 165 l 160 185 l 156 201 l 149 279 l 149 325 l 147 357 l 149 376 l 149 397 l 151 417 l 154 432 l 160 474 l 167 490 l 171 508 l 178 525 l 188 540 l 199 556 l 211 571 l 225 582 l 243 589 l 260 593 l 289 596 l 338 590 l 354 585 l 372 574 l 403 551 l 422 544 l 440 553 l 449 568 l 453 592 l 442 614 l 429 625 l 411 639 l 360 661 l 318 671 l 290 672 l 260 669 l 242 667 l 186 647 l 169 638 l 154 626 l 140 614 l 129 596 l 115 582 l 106 563 l 96 550 l 89 531 l 83 511 l 76 494 l 71 474 l 69 454 l 64 436 l 58 376 l 60 358 l 57 328 l 58 278 l 69 176 l 75 160 l 88 118 l 94 101 l 113 67 l 124 50 l 138 40 l 167 14 l 183 4 l 219 -8 l 260 -12 z m 283 764 l 311 765 l 326 782 l 332 811 l 328 839 l 313 860 l 281 863 l 251 856 l 239 840 l 232 811 l 240 779 l 253 769 z "},"d":{"ha":608,"x_min":0,"x_max":0,"o":"m 304 -14 l 342 -3 l 358 0 l 389 24 l 404 33 l 418 47 l 431 51 l 439 39 l 442 22 l 456 7 l 479 0 l 500 -3 l 517 8 l 525 28 l 519 104 l 519 251 l 518 274 l 521 460 l 518 482 l 519 536 l 518 589 l 519 607 l 518 636 l 519 657 l 519 706 l 518 724 l 519 803 l 518 850 l 519 871 l 517 889 l 518 908 l 513 944 l 501 963 l 475 971 l 447 971 l 432 963 l 426 942 l 429 922 l 428 906 l 431 883 l 432 864 l 432 843 l 429 826 l 433 703 l 431 671 l 432 653 l 422 639 l 407 639 l 393 647 l 356 663 l 339 665 l 319 671 l 289 671 l 261 669 l 240 665 l 222 663 l 206 656 l 188 646 l 172 633 l 156 625 l 140 611 l 106 565 l 83 510 l 72 469 l 69 451 l 65 432 l 63 411 l 63 393 l 60 371 l 57 351 l 57 293 l 60 253 l 67 217 l 69 194 l 78 151 l 86 133 l 90 115 l 108 83 l 121 65 l 131 49 l 144 35 l 158 22 l 193 6 l 211 -7 l 228 -11 l 249 -12 l 275 -12 z m 264 60 l 244 67 l 213 83 l 199 94 l 186 108 l 178 128 l 171 146 l 164 161 l 161 183 l 153 222 l 151 261 l 150 275 l 147 326 l 147 357 l 151 396 l 150 413 l 165 490 l 171 510 l 179 529 l 188 543 l 214 574 l 239 585 l 267 594 l 294 596 l 326 594 l 365 585 l 414 550 l 425 526 l 432 500 l 431 381 l 433 353 l 432 332 l 431 165 l 424 139 l 413 118 l 401 101 l 386 88 l 371 79 l 353 74 l 338 67 l 321 64 l 292 61 z "},"ð":{"ha":578,"x_min":0,"x_max":0,"o":"m 286 -17 l 317 -15 l 335 -8 l 371 0 l 397 11 l 419 26 l 432 40 l 457 71 l 468 88 l 485 122 l 490 142 l 497 157 l 501 175 l 504 194 l 510 218 l 517 272 l 517 488 l 514 564 l 510 582 l 508 600 l 494 679 l 493 699 l 488 718 l 481 735 l 476 754 l 469 774 l 461 792 l 453 807 l 444 825 l 435 840 l 422 856 l 413 872 l 407 896 l 411 914 l 422 929 l 425 949 l 415 972 l 392 976 l 371 972 l 358 956 l 340 944 l 318 949 l 283 963 l 246 971 l 228 978 l 211 979 l 189 974 l 178 956 l 174 938 l 182 918 l 197 906 l 250 890 l 267 882 l 278 868 l 271 850 l 260 832 l 232 803 l 226 782 l 239 760 l 261 756 l 283 765 l 310 794 l 322 811 l 343 818 l 361 811 l 372 796 l 383 779 l 401 744 l 418 686 l 421 667 l 425 647 l 426 626 l 425 615 l 414 621 l 385 642 l 369 651 l 351 660 l 333 665 l 317 669 l 261 672 l 222 663 l 204 657 l 169 635 l 140 614 l 129 597 l 115 582 l 106 568 l 71 474 l 68 453 l 61 414 l 57 378 l 57 356 l 58 328 l 57 300 l 60 275 l 60 257 l 61 238 l 65 217 l 67 197 l 78 158 l 97 103 l 106 89 l 118 71 l 142 42 l 154 28 l 171 19 l 186 8 l 203 -1 l 221 -6 l 242 -10 l 260 -15 z m 288 61 l 239 67 l 224 76 l 193 104 l 181 119 l 174 136 l 167 157 l 161 176 l 158 197 l 153 219 l 153 236 l 149 257 l 150 275 l 147 328 l 149 396 l 151 414 l 154 431 l 156 453 l 161 471 l 165 493 l 171 510 l 176 525 l 188 543 l 200 557 l 225 583 l 243 590 l 261 594 l 289 597 l 315 593 l 332 589 l 350 579 l 365 568 l 378 558 l 399 522 l 407 506 l 421 449 l 428 396 l 428 372 l 426 356 l 426 256 l 422 236 l 418 196 l 414 174 l 400 135 l 392 119 l 381 101 l 368 88 l 336 68 l 315 64 z "},"ď":{"ha":688,"x_min":0,"x_max":0,"o":"m 588 800 l 594 781 l 613 768 l 632 779 l 642 793 l 643 814 l 649 832 l 656 886 l 661 906 l 663 924 l 667 942 l 660 960 l 639 971 l 615 958 l 603 938 l 600 899 l 593 860 l 593 842 l 592 819 z m 304 -14 l 342 -3 l 358 0 l 389 24 l 404 33 l 418 47 l 431 51 l 439 39 l 442 22 l 456 7 l 479 0 l 500 -3 l 517 8 l 525 28 l 519 104 l 519 251 l 518 274 l 521 460 l 518 482 l 519 536 l 518 589 l 519 607 l 518 636 l 519 657 l 519 706 l 518 724 l 519 803 l 518 850 l 519 871 l 517 889 l 518 908 l 513 944 l 501 963 l 475 971 l 447 971 l 432 963 l 426 942 l 429 922 l 428 906 l 431 883 l 432 864 l 432 843 l 429 826 l 433 703 l 431 671 l 432 653 l 422 639 l 407 639 l 393 647 l 356 663 l 339 665 l 319 671 l 289 671 l 261 669 l 240 665 l 222 663 l 206 656 l 188 646 l 172 633 l 156 625 l 140 611 l 106 565 l 83 510 l 72 469 l 69 451 l 65 432 l 63 411 l 63 393 l 60 371 l 57 351 l 57 293 l 60 253 l 67 217 l 69 194 l 78 151 l 86 133 l 90 115 l 108 83 l 121 65 l 131 49 l 144 35 l 158 22 l 193 6 l 211 -7 l 228 -11 l 249 -12 l 275 -12 z m 264 60 l 244 67 l 213 83 l 199 94 l 186 108 l 178 128 l 171 146 l 164 161 l 161 183 l 153 222 l 151 261 l 150 275 l 147 326 l 147 357 l 151 396 l 150 413 l 165 490 l 171 510 l 179 529 l 188 543 l 214 574 l 239 585 l 267 594 l 294 596 l 326 594 l 365 585 l 414 550 l 425 526 l 432 500 l 431 381 l 433 353 l 432 332 l 431 165 l 424 139 l 413 118 l 401 101 l 386 88 l 371 79 l 353 74 l 338 67 l 321 64 l 292 61 z "},"đ":{"ha":601,"x_min":0,"x_max":0,"o":"m 303 -15 l 322 -10 l 340 -6 l 372 10 l 388 21 l 415 47 l 428 51 l 436 42 l 440 21 l 454 7 l 479 -4 l 500 -4 l 517 10 l 525 25 l 522 44 l 521 65 l 519 88 l 519 182 l 517 204 l 518 438 l 517 454 l 518 476 l 517 499 l 518 514 l 518 742 l 517 761 l 526 789 l 544 797 l 565 797 l 582 807 l 593 826 l 583 850 l 565 856 l 546 857 l 525 868 l 515 889 l 515 910 l 514 926 l 511 944 l 501 964 l 482 969 l 465 972 l 446 971 l 432 963 l 426 943 l 425 925 l 428 888 l 421 865 l 400 858 l 381 860 l 360 856 l 329 860 l 300 850 l 289 828 l 299 807 l 319 797 l 360 797 l 382 796 l 400 797 l 419 789 l 429 771 l 431 681 l 429 663 l 424 638 l 407 639 l 389 650 l 371 658 l 338 669 l 318 674 l 260 669 l 222 661 l 186 650 l 153 626 l 140 613 l 115 582 l 107 564 l 96 546 l 81 511 l 76 493 l 64 433 l 58 392 l 57 324 l 56 296 l 60 244 l 65 215 l 67 193 l 89 117 l 97 97 l 117 65 l 129 50 l 142 33 l 174 11 l 228 -10 l 247 -14 z m 289 60 l 260 61 l 244 67 l 226 72 l 213 83 l 199 99 l 188 113 l 178 128 l 168 146 l 164 165 l 157 185 l 149 239 l 150 258 l 149 278 l 146 296 l 147 325 l 146 354 l 147 376 l 150 394 l 151 414 l 163 494 l 186 544 l 199 563 l 213 575 l 247 592 l 294 597 l 324 593 l 344 588 l 363 582 l 382 574 l 403 557 l 424 525 l 431 499 l 429 304 l 431 283 l 431 264 l 432 225 l 429 206 l 431 169 l 425 140 l 411 118 l 400 104 l 383 93 l 368 81 l 351 74 l 325 67 z "},"e":{"ha":539,"x_min":0,"x_max":0,"o":"m 254 -15 l 315 -14 l 333 -11 l 371 -1 l 390 8 l 410 15 l 426 25 l 443 39 l 457 53 l 467 74 l 464 96 l 456 113 l 439 121 l 419 113 l 394 93 l 369 78 l 353 69 l 332 67 l 313 61 l 283 60 l 253 63 l 235 67 l 203 89 l 174 138 l 163 167 l 154 197 l 163 217 l 179 226 l 200 232 l 219 233 l 239 238 l 275 251 l 296 258 l 314 265 l 363 294 l 379 308 l 421 349 l 450 399 l 460 418 l 464 438 l 468 454 l 475 504 l 469 554 l 464 571 l 444 604 l 415 635 l 363 663 l 326 668 l 297 671 l 269 672 l 229 665 l 176 643 l 158 632 l 144 621 l 119 588 l 99 557 l 90 539 l 83 519 l 69 460 l 63 421 l 56 342 l 57 265 l 60 244 l 63 225 l 64 204 l 71 188 l 72 164 l 78 146 l 93 110 l 101 92 l 135 46 l 163 19 l 179 7 l 235 -11 z m 175 292 l 156 299 l 144 318 l 147 357 l 146 396 l 163 492 l 176 529 l 188 549 l 200 563 l 213 574 l 226 583 l 256 590 l 292 594 l 318 594 l 339 586 l 353 579 l 378 549 l 382 528 l 383 500 l 382 471 l 378 450 l 372 433 l 365 415 l 356 396 l 346 379 l 333 364 l 285 332 l 250 314 l 233 307 l 194 296 z "},"é":{"ha":539,"x_min":0,"x_max":0,"o":"m 254 -15 l 315 -14 l 333 -11 l 371 -1 l 390 8 l 410 15 l 426 25 l 443 39 l 457 53 l 467 74 l 464 96 l 456 113 l 439 121 l 419 113 l 394 93 l 369 78 l 353 69 l 332 67 l 313 61 l 283 60 l 253 63 l 235 67 l 203 89 l 174 138 l 163 167 l 154 197 l 163 217 l 179 226 l 200 232 l 219 233 l 239 238 l 275 251 l 296 258 l 314 265 l 363 294 l 379 308 l 421 349 l 450 399 l 460 418 l 464 438 l 468 454 l 475 504 l 469 554 l 464 571 l 444 604 l 415 635 l 363 663 l 326 668 l 297 671 l 269 672 l 229 665 l 176 643 l 158 632 l 144 621 l 119 588 l 99 557 l 90 539 l 83 519 l 69 460 l 63 421 l 56 342 l 57 265 l 60 244 l 63 225 l 64 204 l 71 188 l 72 164 l 78 146 l 93 110 l 101 92 l 135 46 l 163 19 l 179 7 l 235 -11 z m 175 292 l 156 299 l 144 318 l 147 357 l 146 396 l 163 492 l 176 529 l 188 549 l 200 563 l 213 574 l 226 583 l 256 590 l 292 594 l 318 594 l 339 586 l 353 579 l 378 549 l 382 528 l 383 500 l 382 471 l 378 450 l 372 433 l 365 415 l 356 396 l 346 379 l 333 364 l 285 332 l 250 314 l 233 307 l 194 296 z m 261 750 l 290 757 l 314 779 l 326 797 l 338 811 l 351 831 l 364 849 l 364 865 l 353 879 l 329 879 l 304 867 l 281 850 l 272 832 l 261 814 l 243 778 l 243 760 z "},"ě":{"ha":539,"x_min":0,"x_max":0,"o":"m 254 -15 l 315 -14 l 333 -11 l 371 -1 l 390 8 l 410 15 l 426 25 l 443 39 l 457 53 l 467 74 l 464 96 l 456 113 l 439 121 l 419 113 l 394 93 l 369 78 l 353 69 l 332 67 l 313 61 l 283 60 l 253 63 l 235 67 l 203 89 l 174 138 l 163 167 l 154 197 l 163 217 l 179 226 l 200 232 l 219 233 l 239 238 l 275 251 l 296 258 l 314 265 l 363 294 l 379 308 l 421 349 l 450 399 l 460 418 l 464 438 l 468 454 l 475 504 l 469 554 l 464 571 l 444 604 l 415 635 l 363 663 l 326 668 l 297 671 l 269 672 l 229 665 l 176 643 l 158 632 l 144 621 l 119 588 l 99 557 l 90 539 l 83 519 l 69 460 l 63 421 l 56 342 l 57 265 l 60 244 l 63 225 l 64 204 l 71 188 l 72 164 l 78 146 l 93 110 l 101 92 l 135 46 l 163 19 l 179 7 l 235 -11 z m 175 292 l 156 299 l 144 318 l 147 357 l 146 396 l 163 492 l 176 529 l 188 549 l 200 563 l 213 574 l 226 583 l 256 590 l 292 594 l 318 594 l 339 586 l 353 579 l 378 549 l 382 528 l 383 500 l 382 471 l 378 450 l 372 433 l 365 415 l 356 396 l 346 379 l 333 364 l 285 332 l 250 314 l 233 307 l 194 296 z m 274 749 l 297 749 l 324 756 l 350 772 l 364 789 l 378 803 l 388 821 l 401 836 l 415 853 l 415 872 l 397 878 l 365 869 l 340 853 l 326 833 l 308 815 l 288 807 l 264 819 l 247 833 l 232 854 l 206 869 l 174 879 l 154 868 l 154 850 l 171 836 l 192 813 l 208 790 l 225 774 l 246 758 z "},"ê":{"ha":539,"x_min":0,"x_max":0,"o":"m 254 -15 l 315 -14 l 333 -11 l 371 -1 l 390 8 l 410 15 l 426 25 l 443 39 l 457 53 l 467 74 l 464 96 l 456 113 l 439 121 l 419 113 l 394 93 l 369 78 l 353 69 l 332 67 l 313 61 l 283 60 l 253 63 l 235 67 l 203 89 l 174 138 l 163 167 l 154 197 l 163 217 l 179 226 l 200 232 l 219 233 l 239 238 l 275 251 l 296 258 l 314 265 l 363 294 l 379 308 l 421 349 l 450 399 l 460 418 l 464 438 l 468 454 l 475 504 l 469 554 l 464 571 l 444 604 l 415 635 l 363 663 l 326 668 l 297 671 l 269 672 l 229 665 l 176 643 l 158 632 l 144 621 l 119 588 l 99 557 l 90 539 l 83 519 l 69 460 l 63 421 l 56 342 l 57 265 l 60 244 l 63 225 l 64 204 l 71 188 l 72 164 l 78 146 l 93 110 l 101 92 l 135 46 l 163 19 l 179 7 l 235 -11 z m 175 292 l 156 299 l 144 318 l 147 357 l 146 396 l 163 492 l 176 529 l 188 549 l 200 563 l 213 574 l 226 583 l 256 590 l 292 594 l 318 594 l 339 586 l 353 579 l 378 549 l 382 528 l 383 500 l 382 471 l 378 450 l 372 433 l 365 415 l 356 396 l 346 379 l 333 364 l 285 332 l 250 314 l 233 307 l 194 296 z m 389 749 l 410 750 l 426 754 l 421 774 l 408 790 l 386 813 l 367 835 l 353 854 l 328 869 l 299 878 l 275 876 l 247 868 l 219 854 l 207 833 l 192 822 l 178 806 l 167 793 l 150 774 l 150 753 l 165 749 l 186 751 l 213 757 l 238 774 l 254 790 l 264 810 l 288 819 l 307 810 l 324 794 l 338 776 l 361 757 z "},"ë":{"ha":539,"x_min":0,"x_max":0,"o":"m 254 -15 l 315 -14 l 333 -11 l 371 -1 l 390 8 l 410 15 l 426 25 l 443 39 l 457 53 l 467 74 l 464 96 l 456 113 l 439 121 l 419 113 l 394 93 l 369 78 l 353 69 l 332 67 l 313 61 l 283 60 l 253 63 l 235 67 l 203 89 l 174 138 l 163 167 l 154 197 l 163 217 l 179 226 l 200 232 l 219 233 l 239 238 l 275 251 l 296 258 l 314 265 l 363 294 l 379 308 l 421 349 l 450 399 l 460 418 l 464 438 l 468 454 l 475 504 l 469 554 l 464 571 l 444 604 l 415 635 l 363 663 l 326 668 l 297 671 l 269 672 l 229 665 l 176 643 l 158 632 l 144 621 l 119 588 l 99 557 l 90 539 l 83 519 l 69 460 l 63 421 l 56 342 l 57 265 l 60 244 l 63 225 l 64 204 l 71 188 l 72 164 l 78 146 l 93 110 l 101 92 l 135 46 l 163 19 l 179 7 l 235 -11 z m 175 292 l 156 299 l 144 318 l 147 357 l 146 396 l 163 492 l 176 529 l 188 549 l 200 563 l 213 574 l 226 583 l 256 590 l 292 594 l 318 594 l 339 586 l 353 579 l 378 549 l 382 528 l 383 500 l 382 471 l 378 450 l 372 433 l 365 415 l 356 396 l 346 379 l 333 364 l 285 332 l 250 314 l 233 307 l 194 296 z m 367 764 l 392 767 l 410 778 l 414 811 l 408 840 l 396 857 l 365 863 l 338 853 l 322 839 l 317 811 l 324 783 l 335 769 z m 203 767 l 229 772 l 242 783 l 250 814 l 244 840 l 231 858 l 204 861 l 174 850 l 158 838 l 154 813 l 158 782 l 174 774 z "},"ė":{"ha":539,"x_min":0,"x_max":0,"o":"m 254 -15 l 315 -14 l 333 -11 l 371 -1 l 390 8 l 410 15 l 426 25 l 443 39 l 457 53 l 467 74 l 464 96 l 456 113 l 439 121 l 419 113 l 394 93 l 369 78 l 353 69 l 332 67 l 313 61 l 283 60 l 253 63 l 235 67 l 203 89 l 174 138 l 163 167 l 154 197 l 163 217 l 179 226 l 200 232 l 219 233 l 239 238 l 275 251 l 296 258 l 314 265 l 363 294 l 379 308 l 421 349 l 450 399 l 460 418 l 464 438 l 468 454 l 475 504 l 469 554 l 464 571 l 444 604 l 415 635 l 363 663 l 326 668 l 297 671 l 269 672 l 229 665 l 176 643 l 158 632 l 144 621 l 119 588 l 99 557 l 90 539 l 83 519 l 69 460 l 63 421 l 56 342 l 57 265 l 60 244 l 63 225 l 64 204 l 71 188 l 72 164 l 78 146 l 93 110 l 101 92 l 135 46 l 163 19 l 179 7 l 235 -11 z m 175 292 l 156 299 l 144 318 l 147 357 l 146 396 l 163 492 l 176 529 l 188 549 l 200 563 l 213 574 l 226 583 l 256 590 l 292 594 l 318 594 l 339 586 l 353 579 l 378 549 l 382 528 l 383 500 l 382 471 l 378 450 l 372 433 l 365 415 l 356 396 l 346 379 l 333 364 l 285 332 l 250 314 l 233 307 l 194 296 z m 283 764 l 311 765 l 326 782 l 332 811 l 328 839 l 313 860 l 281 863 l 251 856 l 239 840 l 232 811 l 240 779 l 253 769 z "}}}
